<?xml version="1.0" encoding="utf-8"?>
<svg xmlns="http://www.w3.org/2000/svg" xmlns:xlink="http://www.w3.org/1999/xlink" width="600" height="400" viewBox="0 0 2400 1600">
<defs>
  <clipPath id="clip170">
    <rect x="0" y="0" width="2400" height="1600"/>
  </clipPath>
</defs>
<path clip-path="url(#clip170)" d="M0 1600 L2400 1600 L2400 0 L0 0  Z" fill="#ffffff" fill-rule="evenodd" fill-opacity="1"/>
<defs>
  <clipPath id="clip171">
    <rect x="480" y="0" width="1681" height="1600"/>
  </clipPath>
</defs>
<path clip-path="url(#clip170)" d="M232.389 1423.18 L2352.76 1423.18 L2352.76 123.472 L232.389 123.472  Z" fill="#ffffff" fill-rule="evenodd" fill-opacity="1"/>
<defs>
  <clipPath id="clip172">
    <rect x="232" y="123" width="2121" height="1301"/>
  </clipPath>
</defs>
<polyline clip-path="url(#clip172)" style="stroke:#000000; stroke-linecap:round; stroke-linejoin:round; stroke-width:2; stroke-opacity:0.1; fill:none" points="287.724,1423.18 287.724,123.472 "/>
<polyline clip-path="url(#clip172)" style="stroke:#000000; stroke-linecap:round; stroke-linejoin:round; stroke-width:2; stroke-opacity:0.1; fill:none" points="851.323,1423.18 851.323,123.472 "/>
<polyline clip-path="url(#clip172)" style="stroke:#000000; stroke-linecap:round; stroke-linejoin:round; stroke-width:2; stroke-opacity:0.1; fill:none" points="1414.92,1423.18 1414.92,123.472 "/>
<polyline clip-path="url(#clip172)" style="stroke:#000000; stroke-linecap:round; stroke-linejoin:round; stroke-width:2; stroke-opacity:0.1; fill:none" points="1978.52,1423.18 1978.52,123.472 "/>
<polyline clip-path="url(#clip172)" style="stroke:#000000; stroke-linecap:round; stroke-linejoin:round; stroke-width:2; stroke-opacity:0.1; fill:none" points="232.389,1356.99 2352.76,1356.99 "/>
<polyline clip-path="url(#clip172)" style="stroke:#000000; stroke-linecap:round; stroke-linejoin:round; stroke-width:2; stroke-opacity:0.1; fill:none" points="232.389,1021.9 2352.76,1021.9 "/>
<polyline clip-path="url(#clip172)" style="stroke:#000000; stroke-linecap:round; stroke-linejoin:round; stroke-width:2; stroke-opacity:0.1; fill:none" points="232.389,686.809 2352.76,686.809 "/>
<polyline clip-path="url(#clip172)" style="stroke:#000000; stroke-linecap:round; stroke-linejoin:round; stroke-width:2; stroke-opacity:0.1; fill:none" points="232.389,351.718 2352.76,351.718 "/>
<polyline clip-path="url(#clip170)" style="stroke:#000000; stroke-linecap:round; stroke-linejoin:round; stroke-width:4; stroke-opacity:1; fill:none" points="232.389,1423.18 2352.76,1423.18 "/>
<polyline clip-path="url(#clip170)" style="stroke:#000000; stroke-linecap:round; stroke-linejoin:round; stroke-width:4; stroke-opacity:1; fill:none" points="287.724,1423.18 287.724,1404.28 "/>
<polyline clip-path="url(#clip170)" style="stroke:#000000; stroke-linecap:round; stroke-linejoin:round; stroke-width:4; stroke-opacity:1; fill:none" points="851.323,1423.18 851.323,1404.28 "/>
<polyline clip-path="url(#clip170)" style="stroke:#000000; stroke-linecap:round; stroke-linejoin:round; stroke-width:4; stroke-opacity:1; fill:none" points="1414.92,1423.18 1414.92,1404.28 "/>
<polyline clip-path="url(#clip170)" style="stroke:#000000; stroke-linecap:round; stroke-linejoin:round; stroke-width:4; stroke-opacity:1; fill:none" points="1978.52,1423.18 1978.52,1404.28 "/>
<path clip-path="url(#clip170)" d="M287.724 1454.1 Q284.112 1454.1 282.284 1457.66 Q280.478 1461.2 280.478 1468.33 Q280.478 1475.44 282.284 1479.01 Q284.112 1482.55 287.724 1482.55 Q291.358 1482.55 293.163 1479.01 Q294.992 1475.44 294.992 1468.33 Q294.992 1461.2 293.163 1457.66 Q291.358 1454.1 287.724 1454.1 M287.724 1450.39 Q293.534 1450.39 296.589 1455 Q299.668 1459.58 299.668 1468.33 Q299.668 1477.06 296.589 1481.67 Q293.534 1486.25 287.724 1486.25 Q281.913 1486.25 278.835 1481.67 Q275.779 1477.06 275.779 1468.33 Q275.779 1459.58 278.835 1455 Q281.913 1450.39 287.724 1450.39 Z" fill="#000000" fill-rule="nonzero" fill-opacity="1" /><path clip-path="url(#clip170)" d="M810.929 1481.64 L818.568 1481.64 L818.568 1455.28 L810.258 1456.95 L810.258 1452.69 L818.522 1451.02 L823.198 1451.02 L823.198 1481.64 L830.837 1481.64 L830.837 1485.58 L810.929 1485.58 L810.929 1481.64 Z" fill="#000000" fill-rule="nonzero" fill-opacity="1" /><path clip-path="url(#clip170)" d="M850.281 1454.1 Q846.67 1454.1 844.841 1457.66 Q843.036 1461.2 843.036 1468.33 Q843.036 1475.44 844.841 1479.01 Q846.67 1482.55 850.281 1482.55 Q853.915 1482.55 855.721 1479.01 Q857.55 1475.44 857.55 1468.33 Q857.55 1461.2 855.721 1457.66 Q853.915 1454.1 850.281 1454.1 M850.281 1450.39 Q856.091 1450.39 859.147 1455 Q862.226 1459.58 862.226 1468.33 Q862.226 1477.06 859.147 1481.67 Q856.091 1486.25 850.281 1486.25 Q844.471 1486.25 841.392 1481.67 Q838.337 1477.06 838.337 1468.33 Q838.337 1459.58 841.392 1455 Q844.471 1450.39 850.281 1450.39 Z" fill="#000000" fill-rule="nonzero" fill-opacity="1" /><path clip-path="url(#clip170)" d="M880.443 1454.1 Q876.832 1454.1 875.003 1457.66 Q873.198 1461.2 873.198 1468.33 Q873.198 1475.44 875.003 1479.01 Q876.832 1482.55 880.443 1482.55 Q884.077 1482.55 885.883 1479.01 Q887.711 1475.44 887.711 1468.33 Q887.711 1461.2 885.883 1457.66 Q884.077 1454.1 880.443 1454.1 M880.443 1450.39 Q886.253 1450.39 889.309 1455 Q892.387 1459.58 892.387 1468.33 Q892.387 1477.06 889.309 1481.67 Q886.253 1486.25 880.443 1486.25 Q874.633 1486.25 871.554 1481.67 Q868.499 1477.06 868.499 1468.33 Q868.499 1459.58 871.554 1455 Q874.633 1450.39 880.443 1450.39 Z" fill="#000000" fill-rule="nonzero" fill-opacity="1" /><path clip-path="url(#clip170)" d="M1378.61 1481.64 L1394.93 1481.64 L1394.93 1485.58 L1372.99 1485.58 L1372.99 1481.64 Q1375.65 1478.89 1380.23 1474.26 Q1384.84 1469.61 1386.02 1468.27 Q1388.27 1465.74 1389.15 1464.01 Q1390.05 1462.25 1390.05 1460.56 Q1390.05 1457.8 1388.11 1456.07 Q1386.18 1454.33 1383.08 1454.33 Q1380.88 1454.33 1378.43 1455.09 Q1376 1455.86 1373.22 1457.41 L1373.22 1452.69 Q1376.04 1451.55 1378.5 1450.97 Q1380.95 1450.39 1382.99 1450.39 Q1388.36 1450.39 1391.55 1453.08 Q1394.75 1455.77 1394.75 1460.26 Q1394.75 1462.39 1393.94 1464.31 Q1393.15 1466.2 1391.04 1468.8 Q1390.47 1469.47 1387.36 1472.69 Q1384.26 1475.88 1378.61 1481.64 Z" fill="#000000" fill-rule="nonzero" fill-opacity="1" /><path clip-path="url(#clip170)" d="M1414.75 1454.1 Q1411.14 1454.1 1409.31 1457.66 Q1407.5 1461.2 1407.5 1468.33 Q1407.5 1475.44 1409.31 1479.01 Q1411.14 1482.55 1414.75 1482.55 Q1418.38 1482.55 1420.19 1479.01 Q1422.02 1475.44 1422.02 1468.33 Q1422.02 1461.2 1420.19 1457.66 Q1418.38 1454.1 1414.75 1454.1 M1414.75 1450.39 Q1420.56 1450.39 1423.61 1455 Q1426.69 1459.58 1426.69 1468.33 Q1426.69 1477.06 1423.61 1481.67 Q1420.56 1486.25 1414.75 1486.25 Q1408.94 1486.25 1405.86 1481.67 Q1402.8 1477.06 1402.8 1468.33 Q1402.8 1459.58 1405.86 1455 Q1408.94 1450.39 1414.75 1450.39 Z" fill="#000000" fill-rule="nonzero" fill-opacity="1" /><path clip-path="url(#clip170)" d="M1444.91 1454.1 Q1441.3 1454.1 1439.47 1457.66 Q1437.66 1461.2 1437.66 1468.33 Q1437.66 1475.44 1439.47 1479.01 Q1441.3 1482.55 1444.91 1482.55 Q1448.54 1482.55 1450.35 1479.01 Q1452.18 1475.44 1452.18 1468.33 Q1452.18 1461.2 1450.35 1457.66 Q1448.54 1454.1 1444.91 1454.1 M1444.91 1450.39 Q1450.72 1450.39 1453.78 1455 Q1456.85 1459.58 1456.85 1468.33 Q1456.85 1477.06 1453.78 1481.67 Q1450.72 1486.25 1444.91 1486.25 Q1439.1 1486.25 1436.02 1481.67 Q1432.97 1477.06 1432.97 1468.33 Q1432.97 1459.58 1436.02 1455 Q1439.1 1450.39 1444.91 1450.39 Z" fill="#000000" fill-rule="nonzero" fill-opacity="1" /><path clip-path="url(#clip170)" d="M1952.28 1466.95 Q1955.64 1467.66 1957.51 1469.93 Q1959.41 1472.2 1959.41 1475.53 Q1959.41 1480.65 1955.89 1483.45 Q1952.38 1486.25 1945.89 1486.25 Q1943.72 1486.25 1941.4 1485.81 Q1939.11 1485.39 1936.66 1484.54 L1936.66 1480.02 Q1938.6 1481.16 1940.92 1481.74 Q1943.23 1482.32 1945.76 1482.32 Q1950.15 1482.32 1952.45 1480.58 Q1954.76 1478.84 1954.76 1475.53 Q1954.76 1472.48 1952.61 1470.77 Q1950.48 1469.03 1946.66 1469.03 L1942.63 1469.03 L1942.63 1465.19 L1946.84 1465.19 Q1950.29 1465.19 1952.12 1463.82 Q1953.95 1462.43 1953.95 1459.84 Q1953.95 1457.18 1952.05 1455.77 Q1950.18 1454.33 1946.66 1454.33 Q1944.74 1454.33 1942.54 1454.75 Q1940.34 1455.16 1937.7 1456.04 L1937.7 1451.88 Q1940.36 1451.14 1942.68 1450.77 Q1945.01 1450.39 1947.07 1450.39 Q1952.4 1450.39 1955.5 1452.83 Q1958.6 1455.23 1958.6 1459.35 Q1958.6 1462.22 1956.96 1464.21 Q1955.32 1466.18 1952.28 1466.95 Z" fill="#000000" fill-rule="nonzero" fill-opacity="1" /><path clip-path="url(#clip170)" d="M1978.28 1454.1 Q1974.67 1454.1 1972.84 1457.66 Q1971.03 1461.2 1971.03 1468.33 Q1971.03 1475.44 1972.84 1479.01 Q1974.67 1482.55 1978.28 1482.55 Q1981.91 1482.55 1983.72 1479.01 Q1985.55 1475.44 1985.55 1468.33 Q1985.55 1461.2 1983.72 1457.66 Q1981.91 1454.1 1978.28 1454.1 M1978.28 1450.39 Q1984.09 1450.39 1987.14 1455 Q1990.22 1459.58 1990.22 1468.33 Q1990.22 1477.06 1987.14 1481.67 Q1984.09 1486.25 1978.28 1486.25 Q1972.47 1486.25 1969.39 1481.67 Q1966.33 1477.06 1966.33 1468.33 Q1966.33 1459.58 1969.39 1455 Q1972.47 1450.39 1978.28 1450.39 Z" fill="#000000" fill-rule="nonzero" fill-opacity="1" /><path clip-path="url(#clip170)" d="M2008.44 1454.1 Q2004.83 1454.1 2003 1457.66 Q2001.19 1461.2 2001.19 1468.33 Q2001.19 1475.44 2003 1479.01 Q2004.83 1482.55 2008.44 1482.55 Q2012.07 1482.55 2013.88 1479.01 Q2015.71 1475.44 2015.71 1468.33 Q2015.71 1461.2 2013.88 1457.66 Q2012.07 1454.1 2008.44 1454.1 M2008.44 1450.39 Q2014.25 1450.39 2017.31 1455 Q2020.38 1459.58 2020.38 1468.33 Q2020.38 1477.06 2017.31 1481.67 Q2014.25 1486.25 2008.44 1486.25 Q2002.63 1486.25 1999.55 1481.67 Q1996.5 1477.06 1996.5 1468.33 Q1996.5 1459.58 1999.55 1455 Q2002.63 1450.39 2008.44 1450.39 Z" fill="#000000" fill-rule="nonzero" fill-opacity="1" /><path clip-path="url(#clip170)" d="M1301.04 1531.91 Q1301.04 1532.81 1300.62 1533.04 Q1300.21 1533.23 1299.05 1533.23 L1292.86 1533.23 L1287.97 1552.69 Q1287.58 1554.39 1287.58 1555.84 Q1287.58 1557.45 1288.06 1558.16 Q1288.58 1558.87 1289.64 1558.87 Q1291.74 1558.87 1293.99 1556.97 Q1296.28 1555.07 1298.21 1550.43 Q1298.47 1549.82 1298.6 1549.69 Q1298.76 1549.53 1299.18 1549.53 Q1299.98 1549.53 1299.98 1550.17 Q1299.98 1550.4 1299.53 1551.43 Q1299.11 1552.46 1298.18 1553.97 Q1297.28 1555.49 1296.08 1556.9 Q1294.92 1558.32 1293.15 1559.35 Q1291.38 1560.35 1289.48 1560.35 Q1286.81 1560.35 1285.1 1558.64 Q1283.43 1556.94 1283.43 1554.26 Q1283.43 1553.39 1284.1 1550.62 Q1284.78 1547.82 1288.45 1533.23 L1282.62 1533.23 Q1281.82 1533.23 1281.49 1533.2 Q1281.2 1533.17 1280.98 1533.01 Q1280.79 1532.81 1280.79 1532.43 Q1280.79 1531.82 1281.04 1531.56 Q1281.3 1531.27 1281.62 1531.24 Q1281.98 1531.17 1282.78 1531.17 L1288.97 1531.17 L1291.54 1520.71 Q1291.8 1519.67 1292.44 1519.09 Q1293.12 1518.48 1293.51 1518.42 Q1293.89 1518.32 1294.18 1518.32 Q1295.05 1518.32 1295.57 1518.81 Q1296.08 1519.26 1296.08 1520.09 Q1296.08 1520.54 1293.38 1531.17 L1299.18 1531.17 Q1299.92 1531.17 1300.21 1531.2 Q1300.53 1531.24 1300.79 1531.4 Q1301.04 1531.56 1301.04 1531.91 Z" fill="#000000" fill-rule="nonzero" fill-opacity="1" /><polyline clip-path="url(#clip170)" style="stroke:#000000; stroke-linecap:round; stroke-linejoin:round; stroke-width:4; stroke-opacity:1; fill:none" points="232.389,1423.18 232.389,123.472 "/>
<polyline clip-path="url(#clip170)" style="stroke:#000000; stroke-linecap:round; stroke-linejoin:round; stroke-width:4; stroke-opacity:1; fill:none" points="232.389,1356.99 251.287,1356.99 "/>
<polyline clip-path="url(#clip170)" style="stroke:#000000; stroke-linecap:round; stroke-linejoin:round; stroke-width:4; stroke-opacity:1; fill:none" points="232.389,1021.9 251.287,1021.9 "/>
<polyline clip-path="url(#clip170)" style="stroke:#000000; stroke-linecap:round; stroke-linejoin:round; stroke-width:4; stroke-opacity:1; fill:none" points="232.389,686.809 251.287,686.809 "/>
<polyline clip-path="url(#clip170)" style="stroke:#000000; stroke-linecap:round; stroke-linejoin:round; stroke-width:4; stroke-opacity:1; fill:none" points="232.389,351.718 251.287,351.718 "/>
<path clip-path="url(#clip170)" d="M154.283 1357.86 Q150.95 1357.86 149.028 1359.64 Q147.13 1361.43 147.13 1364.55 Q147.13 1367.68 149.028 1369.46 Q150.95 1371.24 154.283 1371.24 Q157.616 1371.24 159.538 1369.46 Q161.459 1367.65 161.459 1364.55 Q161.459 1361.43 159.538 1359.64 Q157.64 1357.86 154.283 1357.86 M149.607 1355.87 Q146.598 1355.13 144.908 1353.07 Q143.241 1351.01 143.241 1348.05 Q143.241 1343.9 146.181 1341.5 Q149.144 1339.09 154.283 1339.09 Q159.445 1339.09 162.385 1341.5 Q165.325 1343.9 165.325 1348.05 Q165.325 1351.01 163.635 1353.07 Q161.968 1355.13 158.982 1355.87 Q162.362 1356.66 164.237 1358.95 Q166.135 1361.24 166.135 1364.55 Q166.135 1369.57 163.056 1372.26 Q160.001 1374.94 154.283 1374.94 Q148.566 1374.94 145.487 1372.26 Q142.431 1369.57 142.431 1364.55 Q142.431 1361.24 144.329 1358.95 Q146.228 1356.66 149.607 1355.87 M147.894 1348.49 Q147.894 1351.17 149.561 1352.68 Q151.251 1354.18 154.283 1354.18 Q157.292 1354.18 158.982 1352.68 Q160.695 1351.17 160.695 1348.49 Q160.695 1345.8 158.982 1344.3 Q157.292 1342.79 154.283 1342.79 Q151.251 1342.79 149.561 1344.3 Q147.894 1345.8 147.894 1348.49 Z" fill="#000000" fill-rule="nonzero" fill-opacity="1" /><path clip-path="url(#clip170)" d="M184.445 1342.79 Q180.834 1342.79 179.005 1346.36 Q177.2 1349.9 177.2 1357.03 Q177.2 1364.13 179.005 1367.7 Q180.834 1371.24 184.445 1371.24 Q188.079 1371.24 189.885 1367.7 Q191.713 1364.13 191.713 1357.03 Q191.713 1349.9 189.885 1346.36 Q188.079 1342.79 184.445 1342.79 M184.445 1339.09 Q190.255 1339.09 193.311 1343.69 Q196.389 1348.28 196.389 1357.03 Q196.389 1365.75 193.311 1370.36 Q190.255 1374.94 184.445 1374.94 Q178.635 1374.94 175.556 1370.36 Q172.501 1365.75 172.501 1357.03 Q172.501 1348.28 175.556 1343.69 Q178.635 1339.09 184.445 1339.09 Z" fill="#000000" fill-rule="nonzero" fill-opacity="1" /><path clip-path="url(#clip170)" d="M114.931 1035.25 L122.57 1035.25 L122.57 1008.88 L114.26 1010.55 L114.26 1006.29 L122.524 1004.62 L127.2 1004.62 L127.2 1035.25 L134.839 1035.25 L134.839 1039.18 L114.931 1039.18 L114.931 1035.25 Z" fill="#000000" fill-rule="nonzero" fill-opacity="1" /><path clip-path="url(#clip170)" d="M154.283 1007.7 Q150.672 1007.7 148.843 1011.26 Q147.038 1014.81 147.038 1021.94 Q147.038 1029.04 148.843 1032.61 Q150.672 1036.15 154.283 1036.15 Q157.917 1036.15 159.723 1032.61 Q161.552 1029.04 161.552 1021.94 Q161.552 1014.81 159.723 1011.26 Q157.917 1007.7 154.283 1007.7 M154.283 1004 Q160.093 1004 163.149 1008.6 Q166.227 1013.19 166.227 1021.94 Q166.227 1030.66 163.149 1035.27 Q160.093 1039.85 154.283 1039.85 Q148.473 1039.85 145.394 1035.27 Q142.339 1030.66 142.339 1021.94 Q142.339 1013.19 145.394 1008.6 Q148.473 1004 154.283 1004 Z" fill="#000000" fill-rule="nonzero" fill-opacity="1" /><path clip-path="url(#clip170)" d="M184.445 1007.7 Q180.834 1007.7 179.005 1011.26 Q177.2 1014.81 177.2 1021.94 Q177.2 1029.04 179.005 1032.61 Q180.834 1036.15 184.445 1036.15 Q188.079 1036.15 189.885 1032.61 Q191.713 1029.04 191.713 1021.94 Q191.713 1014.81 189.885 1011.26 Q188.079 1007.7 184.445 1007.7 M184.445 1004 Q190.255 1004 193.311 1008.6 Q196.389 1013.19 196.389 1021.94 Q196.389 1030.66 193.311 1035.27 Q190.255 1039.85 184.445 1039.85 Q178.635 1039.85 175.556 1035.27 Q172.501 1030.66 172.501 1021.94 Q172.501 1013.19 175.556 1008.6 Q178.635 1004 184.445 1004 Z" fill="#000000" fill-rule="nonzero" fill-opacity="1" /><path clip-path="url(#clip170)" d="M114.931 700.154 L122.57 700.154 L122.57 673.789 L114.26 675.455 L114.26 671.196 L122.524 669.529 L127.2 669.529 L127.2 700.154 L134.839 700.154 L134.839 704.089 L114.931 704.089 L114.931 700.154 Z" fill="#000000" fill-rule="nonzero" fill-opacity="1" /><path clip-path="url(#clip170)" d="M148.311 700.154 L164.63 700.154 L164.63 704.089 L142.686 704.089 L142.686 700.154 Q145.348 697.4 149.931 692.77 Q154.538 688.117 155.718 686.775 Q157.964 684.252 158.843 682.516 Q159.746 680.756 159.746 679.066 Q159.746 676.312 157.802 674.576 Q155.88 672.84 152.778 672.84 Q150.579 672.84 148.126 673.604 Q145.695 674.367 142.917 675.918 L142.917 671.196 Q145.741 670.062 148.195 669.483 Q150.649 668.904 152.686 668.904 Q158.056 668.904 161.251 671.59 Q164.445 674.275 164.445 678.766 Q164.445 680.895 163.635 682.816 Q162.848 684.715 160.741 687.307 Q160.163 687.978 157.061 691.196 Q153.959 694.39 148.311 700.154 Z" fill="#000000" fill-rule="nonzero" fill-opacity="1" /><path clip-path="url(#clip170)" d="M184.445 672.608 Q180.834 672.608 179.005 676.173 Q177.2 679.715 177.2 686.844 Q177.2 693.951 179.005 697.515 Q180.834 701.057 184.445 701.057 Q188.079 701.057 189.885 697.515 Q191.713 693.951 191.713 686.844 Q191.713 679.715 189.885 676.173 Q188.079 672.608 184.445 672.608 M184.445 668.904 Q190.255 668.904 193.311 673.511 Q196.389 678.094 196.389 686.844 Q196.389 695.571 193.311 700.177 Q190.255 704.761 184.445 704.761 Q178.635 704.761 175.556 700.177 Q172.501 695.571 172.501 686.844 Q172.501 678.094 175.556 673.511 Q178.635 668.904 184.445 668.904 Z" fill="#000000" fill-rule="nonzero" fill-opacity="1" /><path clip-path="url(#clip170)" d="M114.931 365.063 L122.57 365.063 L122.57 338.697 L114.26 340.364 L114.26 336.105 L122.524 334.438 L127.2 334.438 L127.2 365.063 L134.839 365.063 L134.839 368.998 L114.931 368.998 L114.931 365.063 Z" fill="#000000" fill-rule="nonzero" fill-opacity="1" /><path clip-path="url(#clip170)" d="M157.13 338.512 L145.325 356.961 L157.13 356.961 L157.13 338.512 M155.903 334.438 L161.783 334.438 L161.783 356.961 L166.714 356.961 L166.714 360.85 L161.783 360.85 L161.783 368.998 L157.13 368.998 L157.13 360.85 L141.529 360.85 L141.529 356.336 L155.903 334.438 Z" fill="#000000" fill-rule="nonzero" fill-opacity="1" /><path clip-path="url(#clip170)" d="M184.445 337.517 Q180.834 337.517 179.005 341.081 Q177.2 344.623 177.2 351.753 Q177.2 358.859 179.005 362.424 Q180.834 365.966 184.445 365.966 Q188.079 365.966 189.885 362.424 Q191.713 358.859 191.713 351.753 Q191.713 344.623 189.885 341.081 Q188.079 337.517 184.445 337.517 M184.445 333.813 Q190.255 333.813 193.311 338.419 Q196.389 343.003 196.389 351.753 Q196.389 360.479 193.311 365.086 Q190.255 369.669 184.445 369.669 Q178.635 369.669 175.556 365.086 Q172.501 360.479 172.501 351.753 Q172.501 343.003 175.556 338.419 Q178.635 333.813 184.445 333.813 Z" fill="#000000" fill-rule="nonzero" fill-opacity="1" /><path clip-path="url(#clip170)" d="M29.8817 775.214 Q31.6852 775.214 32.7158 776.341 Q33.7142 777.468 33.7142 778.757 Q33.7142 779.981 33.0056 780.625 Q32.2971 781.269 31.3954 781.269 Q30.1715 781.269 29.1087 780.367 Q28.0459 779.465 27.8205 778.113 Q26.9831 779.433 26.9831 781.398 Q26.9831 782.686 27.6595 783.813 Q28.3358 784.908 29.2054 785.584 Q30.0749 786.228 31.3309 786.808 Q32.5548 787.356 33.2955 787.581 Q34.004 787.774 34.777 787.935 L43.7946 790.19 Q48.078 791.285 49.5917 791.285 Q51.4596 791.285 52.7156 790.383 Q53.9395 789.481 53.9395 787.678 Q53.9395 786.969 53.7462 786.164 Q53.5208 785.359 52.9411 784.328 Q52.3292 783.266 51.4274 782.332 Q50.4934 781.365 48.9153 780.431 Q47.3373 779.497 45.3083 778.886 Q44.5998 778.692 44.5998 778.048 Q44.5998 777.243 45.2439 777.243 Q45.7914 777.243 46.9508 777.694 Q48.078 778.113 49.5595 779.047 Q51.0087 779.948 52.3292 781.14 Q53.6174 782.332 54.5192 784.103 Q55.4209 785.874 55.4209 787.807 Q55.4209 790.576 53.9395 792.412 Q52.458 794.248 50.3968 794.924 Q50.6867 795.085 51.0731 795.311 Q51.4596 795.536 52.3292 796.212 Q53.1665 796.856 53.8106 797.597 Q54.4225 798.338 54.9056 799.497 Q55.4209 800.624 55.4209 801.848 Q55.4209 803.394 54.97 804.779 Q54.5192 806.132 53.4886 807.098 Q52.458 808.064 51.0409 808.064 Q49.4628 808.064 48.3678 807.001 Q47.2406 805.906 47.2406 804.425 Q47.2406 803.491 47.7881 802.75 Q48.3356 801.977 49.5273 801.977 Q50.8477 801.977 51.8461 802.879 Q52.8445 803.781 53.1021 805.069 Q53.9395 803.748 53.9395 801.784 Q53.9395 799.658 52.0715 797.984 Q50.2036 796.309 47.0796 795.504 Q39.5756 793.507 36.2262 792.734 Q32.8446 791.961 31.3954 791.961 Q30.0427 791.961 29.1087 792.315 Q28.1748 792.67 27.7561 793.282 Q27.3052 793.861 27.1442 794.409 Q26.9831 794.924 26.9831 795.504 Q26.9831 796.47 27.3696 797.565 Q27.7561 798.628 28.6579 799.916 Q29.5274 801.172 31.3309 802.364 Q33.1345 803.555 35.6143 804.36 Q36.3551 804.521 36.3551 805.23 Q36.3228 806.003 35.6787 806.003 Q35.1312 806.003 34.004 805.584 Q32.8446 805.133 31.3954 804.232 Q29.9461 803.298 28.6579 802.106 Q27.3374 800.882 26.4356 799.111 Q25.5339 797.307 25.5339 795.375 Q25.5339 794.505 25.7271 793.668 Q25.8881 792.798 26.3712 791.768 Q26.8543 790.705 27.9171 789.771 Q28.9799 788.837 30.5258 788.257 Q29.7851 787.871 29.0765 787.356 Q28.368 786.808 27.4984 785.971 Q26.5967 785.101 26.0814 783.91 Q25.5339 782.686 25.5339 781.333 Q25.5339 780.013 25.8881 778.724 Q26.2102 777.436 27.273 776.341 Q28.3036 775.214 29.8817 775.214 Z" fill="#000000" fill-rule="nonzero" fill-opacity="1" /><path clip-path="url(#clip170)" d="M47.3371 768.493 L45.8942 768.493 Q45.8942 762.947 42.941 760.084 Q42.941 759.295 43.1213 759.16 Q43.3017 759.024 44.1358 759.024 L70.039 759.024 Q71.4142 759.024 71.8425 758.348 Q72.2708 757.672 72.2708 754.718 L72.2708 753.253 L73.6911 753.253 Q73.5559 754.876 73.5559 760.738 Q73.5559 766.599 73.6911 768.2 L72.2708 768.2 L72.2708 766.734 Q72.2708 763.826 71.8651 763.127 Q71.4367 762.428 70.039 762.428 L46.1197 762.428 Q47.3371 764.841 47.3371 768.493 Z" fill="#000000" fill-rule="nonzero" fill-opacity="1" /><path clip-path="url(#clip170)" d="M665.925 29.1399 Q665.925 31.4353 664.49 32.747 Q663.055 34.0177 661.416 34.0177 Q659.858 34.0177 659.038 33.1159 Q658.219 32.2141 658.219 31.0664 Q658.219 29.5088 659.366 28.1562 Q660.514 26.8036 662.236 26.5166 Q660.555 25.4509 658.055 25.4509 Q656.415 25.4509 654.98 26.3117 Q653.587 27.1725 652.726 28.2792 Q651.906 29.3859 651.168 30.9845 Q650.472 32.5421 650.185 33.4848 Q649.939 34.3866 649.734 35.3703 L646.865 46.8473 Q645.471 52.2989 645.471 54.2254 Q645.471 56.6028 646.619 58.2013 Q647.766 59.7589 650.062 59.7589 Q650.964 59.7589 651.988 59.513 Q653.013 59.2261 654.325 58.4883 Q655.677 57.7095 656.866 56.5618 Q658.096 55.3731 659.284 53.3646 Q660.473 51.3561 661.252 48.7738 Q661.498 47.872 662.318 47.872 Q663.342 47.872 663.342 48.6918 Q663.342 49.3886 662.768 50.8643 Q662.236 52.2989 661.047 54.1844 Q659.899 56.0289 658.383 57.7095 Q656.866 59.349 654.612 60.4967 Q652.357 61.6444 649.898 61.6444 Q646.373 61.6444 644.036 59.7589 Q641.7 57.8734 640.839 55.2501 Q640.634 55.619 640.347 56.1109 Q640.06 56.6028 639.2 57.7095 Q638.38 58.7752 637.437 59.595 Q636.494 60.3738 635.019 60.9886 Q633.584 61.6444 632.026 61.6444 Q630.059 61.6444 628.296 61.0706 Q626.575 60.4967 625.345 59.1851 Q624.116 57.8734 624.116 56.0699 Q624.116 54.0614 625.468 52.6678 Q626.862 51.2332 628.747 51.2332 Q629.936 51.2332 630.879 51.93 Q631.863 52.6268 631.863 54.1434 Q631.863 55.824 630.715 57.0946 Q629.567 58.3653 627.928 58.6932 Q629.608 59.7589 632.108 59.7589 Q634.814 59.7589 636.945 57.3816 Q639.077 55.0042 640.101 51.0282 Q642.643 41.4777 643.626 37.2148 Q644.61 32.911 644.61 31.0664 Q644.61 29.3449 644.159 28.1562 Q643.708 26.9675 642.93 26.4347 Q642.192 25.8608 641.495 25.6559 Q640.839 25.4509 640.101 25.4509 Q638.872 25.4509 637.478 25.9428 Q636.125 26.4347 634.486 27.5824 Q632.887 28.6891 631.371 30.9845 Q629.854 33.2799 628.829 36.436 Q628.624 37.3788 627.723 37.3788 Q626.739 37.3378 626.739 36.518 Q626.739 35.8212 627.272 34.3866 Q627.846 32.911 628.993 31.0664 Q630.182 29.2219 631.699 27.5824 Q633.256 25.9018 635.511 24.7541 Q637.806 23.6064 640.265 23.6064 Q641.372 23.6064 642.438 23.8523 Q643.544 24.0573 644.856 24.6721 Q646.209 25.287 647.397 26.6396 Q648.586 27.9922 649.324 29.9597 Q649.816 29.017 650.472 28.1152 Q651.168 27.2134 652.234 26.1067 Q653.341 24.959 654.858 24.3032 Q656.415 23.6064 658.137 23.6064 Q659.817 23.6064 661.457 24.0573 Q663.096 24.4672 664.49 25.8198 Q665.925 27.1315 665.925 29.1399 Z" fill="#000000" fill-rule="nonzero" fill-opacity="1" /><path clip-path="url(#clip170)" d="M674.482 51.3552 L674.482 49.5188 Q681.54 49.5188 685.184 45.7601 Q686.188 45.7601 686.36 45.9897 Q686.533 46.2192 686.533 47.2808 L686.533 80.2485 Q686.533 81.9987 687.393 82.5439 Q688.254 83.0891 692.013 83.0891 L693.878 83.0891 L693.878 84.8967 Q691.812 84.7245 684.352 84.7245 Q676.892 84.7245 674.855 84.8967 L674.855 83.0891 L676.72 83.0891 Q680.421 83.0891 681.311 82.5726 Q682.2 82.0274 682.2 80.2485 L682.2 49.8058 Q679.13 51.3552 674.482 51.3552 Z" fill="#000000" fill-rule="nonzero" fill-opacity="1" /><path clip-path="url(#clip170)" d="M712.541 50.4124 L721.088 50.4124 L721.088 60.7017 L712.541 60.7017 L712.541 50.4124 M712.541 17.8026 L721.088 17.8026 L721.088 28.0919 L712.541 28.0919 L712.541 17.8026 Z" fill="#000000" fill-rule="nonzero" fill-opacity="1" /><path clip-path="url(#clip170)" d="M772.17 53.8962 L772.17 77.9585 L764.676 77.9585 L764.676 15.3316 L772.17 15.3316 L772.17 22.2181 Q774.52 18.1672 778.085 16.2228 Q781.69 14.2378 786.673 14.2378 Q794.936 14.2378 800.081 20.8003 Q805.266 27.3627 805.266 38.0571 Q805.266 48.7515 800.081 55.314 Q794.936 61.8764 786.673 61.8764 Q781.69 61.8764 778.085 59.932 Q774.52 57.9471 772.17 53.8962 M797.529 38.0571 Q797.529 29.8338 794.126 25.1753 Q790.764 20.4762 784.85 20.4762 Q778.935 20.4762 775.533 25.1753 Q772.17 29.8338 772.17 38.0571 Q772.17 46.2805 775.533 50.9795 Q778.935 55.6381 784.85 55.6381 Q790.764 55.6381 794.126 50.9795 Q797.529 46.2805 797.529 38.0571 Z" fill="#000000" fill-rule="nonzero" fill-opacity="1" /><path clip-path="url(#clip170)" d="M843.912 22.2991 Q842.656 21.57 841.157 21.2459 Q839.699 20.8813 837.917 20.8813 Q831.597 20.8813 828.194 25.0132 Q824.832 29.1046 824.832 36.8014 L824.832 60.7017 L817.338 60.7017 L817.338 15.3316 L824.832 15.3316 L824.832 22.3801 Q827.182 18.2482 830.949 16.2633 Q834.716 14.2378 840.104 14.2378 Q840.874 14.2378 841.805 14.3593 Q842.737 14.4404 843.871 14.6429 L843.912 22.2991 Z" fill="#000000" fill-rule="nonzero" fill-opacity="1" /><path clip-path="url(#clip170)" d="M888.715 36.1532 L888.715 39.799 L854.444 39.799 Q854.93 47.4957 859.062 51.5466 Q863.235 55.557 870.648 55.557 Q874.942 55.557 878.952 54.5038 Q883.003 53.4506 886.973 51.3441 L886.973 58.3927 Q882.963 60.0941 878.75 60.9853 Q874.537 61.8764 870.202 61.8764 Q859.346 61.8764 852.986 55.557 Q846.666 49.2376 846.666 38.4622 Q846.666 27.3222 852.662 20.8003 Q858.698 14.2378 868.906 14.2378 Q878.061 14.2378 883.368 20.1521 Q888.715 26.0259 888.715 36.1532 M881.261 33.9657 Q881.18 27.8489 877.818 24.203 Q874.496 20.5572 868.987 20.5572 Q862.749 20.5572 858.981 24.0815 Q855.254 27.6058 854.687 34.0062 L881.261 33.9657 Z" fill="#000000" fill-rule="nonzero" fill-opacity="1" /><path clip-path="url(#clip170)" d="M930.804 22.2181 L930.804 -2.33038 L938.257 -2.33038 L938.257 60.7017 L930.804 60.7017 L930.804 53.8962 Q928.454 57.9471 924.849 59.932 Q921.284 61.8764 916.261 61.8764 Q908.038 61.8764 902.853 55.314 Q897.708 48.7515 897.708 38.0571 Q897.708 27.3627 902.853 20.8003 Q908.038 14.2378 916.261 14.2378 Q921.284 14.2378 924.849 16.2228 Q928.454 18.1672 930.804 22.2181 M905.405 38.0571 Q905.405 46.2805 908.767 50.9795 Q912.17 55.6381 918.084 55.6381 Q923.998 55.6381 927.401 50.9795 Q930.804 46.2805 930.804 38.0571 Q930.804 29.8338 927.401 25.1753 Q923.998 20.4762 918.084 20.4762 Q912.17 20.4762 908.767 25.1753 Q905.405 29.8338 905.405 38.0571 Z" fill="#000000" fill-rule="nonzero" fill-opacity="1" /><path clip-path="url(#clip170)" d="M953.61 15.3316 L961.064 15.3316 L961.064 60.7017 L953.61 60.7017 L953.61 15.3316 M953.61 -2.33038 L961.064 -2.33038 L961.064 7.10822 L953.61 7.10822 L953.61 -2.33038 Z" fill="#000000" fill-rule="nonzero" fill-opacity="1" /><path clip-path="url(#clip170)" d="M1009.31 17.0734 L1009.31 24.041 Q1006.15 22.2991 1002.95 21.4484 Q999.791 20.5572 996.55 20.5572 Q989.299 20.5572 985.288 25.1753 Q981.278 29.7528 981.278 38.0571 Q981.278 46.3615 985.288 50.9795 Q989.299 55.557 996.55 55.557 Q999.791 55.557 1002.95 54.7063 Q1006.15 53.8152 1009.31 52.0733 L1009.31 58.9598 Q1006.19 60.4181 1002.83 61.1473 Q999.507 61.8764 995.74 61.8764 Q985.491 61.8764 979.455 55.4355 Q973.419 48.9946 973.419 38.0571 Q973.419 26.9577 979.496 20.5977 Q985.612 14.2378 996.226 14.2378 Q999.669 14.2378 1002.95 14.967 Q1006.23 15.6556 1009.31 17.0734 Z" fill="#000000" fill-rule="nonzero" fill-opacity="1" /><path clip-path="url(#clip170)" d="M1029.65 2.44968 L1029.65 15.3316 L1045 15.3316 L1045 21.1244 L1029.65 21.1244 L1029.65 45.7539 Q1029.65 51.3036 1031.14 52.8834 Q1032.68 54.4633 1037.34 54.4633 L1045 54.4633 L1045 60.7017 L1037.34 60.7017 Q1028.71 60.7017 1025.43 57.5015 Q1022.15 54.2607 1022.15 45.7539 L1022.15 21.1244 L1016.68 21.1244 L1016.68 15.3316 L1022.15 15.3316 L1022.15 2.44968 L1029.65 2.44968 Z" fill="#000000" fill-rule="nonzero" fill-opacity="1" /><path clip-path="url(#clip170)" d="M1093.61 36.1532 L1093.61 39.799 L1059.34 39.799 Q1059.83 47.4957 1063.96 51.5466 Q1068.13 55.557 1075.54 55.557 Q1079.84 55.557 1083.85 54.5038 Q1087.9 53.4506 1091.87 51.3441 L1091.87 58.3927 Q1087.86 60.0941 1083.64 60.9853 Q1079.43 61.8764 1075.1 61.8764 Q1064.24 61.8764 1057.88 55.557 Q1051.56 49.2376 1051.56 38.4622 Q1051.56 27.3222 1057.56 20.8003 Q1063.59 14.2378 1073.8 14.2378 Q1082.96 14.2378 1088.26 20.1521 Q1093.61 26.0259 1093.61 36.1532 M1086.16 33.9657 Q1086.07 27.8489 1082.71 24.203 Q1079.39 20.5572 1073.88 20.5572 Q1067.64 20.5572 1063.88 24.0815 Q1060.15 27.6058 1059.58 34.0062 L1086.16 33.9657 Z" fill="#000000" fill-rule="nonzero" fill-opacity="1" /><path clip-path="url(#clip170)" d="M1135.7 22.2181 L1135.7 -2.33038 L1143.15 -2.33038 L1143.15 60.7017 L1135.7 60.7017 L1135.7 53.8962 Q1133.35 57.9471 1129.74 59.932 Q1126.18 61.8764 1121.16 61.8764 Q1112.93 61.8764 1107.75 55.314 Q1102.6 48.7515 1102.6 38.0571 Q1102.6 27.3627 1107.75 20.8003 Q1112.93 14.2378 1121.16 14.2378 Q1126.18 14.2378 1129.74 16.2228 Q1133.35 18.1672 1135.7 22.2181 M1110.3 38.0571 Q1110.3 46.2805 1113.66 50.9795 Q1117.06 55.6381 1122.98 55.6381 Q1128.89 55.6381 1132.3 50.9795 Q1135.7 46.2805 1135.7 38.0571 Q1135.7 29.8338 1132.3 25.1753 Q1128.89 20.4762 1122.98 20.4762 Q1117.06 20.4762 1113.66 25.1753 Q1110.3 29.8338 1110.3 38.0571 Z" fill="#000000" fill-rule="nonzero" fill-opacity="1" /><path clip-path="url(#clip170)" d="M1213.8 16.6684 L1213.8 23.7169 Q1210.64 22.0966 1207.24 21.2864 Q1203.83 20.4762 1200.19 20.4762 Q1194.64 20.4762 1191.84 22.1776 Q1189.09 23.879 1189.09 27.2817 Q1189.09 29.8743 1191.07 31.3731 Q1193.06 32.8315 1199.05 34.1683 L1201.61 34.7354 Q1209.55 36.4368 1212.87 39.556 Q1216.23 42.6347 1216.23 48.1844 Q1216.23 54.5038 1211.21 58.1901 Q1206.22 61.8764 1197.47 61.8764 Q1193.83 61.8764 1189.86 61.1473 Q1185.93 60.4586 1181.55 59.0408 L1181.55 51.3441 Q1185.69 53.4911 1189.7 54.5848 Q1193.71 55.6381 1197.64 55.6381 Q1202.9 55.6381 1205.74 53.8557 Q1208.57 52.0328 1208.57 48.7515 Q1208.57 45.7133 1206.51 44.093 Q1204.48 42.4726 1197.56 40.9738 L1194.96 40.3661 Q1188.04 38.9078 1184.96 35.9102 Q1181.88 32.872 1181.88 27.6058 Q1181.88 21.2054 1186.42 17.7216 Q1190.95 14.2378 1199.3 14.2378 Q1203.43 14.2378 1207.08 14.8455 Q1210.72 15.4531 1213.8 16.6684 Z" fill="#000000" fill-rule="nonzero" fill-opacity="1" /><path clip-path="url(#clip170)" d="M1235.47 2.44968 L1235.47 15.3316 L1250.83 15.3316 L1250.83 21.1244 L1235.47 21.1244 L1235.47 45.7539 Q1235.47 51.3036 1236.97 52.8834 Q1238.51 54.4633 1243.17 54.4633 L1250.83 54.4633 L1250.83 60.7017 L1243.17 60.7017 Q1234.54 60.7017 1231.26 57.5015 Q1227.98 54.2607 1227.98 45.7539 L1227.98 21.1244 L1222.51 21.1244 L1222.51 15.3316 L1227.98 15.3316 L1227.98 2.44968 L1235.47 2.44968 Z" fill="#000000" fill-rule="nonzero" fill-opacity="1" /><path clip-path="url(#clip170)" d="M1281.25 37.8951 Q1272.21 37.8951 1268.73 39.9611 Q1265.25 42.027 1265.25 47.0096 Q1265.25 50.9795 1267.84 53.329 Q1270.47 55.6381 1274.97 55.6381 Q1281.17 55.6381 1284.89 51.2631 Q1288.66 46.8476 1288.66 39.556 L1288.66 37.8951 L1281.25 37.8951 M1296.11 34.8164 L1296.11 60.7017 L1288.66 60.7017 L1288.66 53.8152 Q1286.11 57.9471 1282.3 59.932 Q1278.49 61.8764 1272.98 61.8764 Q1266.02 61.8764 1261.88 57.9876 Q1257.79 54.0582 1257.79 47.4957 Q1257.79 39.8395 1262.9 35.9507 Q1268.04 32.0618 1278.21 32.0618 L1288.66 32.0618 L1288.66 31.3326 Q1288.66 26.188 1285.26 23.3929 Q1281.9 20.5572 1275.78 20.5572 Q1271.89 20.5572 1268.2 21.4889 Q1264.52 22.4206 1261.11 24.2841 L1261.11 17.3975 Q1265.21 15.8177 1269.05 15.048 Q1272.9 14.2378 1276.55 14.2378 Q1286.39 14.2378 1291.25 19.342 Q1296.11 24.4461 1296.11 34.8164 Z" fill="#000000" fill-rule="nonzero" fill-opacity="1" /><path clip-path="url(#clip170)" d="M1318.84 2.44968 L1318.84 15.3316 L1334.19 15.3316 L1334.19 21.1244 L1318.84 21.1244 L1318.84 45.7539 Q1318.84 51.3036 1320.34 52.8834 Q1321.88 54.4633 1326.54 54.4633 L1334.19 54.4633 L1334.19 60.7017 L1326.54 60.7017 Q1317.91 60.7017 1314.63 57.5015 Q1311.35 54.2607 1311.35 45.7539 L1311.35 21.1244 L1305.88 21.1244 L1305.88 15.3316 L1311.35 15.3316 L1311.35 2.44968 L1318.84 2.44968 Z" fill="#000000" fill-rule="nonzero" fill-opacity="1" /><path clip-path="url(#clip170)" d="M1382.8 36.1532 L1382.8 39.799 L1348.53 39.799 Q1349.02 47.4957 1353.15 51.5466 Q1357.32 55.557 1364.74 55.557 Q1369.03 55.557 1373.04 54.5038 Q1377.09 53.4506 1381.06 51.3441 L1381.06 58.3927 Q1377.05 60.0941 1372.84 60.9853 Q1368.63 61.8764 1364.29 61.8764 Q1353.43 61.8764 1347.07 55.557 Q1340.76 49.2376 1340.76 38.4622 Q1340.76 27.3222 1346.75 20.8003 Q1352.79 14.2378 1362.99 14.2378 Q1372.15 14.2378 1377.46 20.1521 Q1382.8 26.0259 1382.8 36.1532 M1375.35 33.9657 Q1375.27 27.8489 1371.91 24.203 Q1368.58 20.5572 1363.08 20.5572 Q1356.84 20.5572 1353.07 24.0815 Q1349.34 27.6058 1348.78 34.0062 L1375.35 33.9657 Z" fill="#000000" fill-rule="nonzero" fill-opacity="1" /><path clip-path="url(#clip170)" d="M1416.06 15.3316 L1423.96 15.3316 L1438.14 53.4101 L1452.32 15.3316 L1460.22 15.3316 L1443.2 60.7017 L1433.08 60.7017 L1416.06 15.3316 Z" fill="#000000" fill-rule="nonzero" fill-opacity="1" /><path clip-path="url(#clip170)" d="M1499.43 16.6684 L1499.43 23.7169 Q1496.27 22.0966 1492.87 21.2864 Q1489.46 20.4762 1485.82 20.4762 Q1480.27 20.4762 1477.47 22.1776 Q1474.72 23.879 1474.72 27.2817 Q1474.72 29.8743 1476.7 31.3731 Q1478.69 32.8315 1484.68 34.1683 L1487.24 34.7354 Q1495.18 36.4368 1498.5 39.556 Q1501.86 42.6347 1501.86 48.1844 Q1501.86 54.5038 1496.84 58.1901 Q1491.85 61.8764 1483.1 61.8764 Q1479.46 61.8764 1475.49 61.1473 Q1471.56 60.4586 1467.18 59.0408 L1467.18 51.3441 Q1471.32 53.4911 1475.33 54.5848 Q1479.34 55.6381 1483.27 55.6381 Q1488.53 55.6381 1491.37 53.8557 Q1494.2 52.0328 1494.2 48.7515 Q1494.2 45.7133 1492.14 44.093 Q1490.11 42.4726 1483.19 40.9738 L1480.59 40.3661 Q1473.67 38.9078 1470.59 35.9102 Q1467.51 32.872 1467.51 27.6058 Q1467.51 21.2054 1472.05 17.7216 Q1476.58 14.2378 1484.93 14.2378 Q1489.06 14.2378 1492.7 14.8455 Q1496.35 15.4531 1499.43 16.6684 Z" fill="#000000" fill-rule="nonzero" fill-opacity="1" /><path clip-path="url(#clip170)" d="M1514.78 50.4124 L1523.33 50.4124 L1523.33 60.7017 L1514.78 60.7017 L1514.78 50.4124 Z" fill="#000000" fill-rule="nonzero" fill-opacity="1" /><path clip-path="url(#clip170)" d="M1573.84 2.44968 L1573.84 15.3316 L1589.2 15.3316 L1589.2 21.1244 L1573.84 21.1244 L1573.84 45.7539 Q1573.84 51.3036 1575.34 52.8834 Q1576.88 54.4633 1581.54 54.4633 L1589.2 54.4633 L1589.2 60.7017 L1581.54 60.7017 Q1572.91 60.7017 1569.63 57.5015 Q1566.35 54.2607 1566.35 45.7539 L1566.35 21.1244 L1560.88 21.1244 L1560.88 15.3316 L1566.35 15.3316 L1566.35 2.44968 L1573.84 2.44968 Z" fill="#000000" fill-rule="nonzero" fill-opacity="1" /><path clip-path="url(#clip170)" d="M1625.29 22.2991 Q1624.03 21.57 1622.54 21.2459 Q1621.08 20.8813 1619.3 20.8813 Q1612.98 20.8813 1609.57 25.0132 Q1606.21 29.1046 1606.21 36.8014 L1606.21 60.7017 L1598.72 60.7017 L1598.72 15.3316 L1606.21 15.3316 L1606.21 22.3801 Q1608.56 18.2482 1612.33 16.2633 Q1616.1 14.2378 1621.48 14.2378 Q1622.25 14.2378 1623.18 14.3593 Q1624.12 14.4404 1625.25 14.6429 L1625.29 22.2991 Z" fill="#000000" fill-rule="nonzero" fill-opacity="1" /><path clip-path="url(#clip170)" d="M1632.34 42.7967 L1632.34 15.3316 L1639.79 15.3316 L1639.79 42.5131 Q1639.79 48.9541 1642.3 52.1948 Q1644.82 55.395 1649.84 55.395 Q1655.88 55.395 1659.36 51.5466 Q1662.88 47.6983 1662.88 41.0548 L1662.88 15.3316 L1670.34 15.3316 L1670.34 60.7017 L1662.88 60.7017 L1662.88 53.7341 Q1660.17 57.8661 1656.56 59.8915 Q1653 61.8764 1648.26 61.8764 Q1640.44 61.8764 1636.39 57.0154 Q1632.34 52.1543 1632.34 42.7967 M1651.1 14.2378 L1651.1 14.2378 Z" fill="#000000" fill-rule="nonzero" fill-opacity="1" /><path clip-path="url(#clip170)" d="M1724.5 36.1532 L1724.5 39.799 L1690.23 39.799 Q1690.71 47.4957 1694.84 51.5466 Q1699.02 55.557 1706.43 55.557 Q1710.72 55.557 1714.73 54.5038 Q1718.79 53.4506 1722.76 51.3441 L1722.76 58.3927 Q1718.75 60.0941 1714.53 60.9853 Q1710.32 61.8764 1705.98 61.8764 Q1695.13 61.8764 1688.77 55.557 Q1682.45 49.2376 1682.45 38.4622 Q1682.45 27.3222 1688.44 20.8003 Q1694.48 14.2378 1704.69 14.2378 Q1713.84 14.2378 1719.15 20.1521 Q1724.5 26.0259 1724.5 36.1532 M1717.04 33.9657 Q1716.96 27.8489 1713.6 24.203 Q1710.28 20.5572 1704.77 20.5572 Q1698.53 20.5572 1694.76 24.0815 Q1691.04 27.6058 1690.47 34.0062 L1717.04 33.9657 Z" fill="#000000" fill-rule="nonzero" fill-opacity="1" /><path clip-path="url(#clip170)" d="M1792.03 16.6684 L1792.03 23.7169 Q1788.87 22.0966 1785.46 21.2864 Q1782.06 20.4762 1778.41 20.4762 Q1772.87 20.4762 1770.07 22.1776 Q1767.32 23.879 1767.32 27.2817 Q1767.32 29.8743 1769.3 31.3731 Q1771.29 32.8315 1777.28 34.1683 L1779.83 34.7354 Q1787.77 36.4368 1791.09 39.556 Q1794.46 42.6347 1794.46 48.1844 Q1794.46 54.5038 1789.43 58.1901 Q1784.45 61.8764 1775.7 61.8764 Q1772.06 61.8764 1768.09 61.1473 Q1764.16 60.4586 1759.78 59.0408 L1759.78 51.3441 Q1763.91 53.4911 1767.92 54.5848 Q1771.93 55.6381 1775.86 55.6381 Q1781.13 55.6381 1783.96 53.8557 Q1786.8 52.0328 1786.8 48.7515 Q1786.8 45.7133 1784.73 44.093 Q1782.71 42.4726 1775.78 40.9738 L1773.19 40.3661 Q1766.26 38.9078 1763.18 35.9102 Q1760.1 32.872 1760.1 27.6058 Q1760.1 21.2054 1764.64 17.7216 Q1769.18 14.2378 1777.52 14.2378 Q1781.66 14.2378 1785.3 14.8455 Q1788.95 15.4531 1792.03 16.6684 Z" fill="#000000" fill-rule="nonzero" fill-opacity="1" /><path clip-path="url(#clip170)" d="M1813.7 2.44968 L1813.7 15.3316 L1829.05 15.3316 L1829.05 21.1244 L1813.7 21.1244 L1813.7 45.7539 Q1813.7 51.3036 1815.2 52.8834 Q1816.74 54.4633 1821.4 54.4633 L1829.05 54.4633 L1829.05 60.7017 L1821.4 60.7017 Q1812.77 60.7017 1809.49 57.5015 Q1806.2 54.2607 1806.2 45.7539 L1806.2 21.1244 L1800.74 21.1244 L1800.74 15.3316 L1806.2 15.3316 L1806.2 2.44968 L1813.7 2.44968 Z" fill="#000000" fill-rule="nonzero" fill-opacity="1" /><path clip-path="url(#clip170)" d="M1859.47 37.8951 Q1850.44 37.8951 1846.96 39.9611 Q1843.47 42.027 1843.47 47.0096 Q1843.47 50.9795 1846.07 53.329 Q1848.7 55.6381 1853.19 55.6381 Q1859.39 55.6381 1863.12 51.2631 Q1866.89 46.8476 1866.89 39.556 L1866.89 37.8951 L1859.47 37.8951 M1874.34 34.8164 L1874.34 60.7017 L1866.89 60.7017 L1866.89 53.8152 Q1864.33 57.9471 1860.53 59.932 Q1856.72 61.8764 1851.21 61.8764 Q1844.24 61.8764 1840.11 57.9876 Q1836.02 54.0582 1836.02 47.4957 Q1836.02 39.8395 1841.12 35.9507 Q1846.27 32.0618 1856.44 32.0618 L1866.89 32.0618 L1866.89 31.3326 Q1866.89 26.188 1863.48 23.3929 Q1860.12 20.5572 1854 20.5572 Q1850.12 20.5572 1846.43 21.4889 Q1842.74 22.4206 1839.34 24.2841 L1839.34 17.3975 Q1843.43 15.8177 1847.28 15.048 Q1851.13 14.2378 1854.77 14.2378 Q1864.62 14.2378 1869.48 19.342 Q1874.34 24.4461 1874.34 34.8164 Z" fill="#000000" fill-rule="nonzero" fill-opacity="1" /><path clip-path="url(#clip170)" d="M1897.07 2.44968 L1897.07 15.3316 L1912.42 15.3316 L1912.42 21.1244 L1897.07 21.1244 L1897.07 45.7539 Q1897.07 51.3036 1898.56 52.8834 Q1900.1 54.4633 1904.76 54.4633 L1912.42 54.4633 L1912.42 60.7017 L1904.76 60.7017 Q1896.13 60.7017 1892.85 57.5015 Q1889.57 54.2607 1889.57 45.7539 L1889.57 21.1244 L1884.1 21.1244 L1884.1 15.3316 L1889.57 15.3316 L1889.57 2.44968 L1897.07 2.44968 Z" fill="#000000" fill-rule="nonzero" fill-opacity="1" /><path clip-path="url(#clip170)" d="M1961.03 36.1532 L1961.03 39.799 L1926.76 39.799 Q1927.25 47.4957 1931.38 51.5466 Q1935.55 55.557 1942.96 55.557 Q1947.26 55.557 1951.27 54.5038 Q1955.32 53.4506 1959.29 51.3441 L1959.29 58.3927 Q1955.28 60.0941 1951.06 60.9853 Q1946.85 61.8764 1942.52 61.8764 Q1931.66 61.8764 1925.3 55.557 Q1918.98 49.2376 1918.98 38.4622 Q1918.98 27.3222 1924.98 20.8003 Q1931.01 14.2378 1941.22 14.2378 Q1950.38 14.2378 1955.68 20.1521 Q1961.03 26.0259 1961.03 36.1532 M1953.58 33.9657 Q1953.5 27.8489 1950.13 24.203 Q1946.81 20.5572 1941.3 20.5572 Q1935.06 20.5572 1931.3 24.0815 Q1927.57 27.6058 1927 34.0062 L1953.58 33.9657 Z" fill="#000000" fill-rule="nonzero" fill-opacity="1" /><path clip-path="url(#clip172)" d="M292.4 1364.15 L326.091 1366.95 L353.891 1369.1 L423.707 1373.92 L458.49 1376.05 L477.105 1377.22 L482.293 1377.57 L483.551 1377.65 L490.821 1378.12 L497.629 1378.56 L520.922 1380.02 L584.262 1383.62 L593.647 1384.11 L597.761 1384.33 L623.814 1386.4 L646.088 1161.58 L670.5 947.637 L676.107 905.399 L701.385 743.081 L703.322 732.398 L708.231 706.357 L732.957 596.1 L768.159 490.669 L804.037 433.272 L806.703 430.821 L835.126 417.614 L837.481 417.623 L838.473 417.666 L855.682 421.942 L887.9 445.725 L1026.2 687.699 L1029.12 693.605 L1031.85 699.093 L1037.1 709.514 L1038.73 712.73 L1052.77 739.707 L1064.31 761.025 L1108.72 835.991 L1117.02 848.818 L1117.11 848.946 L1136.65 877.759 L1137.43 878.874 L1158.79 908.178 L1183.69 939.771 L1212.19 973.204 L1223.17 985.149 L1238.63 1002.42 L1243.51 1007.71 L1302.84 1065.91 L1306.39 1069.06 L1307.33 1069.88 L1322.37 1082.82 L1370.42 1120.35 L1379.85 1127.08 L1380.29 1127.39 L1450.58 1171.83 L1461.37 1177.84 L1490.98 1193.38 L1514.64 1204.83 L1541.53 1216.9 L1558.67 1224.1 L1580.11 1232.6 L1599.7 1239.91 L1605.94 1242.15 L1633.32 1251.51 L1665.36 1261.54 L1673.79 1264.03 L1734.03 1280.12 L1738.69 1281.26 L1800.12 1294.83 L1812.22 1297.23 L1824.03 1299.49 L1840.98 1302.74 L1845.21 1303.58 L1853.96 1305.29 L1856.57 1305.79 L1873.22 1308.9 L1877.38 1309.66 L1878.28 1309.82 L1887.22 1311.42 L1888.64 1311.67 L1902.58 1314.07 L1935.64 1319.43 L1940.15 1320.12 L1972.44 1324.87 L1986.3 1326.78 L1997.24 1328.24 L2058.56 1335.7 L2076.87 1337.71 L2078.22 1337.85 L2087.51 1338.83 L2093.75 1339.48 L2144.63 1344.75 L2203.7 1350.77 L2223.89 1352.64 L2231.72 1353.34 L2242 1354.24 L2244.12 1354.42 L2280.94 1357.46 L2292.75 1358.38 L2292.75 1070.22 L2280.94 1069.79 L2244.12 1068.36 L2242 1068.27 L2231.72 1067.84 L2223.89 1067.5 L2203.7 1066.59 L2144.63 1063.56 L2093.75 1060.48 L2087.51 1060.06 L2078.22 1059.43 L2076.87 1059.34 L2058.56 1058.04 L1997.24 1053.09 L1986.3 1052.1 L1972.44 1050.8 L1940.15 1047.55 L1935.64 1047.07 L1902.58 1043.33 L1888.64 1041.63 L1887.22 1041.45 L1878.28 1040.31 L1877.38 1040.2 L1873.22 1039.66 L1856.57 1037.42 L1853.96 1037.06 L1845.21 1035.83 L1840.98 1035.22 L1824.03 1032.71 L1812.22 1030.87 L1800.12 1028.92 L1738.69 1017.76 L1734.03 1016.82 L1673.79 1003.35 L1665.36 1001.25 L1633.32 992.727 L1605.94 984.722 L1599.7 982.796 L1580.11 976.494 L1558.67 969.126 L1541.53 962.854 L1514.64 952.292 L1490.98 942.201 L1461.37 928.429 L1450.58 923.073 L1380.29 883.109 L1379.85 882.832 L1370.42 876.721 L1322.37 842.462 L1307.33 830.567 L1306.39 829.805 L1302.84 826.905 L1243.51 771.019 L1238.63 765.743 L1223.17 748.586 L1212.19 735.94 L1183.69 701.271 L1158.79 668.682 L1137.43 638.929 L1136.65 637.805 L1117.11 608.991 L1117.02 608.864 L1108.72 596.17 L1064.31 523.553 L1052.77 503.387 L1038.73 478.175 L1037.1 475.192 L1031.85 465.561 L1029.12 460.51 L1026.2 454.953 L887.9 196.67 L855.682 167.727 L838.473 160.809 L837.481 160.617 L835.126 160.256 L806.703 167.384 L804.037 169.238 L768.159 217.605 L732.957 316.064 L708.231 423.217 L703.322 448.826 L701.385 459.354 L676.107 620.489 L670.5 662.657 L646.088 876.92 L623.814 1102.5 L597.761 1101.39 L593.647 1101.33 L584.262 1101.19 L520.922 1100.17 L497.629 1099.74 L490.821 1099.61 L483.551 1099.47 L482.293 1099.44 L477.105 1099.34 L458.49 1098.95 L423.707 1098.16 L353.891 1096.29 L326.091 1095.42 L292.4 1094.27  Z" fill="#009af9" fill-rule="evenodd" fill-opacity="0.35"/>
<polyline clip-path="url(#clip172)" style="stroke:#009af9; stroke-linecap:round; stroke-linejoin:round; stroke-width:4; stroke-opacity:0.35; fill:none" points="292.4,1364.15 326.091,1366.95 353.891,1369.1 423.707,1373.92 458.49,1376.05 477.105,1377.22 482.293,1377.57 483.551,1377.65 490.821,1378.12 497.629,1378.56 520.922,1380.02 584.262,1383.62 593.647,1384.11 597.761,1384.33 623.814,1386.4 646.088,1161.58 670.5,947.637 676.107,905.399 701.385,743.081 703.322,732.398 708.231,706.357 732.957,596.1 768.159,490.669 804.037,433.272 806.703,430.821 835.126,417.614 837.481,417.623 838.473,417.666 855.682,421.942 887.9,445.725 1026.2,687.699 1029.12,693.605 1031.85,699.093 1037.1,709.514 1038.73,712.73 1052.77,739.707 1064.31,761.025 1108.72,835.991 1117.02,848.818 1117.11,848.946 1136.65,877.759 1137.43,878.874 1158.79,908.178 1183.69,939.771 1212.19,973.204 1223.17,985.149 1238.63,1002.42 1243.51,1007.71 1302.84,1065.91 1306.39,1069.06 1307.33,1069.88 1322.37,1082.82 1370.42,1120.35 1379.85,1127.08 1380.29,1127.39 1450.58,1171.83 1461.37,1177.84 1490.98,1193.38 1514.64,1204.83 1541.53,1216.9 1558.67,1224.1 1580.11,1232.6 1599.7,1239.91 1605.94,1242.15 1633.32,1251.51 1665.36,1261.54 1673.79,1264.03 1734.03,1280.12 1738.69,1281.26 1800.12,1294.83 1812.22,1297.23 1824.03,1299.49 1840.98,1302.74 1845.21,1303.58 1853.96,1305.29 1856.57,1305.79 1873.22,1308.9 1877.38,1309.66 1878.28,1309.82 1887.22,1311.42 1888.64,1311.67 1902.58,1314.07 1935.64,1319.43 1940.15,1320.12 1972.44,1324.87 1986.3,1326.78 1997.24,1328.24 2058.56,1335.7 2076.87,1337.71 2078.22,1337.85 2087.51,1338.83 2093.75,1339.48 2144.63,1344.75 2203.7,1350.77 2223.89,1352.64 2231.72,1353.34 2242,1354.24 2244.12,1354.42 2280.94,1357.46 2292.75,1358.38 "/>
<polyline clip-path="url(#clip172)" style="stroke:#e26f46; stroke-linecap:round; stroke-linejoin:round; stroke-width:8; stroke-opacity:1; fill:none" points="292.4,1288.93 326.091,1290.7 353.891,1292.05 423.707,1295.01 458.49,1296.29 477.105,1296.93 482.293,1297.1 483.551,1297.14 490.821,1297.38 497.629,1297.6 520.922,1298.31 584.262,1300.05 593.647,1300.28 597.761,1300.38 623.814,1300.99 646.088,1093.78 670.5,879.084 676.107,836.715 701.385,674.165 703.322,663.493 708.231,637.5 732.957,527.95 768.159,424.89 804.037,370.697 806.703,368.375 835.126,356.012 837.481,355.923 838.473,355.924 855.682,359.488 887.9,381.962 1026.2,613.371 1029.12,618.768 1031.85,623.792 1037.1,633.355 1038.73,636.314 1052.77,661.251 1064.31,681.115 1108.72,752.105 1117.02,764.435 1117.11,764.558 1136.65,792.458 1137.43,793.544 1158.79,822.226 1183.69,853.499 1212.19,886.601 1223.17,898.63 1238.63,914.912 1243.51,919.91 1302.84,975.145 1306.39,978.148 1307.33,978.937 1322.37,991.301 1370.42,1027.31 1379.85,1033.8 1380.29,1034.09 1450.58,1077.13 1461.37,1082.99 1490.98,1098.14 1514.64,1109.36 1541.53,1121.2 1558.67,1128.29 1580.11,1136.67 1599.7,1143.89 1605.94,1146.11 1633.32,1155.39 1665.36,1165.36 1673.79,1167.84 1734.03,1183.93 1738.69,1185.06 1800.12,1198.71 1812.22,1201.14 1824.03,1203.43 1840.98,1206.58 1845.21,1207.35 1853.96,1208.9 1856.57,1209.36 1873.22,1212.19 1877.38,1212.88 1878.28,1213.03 1887.22,1214.47 1888.64,1214.7 1902.58,1216.88 1935.64,1221.72 1940.15,1222.35 1972.44,1226.62 1986.3,1228.34 1997.24,1229.66 2058.56,1236.33 2076.87,1238.12 2078.22,1238.24 2087.51,1239.11 2093.75,1239.69 2144.63,1244 2203.7,1248.32 2223.89,1249.64 2231.72,1250.14 2242,1250.77 2244.12,1250.9 2280.94,1253.02 2292.75,1253.65 "/>
<polyline clip-path="url(#clip172)" style="stroke:#3da44d; stroke-linecap:round; stroke-linejoin:round; stroke-width:8; stroke-opacity:1; fill:none" points="292.4,1240.05 326.091,1241.66 353.891,1242.89 423.707,1245.58 458.49,1246.73 477.105,1247.31 482.293,1247.46 483.551,1247.5 490.821,1247.71 497.629,1247.91 520.922,1248.55 584.262,1250.1 593.647,1250.31 597.761,1250.4 623.814,1251.71 646.088,1026.23 670.5,811.656 676.107,769.333 701.385,607.098 703.322,596.46 708.231,570.559 732.957,461.638 768.159,360.017 804.037,307.965 806.703,305.827 835.126,295.627 837.481,295.732 838.473,295.816 855.682,300.865 887.9,326.358 1026.2,573.001 1029.12,578.746 1031.85,584.094 1037.1,594.273 1038.73,597.422 1052.77,623.95 1064.31,645.057 1108.72,720.219 1117.02,733.218 1117.11,733.348 1136.65,762.691 1137.43,763.831 1158.79,793.884 1183.69,826.518 1212.19,860.9 1223.17,873.353 1238.63,890.172 1243.51,895.326 1302.84,952.008 1306.39,955.075 1307.33,955.881 1322.37,968.487 1370.42,1005.04 1379.85,1011.61 1380.29,1011.9 1450.58,1055.19 1461.37,1061.05 1490.98,1076.18 1514.64,1087.33 1541.53,1099.08 1558.67,1106.08 1580.11,1114.36 1599.7,1121.47 1605.94,1123.65 1633.32,1132.75 1665.36,1142.5 1673.79,1144.92 1734.03,1160.56 1738.69,1161.66 1800.12,1174.83 1812.22,1177.16 1824.03,1179.36 1840.98,1182.38 1845.21,1183.12 1853.96,1184.6 1856.57,1185.04 1873.22,1187.75 1877.38,1188.4 1878.28,1188.54 1887.22,1189.93 1888.64,1190.14 1902.58,1192.22 1935.64,1196.82 1940.15,1197.42 1972.44,1201.46 1986.3,1203.09 1997.24,1204.32 2058.56,1210.6 2076.87,1212.27 2078.22,1212.39 2087.51,1213.2 2093.75,1213.74 2144.63,1217.76 2203.7,1221.77 2223.89,1222.99 2231.72,1223.45 2242,1224.03 2244.12,1224.15 2280.94,1226.1 2292.75,1226.68 "/>
<path clip-path="url(#clip170)" d="M1691.01 374.156 L2282.08 374.156 L2282.08 166.796 L1691.01 166.796  Z" fill="#ffffff" fill-rule="evenodd" fill-opacity="1"/>
<polyline clip-path="url(#clip170)" style="stroke:#000000; stroke-linecap:round; stroke-linejoin:round; stroke-width:4; stroke-opacity:1; fill:none" points="1691.01,374.156 2282.08,374.156 2282.08,166.796 1691.01,166.796 1691.01,374.156 "/>
<path clip-path="url(#clip170)" d="M1714.57 239.372 L1855.93 239.372 L1855.93 197.9 L1714.57 197.9 L1714.57 239.372  Z" fill="#009af9" fill-rule="evenodd" fill-opacity="0.35"/>
<polyline clip-path="url(#clip170)" style="stroke:#009af9; stroke-linecap:round; stroke-linejoin:round; stroke-width:4; stroke-opacity:0.35; fill:none" points="1714.57,197.9 1855.93,197.9 "/>
<path clip-path="url(#clip170)" d="M1892.89 222.883 Q1887.73 222.883 1885.74 224.064 Q1883.75 225.244 1883.75 228.092 Q1883.75 230.36 1885.23 231.703 Q1886.74 233.022 1889.31 233.022 Q1892.85 233.022 1894.98 230.522 Q1897.13 227.999 1897.13 223.832 L1897.13 222.883 L1892.89 222.883 M1901.39 221.124 L1901.39 235.916 L1897.13 235.916 L1897.13 231.981 Q1895.67 234.342 1893.5 235.476 Q1891.32 236.587 1888.17 236.587 Q1884.19 236.587 1881.83 234.365 Q1879.49 232.119 1879.49 228.369 Q1879.49 223.994 1882.41 221.772 Q1885.35 219.55 1891.16 219.55 L1897.13 219.55 L1897.13 219.133 Q1897.13 216.194 1895.19 214.596 Q1893.26 212.976 1889.77 212.976 Q1887.55 212.976 1885.44 213.508 Q1883.33 214.041 1881.39 215.106 L1881.39 211.17 Q1883.73 210.268 1885.93 209.828 Q1888.13 209.365 1890.21 209.365 Q1895.83 209.365 1898.61 212.282 Q1901.39 215.198 1901.39 221.124 Z" fill="#000000" fill-rule="nonzero" fill-opacity="1" /><path clip-path="url(#clip170)" d="M1910.16 199.897 L1914.42 199.897 L1914.42 235.916 L1910.16 235.916 L1910.16 199.897 Z" fill="#000000" fill-rule="nonzero" fill-opacity="1" /><path clip-path="url(#clip170)" d="M1923.33 199.897 L1927.59 199.897 L1927.59 235.916 L1923.33 235.916 L1923.33 199.897 Z" fill="#000000" fill-rule="nonzero" fill-opacity="1" /><path clip-path="url(#clip170)" d="M1955.69 232.027 L1955.69 245.777 L1951.41 245.777 L1951.41 209.99 L1955.69 209.99 L1955.69 213.925 Q1957.04 211.61 1959.07 210.499 Q1961.13 209.365 1963.98 209.365 Q1968.7 209.365 1971.64 213.115 Q1974.61 216.865 1974.61 222.976 Q1974.61 229.087 1971.64 232.837 Q1968.7 236.587 1963.98 236.587 Q1961.13 236.587 1959.07 235.476 Q1957.04 234.342 1955.69 232.027 M1970.19 222.976 Q1970.19 218.277 1968.24 215.615 Q1966.32 212.93 1962.94 212.93 Q1959.56 212.93 1957.62 215.615 Q1955.69 218.277 1955.69 222.976 Q1955.69 227.675 1957.62 230.36 Q1959.56 233.022 1962.94 233.022 Q1966.32 233.022 1968.24 230.36 Q1970.19 227.675 1970.19 222.976 Z" fill="#000000" fill-rule="nonzero" fill-opacity="1" /><path clip-path="url(#clip170)" d="M1996.69 213.971 Q1995.97 213.555 1995.12 213.37 Q1994.28 213.161 1993.26 213.161 Q1989.65 213.161 1987.71 215.522 Q1985.79 217.86 1985.79 222.258 L1985.79 235.916 L1981.5 235.916 L1981.5 209.99 L1985.79 209.99 L1985.79 214.018 Q1987.13 211.657 1989.28 210.522 Q1991.44 209.365 1994.51 209.365 Q1994.95 209.365 1995.49 209.434 Q1996.02 209.481 1996.67 209.596 L1996.69 213.971 Z" fill="#000000" fill-rule="nonzero" fill-opacity="1" /><path clip-path="url(#clip170)" d="M2022.29 221.888 L2022.29 223.971 L2002.71 223.971 Q2002.99 228.369 2005.35 230.684 Q2007.73 232.976 2011.97 232.976 Q2014.42 232.976 2016.71 232.374 Q2019.03 231.772 2021.3 230.569 L2021.3 234.596 Q2019 235.568 2016.6 236.078 Q2014.19 236.587 2011.71 236.587 Q2005.51 236.587 2001.88 232.976 Q1998.26 229.365 1998.26 223.207 Q1998.26 216.842 2001.69 213.115 Q2005.14 209.365 2010.97 209.365 Q2016.2 209.365 2019.24 212.745 Q2022.29 216.101 2022.29 221.888 M2018.03 220.638 Q2017.99 217.143 2016.06 215.059 Q2014.17 212.976 2011.02 212.976 Q2007.45 212.976 2005.3 214.99 Q2003.17 217.004 2002.85 220.661 L2018.03 220.638 Z" fill="#000000" fill-rule="nonzero" fill-opacity="1" /><path clip-path="url(#clip170)" d="M2046.34 213.925 L2046.34 199.897 L2050.6 199.897 L2050.6 235.916 L2046.34 235.916 L2046.34 232.027 Q2045 234.342 2042.94 235.476 Q2040.9 236.587 2038.03 236.587 Q2033.33 236.587 2030.37 232.837 Q2027.43 229.087 2027.43 222.976 Q2027.43 216.865 2030.37 213.115 Q2033.33 209.365 2038.03 209.365 Q2040.9 209.365 2042.94 210.499 Q2045 211.61 2046.34 213.925 M2031.83 222.976 Q2031.83 227.675 2033.75 230.36 Q2035.69 233.022 2039.07 233.022 Q2042.45 233.022 2044.4 230.36 Q2046.34 227.675 2046.34 222.976 Q2046.34 218.277 2044.4 215.615 Q2042.45 212.93 2039.07 212.93 Q2035.69 212.93 2033.75 215.615 Q2031.83 218.277 2031.83 222.976 Z" fill="#000000" fill-rule="nonzero" fill-opacity="1" /><path clip-path="url(#clip170)" d="M2059.37 209.99 L2063.63 209.99 L2063.63 235.916 L2059.37 235.916 L2059.37 209.99 M2059.37 199.897 L2063.63 199.897 L2063.63 205.291 L2059.37 205.291 L2059.37 199.897 Z" fill="#000000" fill-rule="nonzero" fill-opacity="1" /><path clip-path="url(#clip170)" d="M2091.2 210.985 L2091.2 214.967 Q2089.4 213.971 2087.57 213.485 Q2085.76 212.976 2083.91 212.976 Q2079.77 212.976 2077.48 215.615 Q2075.19 218.231 2075.19 222.976 Q2075.19 227.721 2077.48 230.36 Q2079.77 232.976 2083.91 232.976 Q2085.76 232.976 2087.57 232.49 Q2089.4 231.981 2091.2 230.985 L2091.2 234.92 Q2089.42 235.754 2087.5 236.17 Q2085.6 236.587 2083.45 236.587 Q2077.59 236.587 2074.14 232.906 Q2070.69 229.226 2070.69 222.976 Q2070.69 216.633 2074.17 212.999 Q2077.66 209.365 2083.73 209.365 Q2085.69 209.365 2087.57 209.782 Q2089.44 210.175 2091.2 210.985 Z" fill="#000000" fill-rule="nonzero" fill-opacity="1" /><path clip-path="url(#clip170)" d="M2102.82 202.629 L2102.82 209.99 L2111.6 209.99 L2111.6 213.3 L2102.82 213.3 L2102.82 227.374 Q2102.82 230.545 2103.68 231.448 Q2104.56 232.351 2107.22 232.351 L2111.6 232.351 L2111.6 235.916 L2107.22 235.916 Q2102.29 235.916 2100.42 234.087 Q2098.54 232.235 2098.54 227.374 L2098.54 213.3 L2095.42 213.3 L2095.42 209.99 L2098.54 209.99 L2098.54 202.629 L2102.82 202.629 Z" fill="#000000" fill-rule="nonzero" fill-opacity="1" /><path clip-path="url(#clip170)" d="M2117.2 209.99 L2121.46 209.99 L2121.46 235.916 L2117.2 235.916 L2117.2 209.99 M2117.2 199.897 L2121.46 199.897 L2121.46 205.291 L2117.2 205.291 L2117.2 199.897 Z" fill="#000000" fill-rule="nonzero" fill-opacity="1" /><path clip-path="url(#clip170)" d="M2140.42 212.976 Q2136.99 212.976 2135 215.661 Q2133.01 218.323 2133.01 222.976 Q2133.01 227.629 2134.98 230.314 Q2136.97 232.976 2140.42 232.976 Q2143.82 232.976 2145.81 230.291 Q2147.8 227.606 2147.8 222.976 Q2147.8 218.37 2145.81 215.684 Q2143.82 212.976 2140.42 212.976 M2140.42 209.365 Q2145.97 209.365 2149.14 212.976 Q2152.31 216.587 2152.31 222.976 Q2152.31 229.342 2149.14 232.976 Q2145.97 236.587 2140.42 236.587 Q2134.84 236.587 2131.67 232.976 Q2128.52 229.342 2128.52 222.976 Q2128.52 216.587 2131.67 212.976 Q2134.84 209.365 2140.42 209.365 Z" fill="#000000" fill-rule="nonzero" fill-opacity="1" /><path clip-path="url(#clip170)" d="M2180.93 220.268 L2180.93 235.916 L2176.67 235.916 L2176.67 220.407 Q2176.67 216.726 2175.23 214.897 Q2173.8 213.069 2170.93 213.069 Q2167.48 213.069 2165.49 215.268 Q2163.49 217.467 2163.49 221.263 L2163.49 235.916 L2159.21 235.916 L2159.21 209.99 L2163.49 209.99 L2163.49 214.018 Q2165.02 211.68 2167.08 210.522 Q2169.17 209.365 2171.87 209.365 Q2176.34 209.365 2178.63 212.143 Q2180.93 214.897 2180.93 220.268 Z" fill="#000000" fill-rule="nonzero" fill-opacity="1" /><path clip-path="url(#clip170)" d="M2205.95 210.754 L2205.95 214.782 Q2204.14 213.856 2202.2 213.393 Q2200.25 212.93 2198.17 212.93 Q2195 212.93 2193.4 213.902 Q2191.83 214.874 2191.83 216.819 Q2191.83 218.3 2192.96 219.157 Q2194.1 219.99 2197.52 220.754 L2198.98 221.078 Q2203.52 222.05 2205.42 223.832 Q2207.34 225.592 2207.34 228.763 Q2207.34 232.374 2204.47 234.481 Q2201.62 236.587 2196.62 236.587 Q2194.54 236.587 2192.27 236.17 Q2190.02 235.777 2187.52 234.967 L2187.52 230.569 Q2189.88 231.795 2192.18 232.42 Q2194.47 233.022 2196.71 233.022 Q2199.72 233.022 2201.34 232.004 Q2202.96 230.962 2202.96 229.087 Q2202.96 227.351 2201.78 226.425 Q2200.62 225.499 2196.67 224.643 L2195.18 224.295 Q2191.23 223.462 2189.47 221.749 Q2187.71 220.013 2187.71 217.004 Q2187.71 213.346 2190.3 211.356 Q2192.89 209.365 2197.66 209.365 Q2200.02 209.365 2202.11 209.712 Q2204.19 210.059 2205.95 210.754 Z" fill="#000000" fill-rule="nonzero" fill-opacity="1" /><polyline clip-path="url(#clip170)" style="stroke:#e26f46; stroke-linecap:round; stroke-linejoin:round; stroke-width:8; stroke-opacity:1; fill:none" points="1714.57,270.476 1855.93,270.476 "/>
<path clip-path="url(#clip170)" d="M1886.9 254.469 L1886.9 261.83 L1895.67 261.83 L1895.67 265.14 L1886.9 265.14 L1886.9 279.214 Q1886.9 282.385 1887.76 283.288 Q1888.64 284.191 1891.3 284.191 L1895.67 284.191 L1895.67 287.756 L1891.3 287.756 Q1886.37 287.756 1884.49 285.927 Q1882.62 284.075 1882.62 279.214 L1882.62 265.14 L1879.49 265.14 L1879.49 261.83 L1882.62 261.83 L1882.62 254.469 L1886.9 254.469 Z" fill="#000000" fill-rule="nonzero" fill-opacity="1" /><path clip-path="url(#clip170)" d="M1916.3 265.811 Q1915.58 265.395 1914.72 265.21 Q1913.89 265.001 1912.87 265.001 Q1909.26 265.001 1907.32 267.362 Q1905.39 269.7 1905.39 274.098 L1905.39 287.756 L1901.11 287.756 L1901.11 261.83 L1905.39 261.83 L1905.39 265.858 Q1906.74 263.497 1908.89 262.362 Q1911.04 261.205 1914.12 261.205 Q1914.56 261.205 1915.09 261.274 Q1915.63 261.321 1916.27 261.436 L1916.3 265.811 Z" fill="#000000" fill-rule="nonzero" fill-opacity="1" /><path clip-path="url(#clip170)" d="M1920.32 277.524 L1920.32 261.83 L1924.58 261.83 L1924.58 277.362 Q1924.58 281.043 1926.02 282.895 Q1927.45 284.723 1930.32 284.723 Q1933.77 284.723 1935.76 282.524 Q1937.78 280.325 1937.78 276.529 L1937.78 261.83 L1942.04 261.83 L1942.04 287.756 L1937.78 287.756 L1937.78 283.774 Q1936.23 286.135 1934.17 287.293 Q1932.13 288.427 1929.42 288.427 Q1924.95 288.427 1922.64 285.649 Q1920.32 282.871 1920.32 277.524 M1931.04 261.205 L1931.04 261.205 Z" fill="#000000" fill-rule="nonzero" fill-opacity="1" /><path clip-path="url(#clip170)" d="M1972.99 273.728 L1972.99 275.811 L1953.4 275.811 Q1953.68 280.209 1956.04 282.524 Q1958.43 284.816 1962.66 284.816 Q1965.12 284.816 1967.41 284.214 Q1969.72 283.612 1971.99 282.409 L1971.99 286.436 Q1969.7 287.408 1967.29 287.918 Q1964.88 288.427 1962.41 288.427 Q1956.2 288.427 1952.57 284.816 Q1948.96 281.205 1948.96 275.047 Q1948.96 268.682 1952.38 264.955 Q1955.83 261.205 1961.67 261.205 Q1966.9 261.205 1969.93 264.585 Q1972.99 267.941 1972.99 273.728 M1968.73 272.478 Q1968.68 268.983 1966.76 266.899 Q1964.86 264.816 1961.71 264.816 Q1958.15 264.816 1956 266.83 Q1953.87 268.844 1953.54 272.501 L1968.73 272.478 Z" fill="#000000" fill-rule="nonzero" fill-opacity="1" /><path clip-path="url(#clip170)" d="M1999.26 254.469 L1999.26 261.83 L2008.03 261.83 L2008.03 265.14 L1999.26 265.14 L1999.26 279.214 Q1999.26 282.385 2000.12 283.288 Q2001 284.191 2003.66 284.191 L2008.03 284.191 L2008.03 287.756 L2003.66 287.756 Q1998.73 287.756 1996.85 285.927 Q1994.98 284.075 1994.98 279.214 L1994.98 265.14 L1991.85 265.14 L1991.85 261.83 L1994.98 261.83 L1994.98 254.469 L1999.26 254.469 Z" fill="#000000" fill-rule="nonzero" fill-opacity="1" /><path clip-path="url(#clip170)" d="M2028.66 265.811 Q2027.94 265.395 2027.08 265.21 Q2026.25 265.001 2025.23 265.001 Q2021.62 265.001 2019.68 267.362 Q2017.75 269.7 2017.75 274.098 L2017.75 287.756 L2013.47 287.756 L2013.47 261.83 L2017.75 261.83 L2017.75 265.858 Q2019.1 263.497 2021.25 262.362 Q2023.4 261.205 2026.48 261.205 Q2026.92 261.205 2027.45 261.274 Q2027.99 261.321 2028.63 261.436 L2028.66 265.811 Z" fill="#000000" fill-rule="nonzero" fill-opacity="1" /><path clip-path="url(#clip170)" d="M2044.91 274.723 Q2039.75 274.723 2037.75 275.904 Q2035.76 277.084 2035.76 279.932 Q2035.76 282.2 2037.25 283.543 Q2038.75 284.862 2041.32 284.862 Q2044.86 284.862 2046.99 282.362 Q2049.14 279.839 2049.14 275.672 L2049.14 274.723 L2044.91 274.723 M2053.4 272.964 L2053.4 287.756 L2049.14 287.756 L2049.14 283.821 Q2047.69 286.182 2045.51 287.316 Q2043.33 288.427 2040.19 288.427 Q2036.2 288.427 2033.84 286.205 Q2031.5 283.959 2031.5 280.209 Q2031.5 275.834 2034.42 273.612 Q2037.36 271.39 2043.17 271.39 L2049.14 271.39 L2049.14 270.973 Q2049.14 268.034 2047.2 266.436 Q2045.28 264.816 2041.78 264.816 Q2039.56 264.816 2037.45 265.348 Q2035.35 265.881 2033.4 266.946 L2033.4 263.01 Q2035.74 262.108 2037.94 261.668 Q2040.14 261.205 2042.22 261.205 Q2047.85 261.205 2050.62 264.122 Q2053.4 267.038 2053.4 272.964 Z" fill="#000000" fill-rule="nonzero" fill-opacity="1" /><path clip-path="url(#clip170)" d="M2062.18 261.83 L2066.44 261.83 L2066.44 288.219 Q2066.44 293.172 2064.54 295.395 Q2062.66 297.617 2058.47 297.617 L2056.85 297.617 L2056.85 294.006 L2057.99 294.006 Q2060.42 294.006 2061.3 292.871 Q2062.18 291.76 2062.18 288.219 L2062.18 261.83 M2062.18 251.737 L2066.44 251.737 L2066.44 257.131 L2062.18 257.131 L2062.18 251.737 Z" fill="#000000" fill-rule="nonzero" fill-opacity="1" /><path clip-path="url(#clip170)" d="M2097.52 273.728 L2097.52 275.811 L2077.94 275.811 Q2078.22 280.209 2080.58 282.524 Q2082.96 284.816 2087.2 284.816 Q2089.65 284.816 2091.94 284.214 Q2094.26 283.612 2096.53 282.409 L2096.53 286.436 Q2094.24 287.408 2091.83 287.918 Q2089.42 288.427 2086.94 288.427 Q2080.74 288.427 2077.11 284.816 Q2073.5 281.205 2073.5 275.047 Q2073.5 268.682 2076.92 264.955 Q2080.37 261.205 2086.2 261.205 Q2091.43 261.205 2094.47 264.585 Q2097.52 267.941 2097.52 273.728 M2093.26 272.478 Q2093.22 268.983 2091.3 266.899 Q2089.4 264.816 2086.25 264.816 Q2082.69 264.816 2080.53 266.83 Q2078.4 268.844 2078.08 272.501 L2093.26 272.478 Z" fill="#000000" fill-rule="nonzero" fill-opacity="1" /><path clip-path="url(#clip170)" d="M2123.17 262.825 L2123.17 266.807 Q2121.37 265.811 2119.54 265.325 Q2117.73 264.816 2115.88 264.816 Q2111.74 264.816 2109.44 267.455 Q2107.15 270.071 2107.15 274.816 Q2107.15 279.561 2109.44 282.2 Q2111.74 284.816 2115.88 284.816 Q2117.73 284.816 2119.54 284.33 Q2121.37 283.821 2123.17 282.825 L2123.17 286.76 Q2121.39 287.594 2119.47 288.01 Q2117.57 288.427 2115.42 288.427 Q2109.56 288.427 2106.11 284.746 Q2102.66 281.066 2102.66 274.816 Q2102.66 268.473 2106.13 264.839 Q2109.63 261.205 2115.69 261.205 Q2117.66 261.205 2119.54 261.622 Q2121.41 262.015 2123.17 262.825 Z" fill="#000000" fill-rule="nonzero" fill-opacity="1" /><path clip-path="url(#clip170)" d="M2134.79 254.469 L2134.79 261.83 L2143.56 261.83 L2143.56 265.14 L2134.79 265.14 L2134.79 279.214 Q2134.79 282.385 2135.65 283.288 Q2136.53 284.191 2139.19 284.191 L2143.56 284.191 L2143.56 287.756 L2139.19 287.756 Q2134.26 287.756 2132.38 285.927 Q2130.51 284.075 2130.51 279.214 L2130.51 265.14 L2127.38 265.14 L2127.38 261.83 L2130.51 261.83 L2130.51 254.469 L2134.79 254.469 Z" fill="#000000" fill-rule="nonzero" fill-opacity="1" /><path clip-path="url(#clip170)" d="M2159.21 264.816 Q2155.79 264.816 2153.8 267.501 Q2151.81 270.163 2151.81 274.816 Q2151.81 279.469 2153.77 282.154 Q2155.76 284.816 2159.21 284.816 Q2162.62 284.816 2164.61 282.131 Q2166.6 279.446 2166.6 274.816 Q2166.6 270.21 2164.61 267.524 Q2162.62 264.816 2159.21 264.816 M2159.21 261.205 Q2164.77 261.205 2167.94 264.816 Q2171.11 268.427 2171.11 274.816 Q2171.11 281.182 2167.94 284.816 Q2164.77 288.427 2159.21 288.427 Q2153.63 288.427 2150.46 284.816 Q2147.31 281.182 2147.31 274.816 Q2147.31 268.427 2150.46 264.816 Q2153.63 261.205 2159.21 261.205 Z" fill="#000000" fill-rule="nonzero" fill-opacity="1" /><path clip-path="url(#clip170)" d="M2193.19 265.811 Q2192.48 265.395 2191.62 265.21 Q2190.79 265.001 2189.77 265.001 Q2186.16 265.001 2184.21 267.362 Q2182.29 269.7 2182.29 274.098 L2182.29 287.756 L2178.01 287.756 L2178.01 261.83 L2182.29 261.83 L2182.29 265.858 Q2183.63 263.497 2185.79 262.362 Q2187.94 261.205 2191.02 261.205 Q2191.46 261.205 2191.99 261.274 Q2192.52 261.321 2193.17 261.436 L2193.19 265.811 Z" fill="#000000" fill-rule="nonzero" fill-opacity="1" /><path clip-path="url(#clip170)" d="M2208.45 290.163 Q2206.64 294.793 2204.93 296.205 Q2203.22 297.617 2200.35 297.617 L2196.94 297.617 L2196.94 294.052 L2199.44 294.052 Q2201.2 294.052 2202.18 293.219 Q2203.15 292.385 2204.33 289.283 L2205.09 287.339 L2194.61 261.83 L2199.12 261.83 L2207.22 282.108 L2215.32 261.83 L2219.84 261.83 L2208.45 290.163 Z" fill="#000000" fill-rule="nonzero" fill-opacity="1" /><polyline clip-path="url(#clip170)" style="stroke:#3da44d; stroke-linecap:round; stroke-linejoin:round; stroke-width:8; stroke-opacity:1; fill:none" points="1714.57,322.316 1855.93,322.316 "/>
<path clip-path="url(#clip170)" d="M1899.84 318.647 Q1901.44 315.776 1903.66 314.411 Q1905.88 313.045 1908.89 313.045 Q1912.94 313.045 1915.14 315.892 Q1917.34 318.716 1917.34 323.948 L1917.34 339.596 L1913.06 339.596 L1913.06 324.087 Q1913.06 320.36 1911.74 318.554 Q1910.42 316.749 1907.71 316.749 Q1904.4 316.749 1902.48 318.948 Q1900.56 321.147 1900.56 324.943 L1900.56 339.596 L1896.27 339.596 L1896.27 324.087 Q1896.27 320.337 1894.95 318.554 Q1893.64 316.749 1890.88 316.749 Q1887.62 316.749 1885.7 318.971 Q1883.77 321.17 1883.77 324.943 L1883.77 339.596 L1879.49 339.596 L1879.49 313.67 L1883.77 313.67 L1883.77 317.698 Q1885.23 315.313 1887.27 314.179 Q1889.31 313.045 1892.11 313.045 Q1894.93 313.045 1896.9 314.48 Q1898.89 315.915 1899.84 318.647 Z" fill="#000000" fill-rule="nonzero" fill-opacity="1" /><path clip-path="url(#clip170)" d="M1948.01 325.568 L1948.01 327.651 L1928.43 327.651 Q1928.7 332.049 1931.07 334.364 Q1933.45 336.656 1937.69 336.656 Q1940.14 336.656 1942.43 336.054 Q1944.75 335.452 1947.01 334.249 L1947.01 338.276 Q1944.72 339.248 1942.32 339.758 Q1939.91 340.267 1937.43 340.267 Q1931.23 340.267 1927.59 336.656 Q1923.98 333.045 1923.98 326.887 Q1923.98 320.522 1927.41 316.795 Q1930.86 313.045 1936.69 313.045 Q1941.92 313.045 1944.95 316.425 Q1948.01 319.781 1948.01 325.568 M1943.75 324.318 Q1943.7 320.823 1941.78 318.739 Q1939.88 316.656 1936.74 316.656 Q1933.17 316.656 1931.02 318.67 Q1928.89 320.684 1928.57 324.341 L1943.75 324.318 Z" fill="#000000" fill-rule="nonzero" fill-opacity="1" /><path clip-path="url(#clip170)" d="M1966.78 326.563 Q1961.62 326.563 1959.63 327.744 Q1957.64 328.924 1957.64 331.772 Q1957.64 334.04 1959.12 335.383 Q1960.63 336.702 1963.19 336.702 Q1966.74 336.702 1968.87 334.202 Q1971.02 331.679 1971.02 327.512 L1971.02 326.563 L1966.78 326.563 M1975.28 324.804 L1975.28 339.596 L1971.02 339.596 L1971.02 335.661 Q1969.56 338.022 1967.38 339.156 Q1965.21 340.267 1962.06 340.267 Q1958.08 340.267 1955.72 338.045 Q1953.38 335.799 1953.38 332.049 Q1953.38 327.674 1956.3 325.452 Q1959.24 323.23 1965.05 323.23 L1971.02 323.23 L1971.02 322.813 Q1971.02 319.874 1969.07 318.276 Q1967.15 316.656 1963.66 316.656 Q1961.44 316.656 1959.33 317.188 Q1957.22 317.721 1955.28 318.786 L1955.28 314.85 Q1957.62 313.948 1959.82 313.508 Q1962.01 313.045 1964.1 313.045 Q1969.72 313.045 1972.5 315.962 Q1975.28 318.878 1975.28 324.804 Z" fill="#000000" fill-rule="nonzero" fill-opacity="1" /><path clip-path="url(#clip170)" d="M2005.6 323.948 L2005.6 339.596 L2001.34 339.596 L2001.34 324.087 Q2001.34 320.406 1999.91 318.577 Q1998.47 316.749 1995.6 316.749 Q1992.15 316.749 1990.16 318.948 Q1988.17 321.147 1988.17 324.943 L1988.17 339.596 L1983.89 339.596 L1983.89 313.67 L1988.17 313.67 L1988.17 317.698 Q1989.7 315.36 1991.76 314.202 Q1993.84 313.045 1996.55 313.045 Q2001.02 313.045 2003.31 315.823 Q2005.6 318.577 2005.6 323.948 Z" fill="#000000" fill-rule="nonzero" fill-opacity="1" /><path clip-path="url(#clip170)" d="M2033.29 335.707 L2033.29 349.457 L2029 349.457 L2029 313.67 L2033.29 313.67 L2033.29 317.605 Q2034.63 315.29 2036.67 314.179 Q2038.73 313.045 2041.57 313.045 Q2046.3 313.045 2049.24 316.795 Q2052.2 320.545 2052.2 326.656 Q2052.2 332.767 2049.24 336.517 Q2046.3 340.267 2041.57 340.267 Q2038.73 340.267 2036.67 339.156 Q2034.63 338.022 2033.29 335.707 M2047.78 326.656 Q2047.78 321.957 2045.83 319.295 Q2043.91 316.61 2040.53 316.61 Q2037.15 316.61 2035.21 319.295 Q2033.29 321.957 2033.29 326.656 Q2033.29 331.355 2035.21 334.04 Q2037.15 336.702 2040.53 336.702 Q2043.91 336.702 2045.83 334.04 Q2047.78 331.355 2047.78 326.656 Z" fill="#000000" fill-rule="nonzero" fill-opacity="1" /><path clip-path="url(#clip170)" d="M2074.28 317.651 Q2073.56 317.235 2072.71 317.05 Q2071.87 316.841 2070.86 316.841 Q2067.25 316.841 2065.3 319.202 Q2063.38 321.54 2063.38 325.938 L2063.38 339.596 L2059.1 339.596 L2059.1 313.67 L2063.38 313.67 L2063.38 317.698 Q2064.72 315.337 2066.87 314.202 Q2069.03 313.045 2072.11 313.045 Q2072.55 313.045 2073.08 313.114 Q2073.61 313.161 2074.26 313.276 L2074.28 317.651 Z" fill="#000000" fill-rule="nonzero" fill-opacity="1" /><path clip-path="url(#clip170)" d="M2099.88 325.568 L2099.88 327.651 L2080.3 327.651 Q2080.58 332.049 2082.94 334.364 Q2085.32 336.656 2089.56 336.656 Q2092.01 336.656 2094.31 336.054 Q2096.62 335.452 2098.89 334.249 L2098.89 338.276 Q2096.6 339.248 2094.19 339.758 Q2091.78 340.267 2089.31 340.267 Q2083.1 340.267 2079.47 336.656 Q2075.86 333.045 2075.86 326.887 Q2075.86 320.522 2079.28 316.795 Q2082.73 313.045 2088.56 313.045 Q2093.8 313.045 2096.83 316.425 Q2099.88 319.781 2099.88 325.568 M2095.62 324.318 Q2095.58 320.823 2093.66 318.739 Q2091.76 316.656 2088.61 316.656 Q2085.05 316.656 2082.89 318.67 Q2080.76 320.684 2080.44 324.341 L2095.62 324.318 Z" fill="#000000" fill-rule="nonzero" fill-opacity="1" /><path clip-path="url(#clip170)" d="M2123.93 317.605 L2123.93 303.577 L2128.19 303.577 L2128.19 339.596 L2123.93 339.596 L2123.93 335.707 Q2122.59 338.022 2120.53 339.156 Q2118.49 340.267 2115.62 340.267 Q2110.93 340.267 2107.96 336.517 Q2105.02 332.767 2105.02 326.656 Q2105.02 320.545 2107.96 316.795 Q2110.93 313.045 2115.62 313.045 Q2118.49 313.045 2120.53 314.179 Q2122.59 315.29 2123.93 317.605 M2109.42 326.656 Q2109.42 331.355 2111.34 334.04 Q2113.29 336.702 2116.67 336.702 Q2120.05 336.702 2121.99 334.04 Q2123.93 331.355 2123.93 326.656 Q2123.93 321.957 2121.99 319.295 Q2120.05 316.61 2116.67 316.61 Q2113.29 316.61 2111.34 319.295 Q2109.42 321.957 2109.42 326.656 Z" fill="#000000" fill-rule="nonzero" fill-opacity="1" /><path clip-path="url(#clip170)" d="M2136.97 313.67 L2141.23 313.67 L2141.23 339.596 L2136.97 339.596 L2136.97 313.67 M2136.97 303.577 L2141.23 303.577 L2141.23 308.971 L2136.97 308.971 L2136.97 303.577 Z" fill="#000000" fill-rule="nonzero" fill-opacity="1" /><path clip-path="url(#clip170)" d="M2168.8 314.665 L2168.8 318.647 Q2166.99 317.651 2165.16 317.165 Q2163.36 316.656 2161.5 316.656 Q2157.36 316.656 2155.07 319.295 Q2152.78 321.911 2152.78 326.656 Q2152.78 331.401 2155.07 334.04 Q2157.36 336.656 2161.5 336.656 Q2163.36 336.656 2165.16 336.17 Q2166.99 335.661 2168.8 334.665 L2168.8 338.6 Q2167.01 339.434 2165.09 339.85 Q2163.19 340.267 2161.04 340.267 Q2155.18 340.267 2151.74 336.586 Q2148.29 332.906 2148.29 326.656 Q2148.29 320.313 2151.76 316.679 Q2155.25 313.045 2161.32 313.045 Q2163.29 313.045 2165.16 313.462 Q2167.04 313.855 2168.8 314.665 Z" fill="#000000" fill-rule="nonzero" fill-opacity="1" /><path clip-path="url(#clip170)" d="M2180.42 306.309 L2180.42 313.67 L2189.19 313.67 L2189.19 316.98 L2180.42 316.98 L2180.42 331.054 Q2180.42 334.225 2181.27 335.128 Q2182.15 336.031 2184.81 336.031 L2189.19 336.031 L2189.19 339.596 L2184.81 339.596 Q2179.88 339.596 2178.01 337.767 Q2176.13 335.915 2176.13 331.054 L2176.13 316.98 L2173.01 316.98 L2173.01 313.67 L2176.13 313.67 L2176.13 306.309 L2180.42 306.309 Z" fill="#000000" fill-rule="nonzero" fill-opacity="1" /><path clip-path="url(#clip170)" d="M2194.79 313.67 L2199.05 313.67 L2199.05 339.596 L2194.79 339.596 L2194.79 313.67 M2194.79 303.577 L2199.05 303.577 L2199.05 308.971 L2194.79 308.971 L2194.79 303.577 Z" fill="#000000" fill-rule="nonzero" fill-opacity="1" /><path clip-path="url(#clip170)" d="M2218.01 316.656 Q2214.58 316.656 2212.59 319.341 Q2210.6 322.003 2210.6 326.656 Q2210.6 331.309 2212.57 333.994 Q2214.56 336.656 2218.01 336.656 Q2221.41 336.656 2223.4 333.971 Q2225.39 331.286 2225.39 326.656 Q2225.39 322.05 2223.4 319.364 Q2221.41 316.656 2218.01 316.656 M2218.01 313.045 Q2223.56 313.045 2226.74 316.656 Q2229.91 320.267 2229.91 326.656 Q2229.91 333.022 2226.74 336.656 Q2223.56 340.267 2218.01 340.267 Q2212.43 340.267 2209.26 336.656 Q2206.11 333.022 2206.11 326.656 Q2206.11 320.267 2209.26 316.656 Q2212.43 313.045 2218.01 313.045 Z" fill="#000000" fill-rule="nonzero" fill-opacity="1" /><path clip-path="url(#clip170)" d="M2258.52 323.948 L2258.52 339.596 L2254.26 339.596 L2254.26 324.087 Q2254.26 320.406 2252.82 318.577 Q2251.39 316.749 2248.52 316.749 Q2245.07 316.749 2243.08 318.948 Q2241.09 321.147 2241.09 324.943 L2241.09 339.596 L2236.8 339.596 L2236.8 313.67 L2241.09 313.67 L2241.09 317.698 Q2242.61 315.36 2244.67 314.202 Q2246.76 313.045 2249.47 313.045 Q2253.93 313.045 2256.23 315.823 Q2258.52 318.577 2258.52 323.948 Z" fill="#000000" fill-rule="nonzero" fill-opacity="1" /></svg>
