<?xml version="1.0" encoding="UTF-8" standalone="no"?>
<svg
   width="3600"
   height="500"
   viewBox="0 0 3600 500"
   version="1.1"
   id="svg32"
   sodipodi:docname="logo_full.svg"
   inkscape:version="1.2.2 (732a01da63, 2022-12-09)"
   inkscape:export-filename="logo_full.png"
   inkscape:export-xdpi="96"
   inkscape:export-ydpi="96"
   xmlns:inkscape="http://www.inkscape.org/namespaces/inkscape"
   xmlns:sodipodi="http://sodipodi.sourceforge.net/DTD/sodipodi-0.dtd"
   xmlns="http://www.w3.org/2000/svg"
   xmlns:svg="http://www.w3.org/2000/svg">
  <sodipodi:namedview
     id="namedview34"
     pagecolor="#ffffff"
     bordercolor="#000000"
     borderopacity="0.25"
     inkscape:showpageshadow="2"
     inkscape:pageopacity="0.0"
     inkscape:pagecheckerboard="0"
     inkscape:deskcolor="#d1d1d1"
     showgrid="false"
     inkscape:zoom="0.51350001"
     inkscape:cx="1533.593"
     inkscape:cy="-24.342745"
     inkscape:window-width="3840"
     inkscape:window-height="2035"
     inkscape:window-x="2548"
     inkscape:window-y="-12"
     inkscape:window-maximized="1"
     inkscape:current-layer="g30" />
  <defs
     id="defs4">
    <rect
       x="2645.2815"
       y="-265.76749"
       width="1455.5245"
       height="736.71301"
       id="rect10859" />
    <style
       id="style2">
      .dark-blue { stroke: #0060a9; fill: none; }
      .purple { stroke: #8684bf; fill: none; }
      .teal { stroke: #4dbcb6; fill: none; }
      .light-teal { stroke: #78d6d1; fill: none; }
      .sky-blue { stroke: #64bbf2; fill: none; }
      .arrow-blue { fill: #0060a9; }
      .white-cutout { fill: #ffffff; }
    </style>
  </defs>
  <g
     stroke-width="45"
     stroke-linecap="butt"
     stroke-linejoin="round"
     id="g20"
     transform="translate(-7.7323517,0.68851682)">
    <path
       d="m 212.0927,249.52861 c 7.13225,-8.30974 8.23356,-8.10054 12.60517,-11.07185 C 312.63138,178.68972 339.37495,88.959281 338.83501,6.2651617"
       class="sky-blue"
       id="path6"
       sodipodi:nodetypes="csc"
       style="stroke-width:54.3947" />
    <path
       d="m 268.17362,222.33445 c 84.83954,-86.17516 82.99409,-39.02422 135.37026,-83.30147 33.53605,-28.35039 57.85923,-58.529374 77.71977,-87.732165"
       class="sky-blue"
       id="path8"
       sodipodi:nodetypes="csc"
       style="stroke-width:53.1744" />
    <path
       d="m 212.05431,252.42754 c 10.65978,2.7267 34.13753,20.56592 54.27049,38.58886 26.55031,32.31343 57.6141,43.87363 85.60801,73.92234 31.59092,37.02747 88.72178,99.1391 92.74938,107.40055"
       class="purple"
       id="path16"
       sodipodi:nodetypes="cccc"
       style="stroke-width:50.0079" />
    <path
       d="m 224.80541,253.06841 c 108.0373,0.97158 165.75633,-28.15985 218.1896,-66.43719 33.43302,-24.40678 108.49233,-30.93908 122.89639,-38.1464"
       class="light-teal"
       id="path10"
       sodipodi:nodetypes="csc"
       style="stroke-width:53.165" />
    <path
       d="m 206.7767,250.9479 c 33.17026,15.36091 61.33684,11.65094 83.06998,23.48583 30.77733,16.75995 52.10457,39.84024 79.47534,57.07001 6.68828,4.21023 13.73742,8.07113 21.3735,11.4051 33.91829,14.80899 95.35038,43.42346 128.21644,76.38547"
       class="teal"
       id="path14"
       sodipodi:nodetypes="csssc"
       style="stroke:#94cee2;stroke-width:49.0246;stroke-opacity:1" />
    <path
       d="m 209.32077,250.51502 c 71.10362,-29.32431 91.15428,-31.52616 132.35703,-26.04301 40.23806,5.35476 171.96489,97.18389 227.49957,121.89772"
       class="teal"
       id="path12"
       sodipodi:nodetypes="csc"
       style="stroke-width:51.4942" />
    <path
       d="m 218.92045,260.28086 c 91.01791,8.66803 122.99347,67.98789 214.88323,17.28078 68.23699,-37.65491 137.99672,-30.27649 155.26015,-30.40412"
       class="purple"
       id="path16-7"
       style="fill:none;stroke:#8684bf;stroke-width:50.209"
       sodipodi:nodetypes="csc" />
    <path
       d="m 196.82699,251.61428 c 0.13798,0.0246 3.88215,0.0761 3.88215,0.0761 6.15232,2.04293 13.26555,4.80126 19.09828,8.33074 30.864,18.67635 56.54576,55.53739 69.55269,82.77884 23.30155,50.40875 42.76344,105.15496 42.91334,151.73243"
       class="dark-blue"
       id="path18"
       sodipodi:nodetypes="ccscc"
       style="stroke:#008ea9;stroke-width:45.9101;stroke-opacity:1" />
  </g>
  <g
     transform="matrix(1.0037439,0,0,1.1180968,38.581201,224.79431)"
     id="g30">
    <path
       d="M -7.7035105,0.61579357 H 146.02147 L 163.86519,26.040813 146.02147,45.615794 H -7.7035105 l 19.2156235,-22.5 z"
       class="arrow-blue"
       id="path22"
       style="fill:#3070b3;fill-opacity:1;stroke-width:0.980194"
       sodipodi:nodetypes="ccccccc" />
    <polygon
       points="60,50 40,50 65,22.5 40,-5 60,-5 85,22.5 "
       class="white-cutout"
       id="polygon24"
       transform="matrix(1,0,0,0.82016029,-0.64411446,4.6814307)"
       style="fill:#d9d9d9;fill-opacity:1" />
    <polygon
       points="130,22.5 105,50 85,50 110,22.5 85,-5 105,-5 "
       class="white-cutout"
       id="polygon26"
       transform="matrix(1,0,0,0.81876076,-7.7035105,4.7129201)"
       style="fill:#d8d8d8;fill-opacity:1" />
    <polygon
       points="130,50 155,22.5 130,-5 150,-5 175,22.5 150,50 "
       class="white-cutout"
       id="polygon28"
       transform="matrix(1,0,0,0.81946051,1.2024745,4.676779)"
       inkscape:label="polygon28"
       style="fill:#d9d9d9;fill-opacity:1" />
    <text
       xml:space="preserve"
       style="font-style:italic;font-variant:normal;font-weight:bold;font-stretch:normal;font-size:377.58px;font-family:'Source Sans Pro';-inkscape-font-specification:'Source Sans Pro, Bold Italic';font-variant-ligatures:normal;font-variant-caps:normal;font-variant-numeric:normal;font-variant-east-asian:normal;fill:#d9d9d9;fill-opacity:1;stroke:#008ea9;stroke-width:0.94395"
       x="550.20251"
       y="147.75255"
       id="text7697"
       transform="scale(1.0554271,0.94748372)"><tspan
         sodipodi:role="line"
         id="tspan7695"
         style="font-style:italic;font-variant:normal;font-weight:bold;font-stretch:normal;font-size:377.58px;font-family:'Source Sans Pro';-inkscape-font-specification:'Source Sans Pro, Bold Italic';font-variant-ligatures:normal;font-variant-caps:normal;font-variant-numeric:normal;font-variant-east-asian:normal;fill:#3070b3;fill-opacity:1;stroke:none;stroke-width:0.94395"
         x="550.20251"
         y="147.75255">OdeMMHPlanner</tspan></text>
  </g>
</svg>
