<?xml version="1.0" encoding="utf-8"?>
<svg xmlns="http://www.w3.org/2000/svg" xmlns:xlink="http://www.w3.org/1999/xlink" width="600" height="400" viewBox="0 0 2400 1600">
<defs>
  <clipPath id="clip260">
    <rect x="0" y="0" width="2400" height="1600"/>
  </clipPath>
</defs>
<path clip-path="url(#clip260)" d="M0 1600 L2400 1600 L2400 0 L0 0  Z" fill="#ffffff" fill-rule="evenodd" fill-opacity="1"/>
<defs>
  <clipPath id="clip261">
    <rect x="480" y="0" width="1681" height="1600"/>
  </clipPath>
</defs>
<path clip-path="url(#clip260)" d="M219.866 1423.18 L2352.76 1423.18 L2352.76 123.472 L219.866 123.472  Z" fill="#ffffff" fill-rule="evenodd" fill-opacity="1"/>
<defs>
  <clipPath id="clip262">
    <rect x="219" y="123" width="2134" height="1301"/>
  </clipPath>
</defs>
<polyline clip-path="url(#clip262)" style="stroke:#000000; stroke-linecap:round; stroke-linejoin:round; stroke-width:2; stroke-opacity:0.1; fill:none" points="280.231,1423.18 280.231,123.472 "/>
<polyline clip-path="url(#clip262)" style="stroke:#000000; stroke-linecap:round; stroke-linejoin:round; stroke-width:2; stroke-opacity:0.1; fill:none" points="682.663,1423.18 682.663,123.472 "/>
<polyline clip-path="url(#clip262)" style="stroke:#000000; stroke-linecap:round; stroke-linejoin:round; stroke-width:2; stroke-opacity:0.1; fill:none" points="1085.1,1423.18 1085.1,123.472 "/>
<polyline clip-path="url(#clip262)" style="stroke:#000000; stroke-linecap:round; stroke-linejoin:round; stroke-width:2; stroke-opacity:0.1; fill:none" points="1487.53,1423.18 1487.53,123.472 "/>
<polyline clip-path="url(#clip262)" style="stroke:#000000; stroke-linecap:round; stroke-linejoin:round; stroke-width:2; stroke-opacity:0.1; fill:none" points="1889.96,1423.18 1889.96,123.472 "/>
<polyline clip-path="url(#clip262)" style="stroke:#000000; stroke-linecap:round; stroke-linejoin:round; stroke-width:2; stroke-opacity:0.1; fill:none" points="2292.39,1423.18 2292.39,123.472 "/>
<polyline clip-path="url(#clip262)" style="stroke:#000000; stroke-linecap:round; stroke-linejoin:round; stroke-width:2; stroke-opacity:0.1; fill:none" points="219.866,1372.05 2352.76,1372.05 "/>
<polyline clip-path="url(#clip262)" style="stroke:#000000; stroke-linecap:round; stroke-linejoin:round; stroke-width:2; stroke-opacity:0.1; fill:none" points="219.866,1250.87 2352.76,1250.87 "/>
<polyline clip-path="url(#clip262)" style="stroke:#000000; stroke-linecap:round; stroke-linejoin:round; stroke-width:2; stroke-opacity:0.1; fill:none" points="219.866,1129.69 2352.76,1129.69 "/>
<polyline clip-path="url(#clip262)" style="stroke:#000000; stroke-linecap:round; stroke-linejoin:round; stroke-width:2; stroke-opacity:0.1; fill:none" points="219.866,1008.51 2352.76,1008.51 "/>
<polyline clip-path="url(#clip262)" style="stroke:#000000; stroke-linecap:round; stroke-linejoin:round; stroke-width:2; stroke-opacity:0.1; fill:none" points="219.866,887.333 2352.76,887.333 "/>
<polyline clip-path="url(#clip262)" style="stroke:#000000; stroke-linecap:round; stroke-linejoin:round; stroke-width:2; stroke-opacity:0.1; fill:none" points="219.866,766.153 2352.76,766.153 "/>
<polyline clip-path="url(#clip262)" style="stroke:#000000; stroke-linecap:round; stroke-linejoin:round; stroke-width:2; stroke-opacity:0.1; fill:none" points="219.866,644.974 2352.76,644.974 "/>
<polyline clip-path="url(#clip262)" style="stroke:#000000; stroke-linecap:round; stroke-linejoin:round; stroke-width:2; stroke-opacity:0.1; fill:none" points="219.866,523.795 2352.76,523.795 "/>
<polyline clip-path="url(#clip262)" style="stroke:#000000; stroke-linecap:round; stroke-linejoin:round; stroke-width:2; stroke-opacity:0.1; fill:none" points="219.866,402.615 2352.76,402.615 "/>
<polyline clip-path="url(#clip262)" style="stroke:#000000; stroke-linecap:round; stroke-linejoin:round; stroke-width:2; stroke-opacity:0.1; fill:none" points="219.866,281.436 2352.76,281.436 "/>
<polyline clip-path="url(#clip262)" style="stroke:#000000; stroke-linecap:round; stroke-linejoin:round; stroke-width:2; stroke-opacity:0.1; fill:none" points="219.866,160.256 2352.76,160.256 "/>
<polyline clip-path="url(#clip260)" style="stroke:#000000; stroke-linecap:round; stroke-linejoin:round; stroke-width:4; stroke-opacity:1; fill:none" points="219.866,1423.18 2352.76,1423.18 "/>
<polyline clip-path="url(#clip260)" style="stroke:#000000; stroke-linecap:round; stroke-linejoin:round; stroke-width:4; stroke-opacity:1; fill:none" points="280.231,1423.18 280.231,1404.28 "/>
<polyline clip-path="url(#clip260)" style="stroke:#000000; stroke-linecap:round; stroke-linejoin:round; stroke-width:4; stroke-opacity:1; fill:none" points="682.663,1423.18 682.663,1404.28 "/>
<polyline clip-path="url(#clip260)" style="stroke:#000000; stroke-linecap:round; stroke-linejoin:round; stroke-width:4; stroke-opacity:1; fill:none" points="1085.1,1423.18 1085.1,1404.28 "/>
<polyline clip-path="url(#clip260)" style="stroke:#000000; stroke-linecap:round; stroke-linejoin:round; stroke-width:4; stroke-opacity:1; fill:none" points="1487.53,1423.18 1487.53,1404.28 "/>
<polyline clip-path="url(#clip260)" style="stroke:#000000; stroke-linecap:round; stroke-linejoin:round; stroke-width:4; stroke-opacity:1; fill:none" points="1889.96,1423.18 1889.96,1404.28 "/>
<polyline clip-path="url(#clip260)" style="stroke:#000000; stroke-linecap:round; stroke-linejoin:round; stroke-width:4; stroke-opacity:1; fill:none" points="2292.39,1423.18 2292.39,1404.28 "/>
<path clip-path="url(#clip260)" d="M280.231 1454.1 Q276.62 1454.1 274.791 1457.66 Q272.986 1461.2 272.986 1468.33 Q272.986 1475.44 274.791 1479.01 Q276.62 1482.55 280.231 1482.55 Q283.865 1482.55 285.671 1479.01 Q287.5 1475.44 287.5 1468.33 Q287.5 1461.2 285.671 1457.66 Q283.865 1454.1 280.231 1454.1 M280.231 1450.39 Q286.041 1450.39 289.097 1455 Q292.175 1459.58 292.175 1468.33 Q292.175 1477.06 289.097 1481.67 Q286.041 1486.25 280.231 1486.25 Q274.421 1486.25 271.342 1481.67 Q268.287 1477.06 268.287 1468.33 Q268.287 1459.58 271.342 1455 Q274.421 1450.39 280.231 1450.39 Z" fill="#000000" fill-rule="nonzero" fill-opacity="1" /><path clip-path="url(#clip260)" d="M657.351 1481.64 L664.99 1481.64 L664.99 1455.28 L656.679 1456.95 L656.679 1452.69 L664.943 1451.02 L669.619 1451.02 L669.619 1481.64 L677.258 1481.64 L677.258 1485.58 L657.351 1485.58 L657.351 1481.64 Z" fill="#000000" fill-rule="nonzero" fill-opacity="1" /><path clip-path="url(#clip260)" d="M696.702 1454.1 Q693.091 1454.1 691.263 1457.66 Q689.457 1461.2 689.457 1468.33 Q689.457 1475.44 691.263 1479.01 Q693.091 1482.55 696.702 1482.55 Q700.337 1482.55 702.142 1479.01 Q703.971 1475.44 703.971 1468.33 Q703.971 1461.2 702.142 1457.66 Q700.337 1454.1 696.702 1454.1 M696.702 1450.39 Q702.513 1450.39 705.568 1455 Q708.647 1459.58 708.647 1468.33 Q708.647 1477.06 705.568 1481.67 Q702.513 1486.25 696.702 1486.25 Q690.892 1486.25 687.814 1481.67 Q684.758 1477.06 684.758 1468.33 Q684.758 1459.58 687.814 1455 Q690.892 1450.39 696.702 1450.39 Z" fill="#000000" fill-rule="nonzero" fill-opacity="1" /><path clip-path="url(#clip260)" d="M1063.87 1481.64 L1080.19 1481.64 L1080.19 1485.58 L1058.24 1485.58 L1058.24 1481.64 Q1060.91 1478.89 1065.49 1474.26 Q1070.1 1469.61 1071.28 1468.27 Q1073.52 1465.74 1074.4 1464.01 Q1075.3 1462.25 1075.3 1460.56 Q1075.3 1457.8 1073.36 1456.07 Q1071.44 1454.33 1068.34 1454.33 Q1066.14 1454.33 1063.68 1455.09 Q1061.25 1455.86 1058.47 1457.41 L1058.47 1452.69 Q1061.3 1451.55 1063.75 1450.97 Q1066.21 1450.39 1068.24 1450.39 Q1073.61 1450.39 1076.81 1453.08 Q1080 1455.77 1080 1460.26 Q1080 1462.39 1079.19 1464.31 Q1078.41 1466.2 1076.3 1468.8 Q1075.72 1469.47 1072.62 1472.69 Q1069.52 1475.88 1063.87 1481.64 Z" fill="#000000" fill-rule="nonzero" fill-opacity="1" /><path clip-path="url(#clip260)" d="M1100 1454.1 Q1096.39 1454.1 1094.56 1457.66 Q1092.76 1461.2 1092.76 1468.33 Q1092.76 1475.44 1094.56 1479.01 Q1096.39 1482.55 1100 1482.55 Q1103.64 1482.55 1105.44 1479.01 Q1107.27 1475.44 1107.27 1468.33 Q1107.27 1461.2 1105.44 1457.66 Q1103.64 1454.1 1100 1454.1 M1100 1450.39 Q1105.81 1450.39 1108.87 1455 Q1111.95 1459.58 1111.95 1468.33 Q1111.95 1477.06 1108.87 1481.67 Q1105.81 1486.25 1100 1486.25 Q1094.19 1486.25 1091.11 1481.67 Q1088.06 1477.06 1088.06 1468.33 Q1088.06 1459.58 1091.11 1455 Q1094.19 1450.39 1100 1450.39 Z" fill="#000000" fill-rule="nonzero" fill-opacity="1" /><path clip-path="url(#clip260)" d="M1476.37 1466.95 Q1479.73 1467.66 1481.6 1469.93 Q1483.5 1472.2 1483.5 1475.53 Q1483.5 1480.65 1479.98 1483.45 Q1476.46 1486.25 1469.98 1486.25 Q1467.8 1486.25 1465.49 1485.81 Q1463.2 1485.39 1460.74 1484.54 L1460.74 1480.02 Q1462.69 1481.16 1465 1481.74 Q1467.32 1482.32 1469.84 1482.32 Q1474.24 1482.32 1476.53 1480.58 Q1478.85 1478.84 1478.85 1475.53 Q1478.85 1472.48 1476.69 1470.77 Q1474.56 1469.03 1470.74 1469.03 L1466.72 1469.03 L1466.72 1465.19 L1470.93 1465.19 Q1474.38 1465.19 1476.21 1463.82 Q1478.04 1462.43 1478.04 1459.84 Q1478.04 1457.18 1476.14 1455.77 Q1474.26 1454.33 1470.74 1454.33 Q1468.82 1454.33 1466.62 1454.75 Q1464.43 1455.16 1461.79 1456.04 L1461.79 1451.88 Q1464.45 1451.14 1466.76 1450.77 Q1469.1 1450.39 1471.16 1450.39 Q1476.49 1450.39 1479.59 1452.83 Q1482.69 1455.23 1482.69 1459.35 Q1482.69 1462.22 1481.05 1464.21 Q1479.4 1466.18 1476.37 1466.95 Z" fill="#000000" fill-rule="nonzero" fill-opacity="1" /><path clip-path="url(#clip260)" d="M1502.36 1454.1 Q1498.75 1454.1 1496.93 1457.66 Q1495.12 1461.2 1495.12 1468.33 Q1495.12 1475.44 1496.93 1479.01 Q1498.75 1482.55 1502.36 1482.55 Q1506 1482.55 1507.8 1479.01 Q1509.63 1475.44 1509.63 1468.33 Q1509.63 1461.2 1507.8 1457.66 Q1506 1454.1 1502.36 1454.1 M1502.36 1450.39 Q1508.18 1450.39 1511.23 1455 Q1514.31 1459.58 1514.31 1468.33 Q1514.31 1477.06 1511.23 1481.67 Q1508.18 1486.25 1502.36 1486.25 Q1496.55 1486.25 1493.48 1481.67 Q1490.42 1477.06 1490.42 1468.33 Q1490.42 1459.58 1493.48 1455 Q1496.55 1450.39 1502.36 1450.39 Z" fill="#000000" fill-rule="nonzero" fill-opacity="1" /><path clip-path="url(#clip260)" d="M1878.13 1455.09 L1866.32 1473.54 L1878.13 1473.54 L1878.13 1455.09 M1876.9 1451.02 L1882.78 1451.02 L1882.78 1473.54 L1887.71 1473.54 L1887.71 1477.43 L1882.78 1477.43 L1882.78 1485.58 L1878.13 1485.58 L1878.13 1477.43 L1862.53 1477.43 L1862.53 1472.92 L1876.9 1451.02 Z" fill="#000000" fill-rule="nonzero" fill-opacity="1" /><path clip-path="url(#clip260)" d="M1905.45 1454.1 Q1901.83 1454.1 1900.01 1457.66 Q1898.2 1461.2 1898.2 1468.33 Q1898.2 1475.44 1900.01 1479.01 Q1901.83 1482.55 1905.45 1482.55 Q1909.08 1482.55 1910.88 1479.01 Q1912.71 1475.44 1912.71 1468.33 Q1912.71 1461.2 1910.88 1457.66 Q1909.08 1454.1 1905.45 1454.1 M1905.45 1450.39 Q1911.26 1450.39 1914.31 1455 Q1917.39 1459.58 1917.39 1468.33 Q1917.39 1477.06 1914.31 1481.67 Q1911.26 1486.25 1905.45 1486.25 Q1899.63 1486.25 1896.56 1481.67 Q1893.5 1477.06 1893.5 1468.33 Q1893.5 1459.58 1896.56 1455 Q1899.63 1450.39 1905.45 1450.39 Z" fill="#000000" fill-rule="nonzero" fill-opacity="1" /><path clip-path="url(#clip260)" d="M2267.09 1451.02 L2285.45 1451.02 L2285.45 1454.96 L2271.37 1454.96 L2271.37 1463.43 Q2272.39 1463.08 2273.41 1462.92 Q2274.43 1462.73 2275.45 1462.73 Q2281.23 1462.73 2284.61 1465.9 Q2287.99 1469.08 2287.99 1474.49 Q2287.99 1480.07 2284.52 1483.17 Q2281.05 1486.25 2274.73 1486.25 Q2272.55 1486.25 2270.28 1485.88 Q2268.04 1485.51 2265.63 1484.77 L2265.63 1480.07 Q2267.72 1481.2 2269.94 1481.76 Q2272.16 1482.32 2274.64 1482.32 Q2278.64 1482.32 2280.98 1480.21 Q2283.32 1478.1 2283.32 1474.49 Q2283.32 1470.88 2280.98 1468.77 Q2278.64 1466.67 2274.64 1466.67 Q2272.76 1466.67 2270.89 1467.08 Q2269.03 1467.5 2267.09 1468.38 L2267.09 1451.02 Z" fill="#000000" fill-rule="nonzero" fill-opacity="1" /><path clip-path="url(#clip260)" d="M2307.21 1454.1 Q2303.59 1454.1 2301.77 1457.66 Q2299.96 1461.2 2299.96 1468.33 Q2299.96 1475.44 2301.77 1479.01 Q2303.59 1482.55 2307.21 1482.55 Q2310.84 1482.55 2312.65 1479.01 Q2314.47 1475.44 2314.47 1468.33 Q2314.47 1461.2 2312.65 1457.66 Q2310.84 1454.1 2307.21 1454.1 M2307.21 1450.39 Q2313.02 1450.39 2316.07 1455 Q2319.15 1459.58 2319.15 1468.33 Q2319.15 1477.06 2316.07 1481.67 Q2313.02 1486.25 2307.21 1486.25 Q2301.4 1486.25 2298.32 1481.67 Q2295.26 1477.06 2295.26 1468.33 Q2295.26 1459.58 2298.32 1455 Q2301.4 1450.39 2307.21 1450.39 Z" fill="#000000" fill-rule="nonzero" fill-opacity="1" /><path clip-path="url(#clip260)" d="M1233.65 1520.52 L1240.08 1520.52 L1240.08 1562.63 L1263.22 1562.63 L1263.22 1568.04 L1233.65 1568.04 L1233.65 1520.52 Z" fill="#000000" fill-rule="nonzero" fill-opacity="1" /><path clip-path="url(#clip260)" d="M1285.91 1550.12 Q1278.82 1550.12 1276.08 1551.75 Q1273.34 1553.37 1273.34 1557.29 Q1273.34 1560.4 1275.38 1562.25 Q1277.45 1564.07 1280.98 1564.07 Q1285.85 1564.07 1288.78 1560.63 Q1291.74 1557.16 1291.74 1551.43 L1291.74 1550.12 L1285.91 1550.12 M1297.59 1547.71 L1297.59 1568.04 L1291.74 1568.04 L1291.74 1562.63 Q1289.73 1565.88 1286.74 1567.44 Q1283.75 1568.97 1279.42 1568.97 Q1273.95 1568.97 1270.7 1565.91 Q1267.48 1562.82 1267.48 1557.67 Q1267.48 1551.65 1271.49 1548.6 Q1275.54 1545.54 1283.53 1545.54 L1291.74 1545.54 L1291.74 1544.97 Q1291.74 1540.93 1289.06 1538.73 Q1286.42 1536.5 1281.62 1536.5 Q1278.56 1536.5 1275.66 1537.23 Q1272.77 1537.97 1270.09 1539.43 L1270.09 1534.02 Q1273.31 1532.78 1276.33 1532.17 Q1279.36 1531.54 1282.22 1531.54 Q1289.96 1531.54 1293.77 1535.55 Q1297.59 1539.56 1297.59 1547.71 Z" fill="#000000" fill-rule="nonzero" fill-opacity="1" /><path clip-path="url(#clip260)" d="M1333.11 1549.81 Q1333.11 1543.44 1330.47 1539.94 Q1327.86 1536.44 1323.12 1536.44 Q1318.41 1536.44 1315.77 1539.94 Q1313.16 1543.44 1313.16 1549.81 Q1313.16 1556.14 1315.77 1559.64 Q1318.41 1563.14 1323.12 1563.14 Q1327.86 1563.14 1330.47 1559.64 Q1333.11 1556.14 1333.11 1549.81 M1338.97 1563.62 Q1338.97 1572.72 1334.93 1577.15 Q1330.89 1581.6 1322.55 1581.6 Q1319.46 1581.6 1316.72 1581.13 Q1313.99 1580.68 1311.41 1579.72 L1311.41 1574.03 Q1313.99 1575.43 1316.5 1576.1 Q1319.01 1576.76 1321.62 1576.76 Q1327.39 1576.76 1330.25 1573.74 Q1333.11 1570.75 1333.11 1564.67 L1333.11 1561.77 Q1331.3 1564.92 1328.47 1566.48 Q1325.64 1568.04 1321.69 1568.04 Q1315.13 1568.04 1311.12 1563.05 Q1307.11 1558.05 1307.11 1549.81 Q1307.11 1541.53 1311.12 1536.53 Q1315.13 1531.54 1321.69 1531.54 Q1325.64 1531.54 1328.47 1533.1 Q1331.3 1534.66 1333.11 1537.81 L1333.11 1532.4 L1338.97 1532.4 L1338.97 1563.62 Z" fill="#000000" fill-rule="nonzero" fill-opacity="1" /><polyline clip-path="url(#clip260)" style="stroke:#000000; stroke-linecap:round; stroke-linejoin:round; stroke-width:4; stroke-opacity:1; fill:none" points="219.866,1423.18 219.866,123.472 "/>
<polyline clip-path="url(#clip260)" style="stroke:#000000; stroke-linecap:round; stroke-linejoin:round; stroke-width:4; stroke-opacity:1; fill:none" points="219.866,1372.05 238.764,1372.05 "/>
<polyline clip-path="url(#clip260)" style="stroke:#000000; stroke-linecap:round; stroke-linejoin:round; stroke-width:4; stroke-opacity:1; fill:none" points="219.866,1250.87 238.764,1250.87 "/>
<polyline clip-path="url(#clip260)" style="stroke:#000000; stroke-linecap:round; stroke-linejoin:round; stroke-width:4; stroke-opacity:1; fill:none" points="219.866,1129.69 238.764,1129.69 "/>
<polyline clip-path="url(#clip260)" style="stroke:#000000; stroke-linecap:round; stroke-linejoin:round; stroke-width:4; stroke-opacity:1; fill:none" points="219.866,1008.51 238.764,1008.51 "/>
<polyline clip-path="url(#clip260)" style="stroke:#000000; stroke-linecap:round; stroke-linejoin:round; stroke-width:4; stroke-opacity:1; fill:none" points="219.866,887.333 238.764,887.333 "/>
<polyline clip-path="url(#clip260)" style="stroke:#000000; stroke-linecap:round; stroke-linejoin:round; stroke-width:4; stroke-opacity:1; fill:none" points="219.866,766.153 238.764,766.153 "/>
<polyline clip-path="url(#clip260)" style="stroke:#000000; stroke-linecap:round; stroke-linejoin:round; stroke-width:4; stroke-opacity:1; fill:none" points="219.866,644.974 238.764,644.974 "/>
<polyline clip-path="url(#clip260)" style="stroke:#000000; stroke-linecap:round; stroke-linejoin:round; stroke-width:4; stroke-opacity:1; fill:none" points="219.866,523.795 238.764,523.795 "/>
<polyline clip-path="url(#clip260)" style="stroke:#000000; stroke-linecap:round; stroke-linejoin:round; stroke-width:4; stroke-opacity:1; fill:none" points="219.866,402.615 238.764,402.615 "/>
<polyline clip-path="url(#clip260)" style="stroke:#000000; stroke-linecap:round; stroke-linejoin:round; stroke-width:4; stroke-opacity:1; fill:none" points="219.866,281.436 238.764,281.436 "/>
<polyline clip-path="url(#clip260)" style="stroke:#000000; stroke-linecap:round; stroke-linejoin:round; stroke-width:4; stroke-opacity:1; fill:none" points="219.866,160.256 238.764,160.256 "/>
<path clip-path="url(#clip260)" d="M126.691 1357.85 Q123.08 1357.85 121.251 1361.41 Q119.445 1364.96 119.445 1372.09 Q119.445 1379.19 121.251 1382.76 Q123.08 1386.3 126.691 1386.3 Q130.325 1386.3 132.13 1382.76 Q133.959 1379.19 133.959 1372.09 Q133.959 1364.96 132.13 1361.41 Q130.325 1357.85 126.691 1357.85 M126.691 1354.15 Q132.501 1354.15 135.556 1358.75 Q138.635 1363.34 138.635 1372.09 Q138.635 1380.81 135.556 1385.42 Q132.501 1390 126.691 1390 Q120.88 1390 117.802 1385.42 Q114.746 1380.81 114.746 1372.09 Q114.746 1363.34 117.802 1358.75 Q120.88 1354.15 126.691 1354.15 Z" fill="#000000" fill-rule="nonzero" fill-opacity="1" /><path clip-path="url(#clip260)" d="M146.853 1383.45 L151.737 1383.45 L151.737 1389.33 L146.853 1389.33 L146.853 1383.45 Z" fill="#000000" fill-rule="nonzero" fill-opacity="1" /><path clip-path="url(#clip260)" d="M171.922 1357.85 Q168.311 1357.85 166.482 1361.41 Q164.677 1364.96 164.677 1372.09 Q164.677 1379.19 166.482 1382.76 Q168.311 1386.3 171.922 1386.3 Q175.556 1386.3 177.362 1382.76 Q179.19 1379.19 179.19 1372.09 Q179.19 1364.96 177.362 1361.41 Q175.556 1357.85 171.922 1357.85 M171.922 1354.15 Q177.732 1354.15 180.788 1358.75 Q183.866 1363.34 183.866 1372.09 Q183.866 1380.81 180.788 1385.42 Q177.732 1390 171.922 1390 Q166.112 1390 163.033 1385.42 Q159.978 1380.81 159.978 1372.09 Q159.978 1363.34 163.033 1358.75 Q166.112 1354.15 171.922 1354.15 Z" fill="#000000" fill-rule="nonzero" fill-opacity="1" /><path clip-path="url(#clip260)" d="M127.917 1236.67 Q124.306 1236.67 122.478 1240.23 Q120.672 1243.78 120.672 1250.91 Q120.672 1258.01 122.478 1261.58 Q124.306 1265.12 127.917 1265.12 Q131.552 1265.12 133.357 1261.58 Q135.186 1258.01 135.186 1250.91 Q135.186 1243.78 133.357 1240.23 Q131.552 1236.67 127.917 1236.67 M127.917 1232.97 Q133.728 1232.97 136.783 1237.57 Q139.862 1242.16 139.862 1250.91 Q139.862 1259.63 136.783 1264.24 Q133.728 1268.82 127.917 1268.82 Q122.107 1268.82 119.029 1264.24 Q115.973 1259.63 115.973 1250.91 Q115.973 1242.16 119.029 1237.57 Q122.107 1232.97 127.917 1232.97 Z" fill="#000000" fill-rule="nonzero" fill-opacity="1" /><path clip-path="url(#clip260)" d="M148.079 1262.27 L152.964 1262.27 L152.964 1268.15 L148.079 1268.15 L148.079 1262.27 Z" fill="#000000" fill-rule="nonzero" fill-opacity="1" /><path clip-path="url(#clip260)" d="M163.959 1264.22 L171.598 1264.22 L171.598 1237.85 L163.288 1239.52 L163.288 1235.26 L171.552 1233.59 L176.227 1233.59 L176.227 1264.22 L183.866 1264.22 L183.866 1268.15 L163.959 1268.15 L163.959 1264.22 Z" fill="#000000" fill-rule="nonzero" fill-opacity="1" /><path clip-path="url(#clip260)" d="M128.288 1115.49 Q124.677 1115.49 122.848 1119.06 Q121.043 1122.6 121.043 1129.73 Q121.043 1136.83 122.848 1140.4 Q124.677 1143.94 128.288 1143.94 Q131.922 1143.94 133.728 1140.4 Q135.556 1136.83 135.556 1129.73 Q135.556 1122.6 133.728 1119.06 Q131.922 1115.49 128.288 1115.49 M128.288 1111.79 Q134.098 1111.79 137.154 1116.39 Q140.232 1120.98 140.232 1129.73 Q140.232 1138.45 137.154 1143.06 Q134.098 1147.64 128.288 1147.64 Q122.478 1147.64 119.399 1143.06 Q116.343 1138.45 116.343 1129.73 Q116.343 1120.98 119.399 1116.39 Q122.478 1111.79 128.288 1111.79 Z" fill="#000000" fill-rule="nonzero" fill-opacity="1" /><path clip-path="url(#clip260)" d="M148.45 1141.09 L153.334 1141.09 L153.334 1146.97 L148.45 1146.97 L148.45 1141.09 Z" fill="#000000" fill-rule="nonzero" fill-opacity="1" /><path clip-path="url(#clip260)" d="M167.547 1143.04 L183.866 1143.04 L183.866 1146.97 L161.922 1146.97 L161.922 1143.04 Q164.584 1140.28 169.167 1135.65 Q173.774 1131 174.954 1129.66 Q177.2 1127.13 178.079 1125.4 Q178.982 1123.64 178.982 1121.95 Q178.982 1119.19 177.038 1117.46 Q175.116 1115.72 172.014 1115.72 Q169.815 1115.72 167.362 1116.49 Q164.931 1117.25 162.153 1118.8 L162.153 1114.08 Q164.977 1112.94 167.431 1112.37 Q169.885 1111.79 171.922 1111.79 Q177.292 1111.79 180.487 1114.47 Q183.681 1117.16 183.681 1121.65 Q183.681 1123.78 182.871 1125.7 Q182.084 1127.6 179.977 1130.19 Q179.399 1130.86 176.297 1134.08 Q173.195 1137.27 167.547 1143.04 Z" fill="#000000" fill-rule="nonzero" fill-opacity="1" /><path clip-path="url(#clip260)" d="M127.339 994.311 Q123.728 994.311 121.899 997.876 Q120.093 1001.42 120.093 1008.55 Q120.093 1015.65 121.899 1019.22 Q123.728 1022.76 127.339 1022.76 Q130.973 1022.76 132.779 1019.22 Q134.607 1015.65 134.607 1008.55 Q134.607 1001.42 132.779 997.876 Q130.973 994.311 127.339 994.311 M127.339 990.607 Q133.149 990.607 136.204 995.214 Q139.283 999.797 139.283 1008.55 Q139.283 1017.27 136.204 1021.88 Q133.149 1026.46 127.339 1026.46 Q121.529 1026.46 118.45 1021.88 Q115.394 1017.27 115.394 1008.55 Q115.394 999.797 118.45 995.214 Q121.529 990.607 127.339 990.607 Z" fill="#000000" fill-rule="nonzero" fill-opacity="1" /><path clip-path="url(#clip260)" d="M147.501 1019.91 L152.385 1019.91 L152.385 1025.79 L147.501 1025.79 L147.501 1019.91 Z" fill="#000000" fill-rule="nonzero" fill-opacity="1" /><path clip-path="url(#clip260)" d="M176.737 1007.16 Q180.093 1007.88 181.968 1010.14 Q183.866 1012.41 183.866 1015.75 Q183.866 1020.86 180.348 1023.66 Q176.829 1026.46 170.348 1026.46 Q168.172 1026.46 165.857 1026.02 Q163.565 1025.61 161.112 1024.75 L161.112 1020.24 Q163.056 1021.37 165.371 1021.95 Q167.686 1022.53 170.209 1022.53 Q174.607 1022.53 176.899 1020.79 Q179.214 1019.06 179.214 1015.75 Q179.214 1012.69 177.061 1010.98 Q174.931 1009.24 171.112 1009.24 L167.084 1009.24 L167.084 1005.4 L171.297 1005.4 Q174.746 1005.4 176.575 1004.03 Q178.403 1002.64 178.403 1000.05 Q178.403 997.39 176.505 995.978 Q174.63 994.542 171.112 994.542 Q169.19 994.542 166.991 994.959 Q164.792 995.376 162.153 996.255 L162.153 992.089 Q164.815 991.348 167.13 990.978 Q169.468 990.607 171.528 990.607 Q176.852 990.607 179.954 993.038 Q183.056 995.445 183.056 999.566 Q183.056 1002.44 181.413 1004.43 Q179.769 1006.39 176.737 1007.16 Z" fill="#000000" fill-rule="nonzero" fill-opacity="1" /><path clip-path="url(#clip260)" d="M126.205 873.132 Q122.593 873.132 120.765 876.696 Q118.959 880.238 118.959 887.368 Q118.959 894.474 120.765 898.039 Q122.593 901.58 126.205 901.58 Q129.839 901.58 131.644 898.039 Q133.473 894.474 133.473 887.368 Q133.473 880.238 131.644 876.696 Q129.839 873.132 126.205 873.132 M126.205 869.428 Q132.015 869.428 135.07 874.034 Q138.149 878.618 138.149 887.368 Q138.149 896.094 135.07 900.701 Q132.015 905.284 126.205 905.284 Q120.394 905.284 117.316 900.701 Q114.26 896.094 114.26 887.368 Q114.26 878.618 117.316 874.034 Q120.394 869.428 126.205 869.428 Z" fill="#000000" fill-rule="nonzero" fill-opacity="1" /><path clip-path="url(#clip260)" d="M146.366 898.733 L151.251 898.733 L151.251 904.613 L146.366 904.613 L146.366 898.733 Z" fill="#000000" fill-rule="nonzero" fill-opacity="1" /><path clip-path="url(#clip260)" d="M174.283 874.127 L162.477 892.576 L174.283 892.576 L174.283 874.127 M173.056 870.053 L178.936 870.053 L178.936 892.576 L183.866 892.576 L183.866 896.465 L178.936 896.465 L178.936 904.613 L174.283 904.613 L174.283 896.465 L158.681 896.465 L158.681 891.951 L173.056 870.053 Z" fill="#000000" fill-rule="nonzero" fill-opacity="1" /><path clip-path="url(#clip260)" d="M127.686 751.952 Q124.075 751.952 122.246 755.517 Q120.441 759.059 120.441 766.188 Q120.441 773.295 122.246 776.859 Q124.075 780.401 127.686 780.401 Q131.32 780.401 133.126 776.859 Q134.954 773.295 134.954 766.188 Q134.954 759.059 133.126 755.517 Q131.32 751.952 127.686 751.952 M127.686 748.248 Q133.496 748.248 136.552 752.855 Q139.63 757.438 139.63 766.188 Q139.63 774.915 136.552 779.521 Q133.496 784.105 127.686 784.105 Q121.876 784.105 118.797 779.521 Q115.742 774.915 115.742 766.188 Q115.742 757.438 118.797 752.855 Q121.876 748.248 127.686 748.248 Z" fill="#000000" fill-rule="nonzero" fill-opacity="1" /><path clip-path="url(#clip260)" d="M147.848 777.554 L152.732 777.554 L152.732 783.433 L147.848 783.433 L147.848 777.554 Z" fill="#000000" fill-rule="nonzero" fill-opacity="1" /><path clip-path="url(#clip260)" d="M162.964 748.873 L181.32 748.873 L181.32 752.809 L167.246 752.809 L167.246 761.281 Q168.264 760.934 169.283 760.772 Q170.302 760.586 171.32 760.586 Q177.107 760.586 180.487 763.758 Q183.866 766.929 183.866 772.346 Q183.866 777.924 180.394 781.026 Q176.922 784.105 170.602 784.105 Q168.427 784.105 166.158 783.734 Q163.913 783.364 161.505 782.623 L161.505 777.924 Q163.589 779.058 165.811 779.614 Q168.033 780.17 170.51 780.17 Q174.514 780.17 176.852 778.063 Q179.19 775.957 179.19 772.346 Q179.19 768.734 176.852 766.628 Q174.514 764.521 170.51 764.521 Q168.635 764.521 166.76 764.938 Q164.908 765.355 162.964 766.234 L162.964 748.873 Z" fill="#000000" fill-rule="nonzero" fill-opacity="1" /><path clip-path="url(#clip260)" d="M126.529 630.773 Q122.918 630.773 121.089 634.337 Q119.283 637.879 119.283 645.009 Q119.283 652.115 121.089 655.68 Q122.918 659.222 126.529 659.222 Q130.163 659.222 131.968 655.68 Q133.797 652.115 133.797 645.009 Q133.797 637.879 131.968 634.337 Q130.163 630.773 126.529 630.773 M126.529 627.069 Q132.339 627.069 135.394 631.675 Q138.473 636.259 138.473 645.009 Q138.473 653.736 135.394 658.342 Q132.339 662.925 126.529 662.925 Q120.718 662.925 117.64 658.342 Q114.584 653.736 114.584 645.009 Q114.584 636.259 117.64 631.675 Q120.718 627.069 126.529 627.069 Z" fill="#000000" fill-rule="nonzero" fill-opacity="1" /><path clip-path="url(#clip260)" d="M146.691 656.374 L151.575 656.374 L151.575 662.254 L146.691 662.254 L146.691 656.374 Z" fill="#000000" fill-rule="nonzero" fill-opacity="1" /><path clip-path="url(#clip260)" d="M172.339 643.111 Q169.19 643.111 167.339 645.263 Q165.51 647.416 165.51 651.166 Q165.51 654.893 167.339 657.069 Q169.19 659.222 172.339 659.222 Q175.487 659.222 177.315 657.069 Q179.167 654.893 179.167 651.166 Q179.167 647.416 177.315 645.263 Q175.487 643.111 172.339 643.111 M181.621 628.458 L181.621 632.717 Q179.862 631.884 178.056 631.444 Q176.274 631.004 174.514 631.004 Q169.885 631.004 167.431 634.129 Q165.001 637.254 164.653 643.574 Q166.019 641.56 168.079 640.495 Q170.139 639.407 172.616 639.407 Q177.825 639.407 180.834 642.578 Q183.866 645.726 183.866 651.166 Q183.866 656.49 180.718 659.708 Q177.57 662.925 172.339 662.925 Q166.343 662.925 163.172 658.342 Q160.001 653.736 160.001 645.009 Q160.001 636.814 163.89 631.953 Q167.778 627.069 174.329 627.069 Q176.089 627.069 177.871 627.416 Q179.676 627.763 181.621 628.458 Z" fill="#000000" fill-rule="nonzero" fill-opacity="1" /><path clip-path="url(#clip260)" d="M127.593 509.593 Q123.982 509.593 122.154 513.158 Q120.348 516.7 120.348 523.829 Q120.348 530.936 122.154 534.501 Q123.982 538.042 127.593 538.042 Q131.228 538.042 133.033 534.501 Q134.862 530.936 134.862 523.829 Q134.862 516.7 133.033 513.158 Q131.228 509.593 127.593 509.593 M127.593 505.89 Q133.404 505.89 136.459 510.496 Q139.538 515.079 139.538 523.829 Q139.538 532.556 136.459 537.163 Q133.404 541.746 127.593 541.746 Q121.783 541.746 118.705 537.163 Q115.649 532.556 115.649 523.829 Q115.649 515.079 118.705 510.496 Q121.783 505.89 127.593 505.89 Z" fill="#000000" fill-rule="nonzero" fill-opacity="1" /><path clip-path="url(#clip260)" d="M147.755 535.195 L152.64 535.195 L152.64 541.075 L147.755 541.075 L147.755 535.195 Z" fill="#000000" fill-rule="nonzero" fill-opacity="1" /><path clip-path="url(#clip260)" d="M161.644 506.515 L183.866 506.515 L183.866 508.505 L171.32 541.075 L166.436 541.075 L178.241 510.45 L161.644 510.45 L161.644 506.515 Z" fill="#000000" fill-rule="nonzero" fill-opacity="1" /><path clip-path="url(#clip260)" d="M126.783 388.414 Q123.172 388.414 121.343 391.979 Q119.538 395.52 119.538 402.65 Q119.538 409.756 121.343 413.321 Q123.172 416.863 126.783 416.863 Q130.417 416.863 132.223 413.321 Q134.052 409.756 134.052 402.65 Q134.052 395.52 132.223 391.979 Q130.417 388.414 126.783 388.414 M126.783 384.71 Q132.593 384.71 135.649 389.317 Q138.728 393.9 138.728 402.65 Q138.728 411.377 135.649 415.983 Q132.593 420.566 126.783 420.566 Q120.973 420.566 117.894 415.983 Q114.839 411.377 114.839 402.65 Q114.839 393.9 117.894 389.317 Q120.973 384.71 126.783 384.71 Z" fill="#000000" fill-rule="nonzero" fill-opacity="1" /><path clip-path="url(#clip260)" d="M146.945 414.016 L151.829 414.016 L151.829 419.895 L146.945 419.895 L146.945 414.016 Z" fill="#000000" fill-rule="nonzero" fill-opacity="1" /><path clip-path="url(#clip260)" d="M172.014 403.483 Q168.681 403.483 166.76 405.266 Q164.862 407.048 164.862 410.173 Q164.862 413.298 166.76 415.08 Q168.681 416.863 172.014 416.863 Q175.348 416.863 177.269 415.08 Q179.19 413.275 179.19 410.173 Q179.19 407.048 177.269 405.266 Q175.371 403.483 172.014 403.483 M167.339 401.492 Q164.329 400.752 162.64 398.692 Q160.973 396.631 160.973 393.668 Q160.973 389.525 163.913 387.118 Q166.876 384.71 172.014 384.71 Q177.176 384.71 180.116 387.118 Q183.056 389.525 183.056 393.668 Q183.056 396.631 181.366 398.692 Q179.7 400.752 176.714 401.492 Q180.093 402.28 181.968 404.571 Q183.866 406.863 183.866 410.173 Q183.866 415.196 180.788 417.881 Q177.732 420.566 172.014 420.566 Q166.297 420.566 163.218 417.881 Q160.163 415.196 160.163 410.173 Q160.163 406.863 162.061 404.571 Q163.959 402.28 167.339 401.492 M165.626 394.108 Q165.626 396.793 167.292 398.298 Q168.982 399.803 172.014 399.803 Q175.024 399.803 176.714 398.298 Q178.426 396.793 178.426 394.108 Q178.426 391.423 176.714 389.918 Q175.024 388.414 172.014 388.414 Q168.982 388.414 167.292 389.918 Q165.626 391.423 165.626 394.108 Z" fill="#000000" fill-rule="nonzero" fill-opacity="1" /><path clip-path="url(#clip260)" d="M126.876 267.234 Q123.265 267.234 121.436 270.799 Q119.63 274.341 119.63 281.47 Q119.63 288.577 121.436 292.142 Q123.265 295.683 126.876 295.683 Q130.51 295.683 132.316 292.142 Q134.144 288.577 134.144 281.47 Q134.144 274.341 132.316 270.799 Q130.51 267.234 126.876 267.234 M126.876 263.531 Q132.686 263.531 135.742 268.137 Q138.82 272.721 138.82 281.47 Q138.82 290.197 135.742 294.804 Q132.686 299.387 126.876 299.387 Q121.066 299.387 117.987 294.804 Q114.931 290.197 114.931 281.47 Q114.931 272.721 117.987 268.137 Q121.066 263.531 126.876 263.531 Z" fill="#000000" fill-rule="nonzero" fill-opacity="1" /><path clip-path="url(#clip260)" d="M147.038 292.836 L151.922 292.836 L151.922 298.716 L147.038 298.716 L147.038 292.836 Z" fill="#000000" fill-rule="nonzero" fill-opacity="1" /><path clip-path="url(#clip260)" d="M162.246 297.998 L162.246 293.739 Q164.005 294.572 165.811 295.012 Q167.616 295.452 169.352 295.452 Q173.982 295.452 176.413 292.35 Q178.866 289.225 179.214 282.882 Q177.871 284.873 175.811 285.938 Q173.751 287.003 171.251 287.003 Q166.065 287.003 163.033 283.878 Q160.024 280.73 160.024 275.29 Q160.024 269.966 163.172 266.748 Q166.32 263.531 171.552 263.531 Q177.547 263.531 180.695 268.137 Q183.866 272.721 183.866 281.47 Q183.866 289.642 179.977 294.526 Q176.112 299.387 169.561 299.387 Q167.802 299.387 165.996 299.04 Q164.19 298.693 162.246 297.998 M171.552 283.345 Q174.7 283.345 176.528 281.193 Q178.38 279.04 178.38 275.29 Q178.38 271.563 176.528 269.41 Q174.7 267.234 171.552 267.234 Q168.403 267.234 166.552 269.41 Q164.723 271.563 164.723 275.29 Q164.723 279.04 166.552 281.193 Q168.403 283.345 171.552 283.345 Z" fill="#000000" fill-rule="nonzero" fill-opacity="1" /><path clip-path="url(#clip260)" d="M117.501 173.601 L125.14 173.601 L125.14 147.236 L116.83 148.902 L116.83 144.643 L125.093 142.976 L129.769 142.976 L129.769 173.601 L137.408 173.601 L137.408 177.536 L117.501 177.536 L117.501 173.601 Z" fill="#000000" fill-rule="nonzero" fill-opacity="1" /><path clip-path="url(#clip260)" d="M146.853 171.657 L151.737 171.657 L151.737 177.536 L146.853 177.536 L146.853 171.657 Z" fill="#000000" fill-rule="nonzero" fill-opacity="1" /><path clip-path="url(#clip260)" d="M171.922 146.055 Q168.311 146.055 166.482 149.62 Q164.677 153.161 164.677 160.291 Q164.677 167.397 166.482 170.962 Q168.311 174.504 171.922 174.504 Q175.556 174.504 177.362 170.962 Q179.19 167.397 179.19 160.291 Q179.19 153.161 177.362 149.62 Q175.556 146.055 171.922 146.055 M171.922 142.351 Q177.732 142.351 180.788 146.958 Q183.866 151.541 183.866 160.291 Q183.866 169.018 180.788 173.624 Q177.732 178.208 171.922 178.208 Q166.112 178.208 163.033 173.624 Q159.978 169.018 159.978 160.291 Q159.978 151.541 163.033 146.958 Q166.112 142.351 171.922 142.351 Z" fill="#000000" fill-rule="nonzero" fill-opacity="1" /><path clip-path="url(#clip260)" d="M22.818 813.334 L46.4666 822.055 L46.4666 804.582 L22.818 813.334 M16.4842 816.963 L16.4842 809.674 L64.0042 791.564 L64.0042 798.248 L51.8138 802.576 L51.8138 823.997 L64.0042 828.326 L64.0042 835.105 L16.4842 816.963 Z" fill="#000000" fill-rule="nonzero" fill-opacity="1" /><path clip-path="url(#clip260)" d="M16.4842 784.625 L16.4842 757.316 L21.895 757.316 L21.895 778.196 L35.8996 778.196 L35.8996 759.353 L41.3104 759.353 L41.3104 778.196 L64.0042 778.196 L64.0042 784.625 L16.4842 784.625 Z" fill="#000000" fill-rule="nonzero" fill-opacity="1" /><path clip-path="url(#clip260)" d="M20.1444 711.547 L26.9239 711.547 Q23.9002 714.793 22.4043 718.485 Q20.9083 722.146 20.9083 726.283 Q20.9083 734.432 25.9054 738.76 Q30.8707 743.089 40.2919 743.089 Q49.6813 743.089 54.6784 738.76 Q59.6436 734.432 59.6436 726.283 Q59.6436 722.146 58.1477 718.485 Q56.6518 714.793 53.6281 711.547 L60.3439 711.547 Q62.6355 714.921 63.7814 718.708 Q64.9272 722.464 64.9272 726.665 Q64.9272 737.455 58.3387 743.662 Q51.7183 749.868 40.2919 749.868 Q28.8336 749.868 22.2451 743.662 Q15.6248 737.455 15.6248 726.665 Q15.6248 722.4 16.7706 718.645 Q17.8846 714.857 20.1444 711.547 Z" fill="#000000" fill-rule="nonzero" fill-opacity="1" /><path clip-path="url(#clip260)" d="M682.645 20.1573 L671.546 50.2555 L693.785 50.2555 L682.645 20.1573 M678.027 12.096 L687.304 12.096 L710.354 72.576 L701.847 72.576 L696.337 57.061 L669.075 57.061 L663.566 72.576 L654.937 72.576 L678.027 12.096 Z" fill="#000000" fill-rule="nonzero" fill-opacity="1" /><path clip-path="url(#clip260)" d="M718.091 54.671 L718.091 27.2059 L725.544 27.2059 L725.544 54.3874 Q725.544 60.8284 728.056 64.0691 Q730.568 67.2693 735.591 67.2693 Q741.627 67.2693 745.11 63.421 Q748.635 59.5726 748.635 52.9291 L748.635 27.2059 L756.088 27.2059 L756.088 72.576 L748.635 72.576 L748.635 65.6084 Q745.92 69.7404 742.315 71.7658 Q738.75 73.7508 734.011 73.7508 Q726.193 73.7508 722.142 68.8897 Q718.091 64.0286 718.091 54.671 M736.846 26.1121 L736.846 26.1121 Z" fill="#000000" fill-rule="nonzero" fill-opacity="1" /><path clip-path="url(#clip260)" d="M778.814 14.324 L778.814 27.2059 L794.167 27.2059 L794.167 32.9987 L778.814 32.9987 L778.814 57.6282 Q778.814 63.1779 780.313 64.7578 Q781.852 66.3376 786.511 66.3376 L794.167 66.3376 L794.167 72.576 L786.511 72.576 Q777.882 72.576 774.601 69.3758 Q771.32 66.1351 771.32 57.6282 L771.32 32.9987 L765.851 32.9987 L765.851 27.2059 L771.32 27.2059 L771.32 14.324 L778.814 14.324 Z" fill="#000000" fill-rule="nonzero" fill-opacity="1" /><path clip-path="url(#clip260)" d="M821.551 32.4315 Q815.556 32.4315 812.072 37.1306 Q808.588 41.7891 808.588 49.9314 Q808.588 58.0738 812.031 62.7728 Q815.515 67.4314 821.551 67.4314 Q827.506 67.4314 830.989 62.7323 Q834.473 58.0333 834.473 49.9314 Q834.473 41.8701 830.989 37.1711 Q827.506 32.4315 821.551 32.4315 M821.551 26.1121 Q831.273 26.1121 836.823 32.4315 Q842.372 38.7509 842.372 49.9314 Q842.372 61.0714 836.823 67.4314 Q831.273 73.7508 821.551 73.7508 Q811.788 73.7508 806.238 67.4314 Q800.729 61.0714 800.729 49.9314 Q800.729 38.7509 806.238 32.4315 Q811.788 26.1121 821.551 26.1121 Z" fill="#000000" fill-rule="nonzero" fill-opacity="1" /><path clip-path="url(#clip260)" d="M887.378 28.9478 L887.378 35.9153 Q884.218 34.1734 881.018 33.3227 Q877.858 32.4315 874.618 32.4315 Q867.367 32.4315 863.356 37.0496 Q859.346 41.6271 859.346 49.9314 Q859.346 58.2358 863.356 62.8538 Q867.367 67.4314 874.618 67.4314 Q877.858 67.4314 881.018 66.5807 Q884.218 65.6895 887.378 63.9476 L887.378 70.8341 Q884.259 72.2924 880.897 73.0216 Q877.575 73.7508 873.808 73.7508 Q863.559 73.7508 857.523 67.3098 Q851.487 60.8689 851.487 49.9314 Q851.487 38.832 857.563 32.472 Q863.68 26.1121 874.294 26.1121 Q877.737 26.1121 881.018 26.8413 Q884.299 27.5299 887.378 28.9478 Z" fill="#000000" fill-rule="nonzero" fill-opacity="1" /><path clip-path="url(#clip260)" d="M917.922 32.4315 Q911.927 32.4315 908.443 37.1306 Q904.959 41.7891 904.959 49.9314 Q904.959 58.0738 908.402 62.7728 Q911.886 67.4314 917.922 67.4314 Q923.877 67.4314 927.36 62.7323 Q930.844 58.0333 930.844 49.9314 Q930.844 41.8701 927.36 37.1711 Q923.877 32.4315 917.922 32.4315 M917.922 26.1121 Q927.644 26.1121 933.194 32.4315 Q938.744 38.7509 938.744 49.9314 Q938.744 61.0714 933.194 67.4314 Q927.644 73.7508 917.922 73.7508 Q908.159 73.7508 902.609 67.4314 Q897.1 61.0714 897.1 49.9314 Q897.1 38.7509 902.609 32.4315 Q908.159 26.1121 917.922 26.1121 Z" fill="#000000" fill-rule="nonzero" fill-opacity="1" /><path clip-path="url(#clip260)" d="M977.389 34.1734 Q976.133 33.4443 974.635 33.1202 Q973.176 32.7556 971.394 32.7556 Q965.074 32.7556 961.672 36.8875 Q958.309 40.9789 958.309 48.6757 L958.309 72.576 L950.815 72.576 L950.815 27.2059 L958.309 27.2059 L958.309 34.2544 Q960.659 30.1225 964.426 28.1376 Q968.194 26.1121 973.581 26.1121 Q974.351 26.1121 975.283 26.2337 Q976.214 26.3147 977.349 26.5172 L977.389 34.1734 Z" fill="#000000" fill-rule="nonzero" fill-opacity="1" /><path clip-path="url(#clip260)" d="M1010.04 34.1734 Q1008.78 33.4443 1007.28 33.1202 Q1005.83 32.7556 1004.04 32.7556 Q997.725 32.7556 994.322 36.8875 Q990.96 40.9789 990.96 48.6757 L990.96 72.576 L983.465 72.576 L983.465 27.2059 L990.96 27.2059 L990.96 34.2544 Q993.309 30.1225 997.077 28.1376 Q1000.84 26.1121 1006.23 26.1121 Q1007 26.1121 1007.93 26.2337 Q1008.86 26.3147 1010 26.5172 L1010.04 34.1734 Z" fill="#000000" fill-rule="nonzero" fill-opacity="1" /><path clip-path="url(#clip260)" d="M1054.84 48.0275 L1054.84 51.6733 L1020.57 51.6733 Q1021.06 59.3701 1025.19 63.421 Q1029.36 67.4314 1036.78 67.4314 Q1041.07 67.4314 1045.08 66.3781 Q1049.13 65.3249 1053.1 63.2184 L1053.1 70.267 Q1049.09 71.9684 1044.88 72.8596 Q1040.66 73.7508 1036.33 73.7508 Q1025.47 73.7508 1019.11 67.4314 Q1012.79 61.1119 1012.79 50.3365 Q1012.79 39.1965 1018.79 32.6746 Q1024.83 26.1121 1035.03 26.1121 Q1044.19 26.1121 1049.5 32.0264 Q1054.84 37.9003 1054.84 48.0275 M1047.39 45.84 Q1047.31 39.7232 1043.95 36.0774 Q1040.62 32.4315 1035.11 32.4315 Q1028.88 32.4315 1025.11 35.9558 Q1021.38 39.4801 1020.81 45.8805 L1047.39 45.84 Z" fill="#000000" fill-rule="nonzero" fill-opacity="1" /><path clip-path="url(#clip260)" d="M1067.08 9.54393 L1074.53 9.54393 L1074.53 72.576 L1067.08 72.576 L1067.08 9.54393 Z" fill="#000000" fill-rule="nonzero" fill-opacity="1" /><path clip-path="url(#clip260)" d="M1110.74 49.7694 Q1101.71 49.7694 1098.23 51.8354 Q1094.74 53.9013 1094.74 58.8839 Q1094.74 62.8538 1097.34 65.2034 Q1099.97 67.5124 1104.47 67.5124 Q1110.66 67.5124 1114.39 63.1374 Q1118.16 58.7219 1118.16 51.4303 L1118.16 49.7694 L1110.74 49.7694 M1125.61 46.6907 L1125.61 72.576 L1118.16 72.576 L1118.16 65.6895 Q1115.61 69.8214 1111.8 71.8063 Q1107.99 73.7508 1102.48 73.7508 Q1095.51 73.7508 1091.38 69.8619 Q1087.29 65.9325 1087.29 59.3701 Q1087.29 51.7138 1092.39 47.825 Q1097.54 43.9361 1107.71 43.9361 L1118.16 43.9361 L1118.16 43.2069 Q1118.16 38.0623 1114.76 35.2672 Q1111.39 32.4315 1105.28 32.4315 Q1101.39 32.4315 1097.7 33.3632 Q1094.01 34.295 1090.61 36.1584 L1090.61 29.2718 Q1094.7 27.692 1098.55 26.9223 Q1102.4 26.1121 1106.05 26.1121 Q1115.89 26.1121 1120.75 31.2163 Q1125.61 36.3204 1125.61 46.6907 Z" fill="#000000" fill-rule="nonzero" fill-opacity="1" /><path clip-path="url(#clip260)" d="M1148.34 14.324 L1148.34 27.2059 L1163.69 27.2059 L1163.69 32.9987 L1148.34 32.9987 L1148.34 57.6282 Q1148.34 63.1779 1149.84 64.7578 Q1151.38 66.3376 1156.03 66.3376 L1163.69 66.3376 L1163.69 72.576 L1156.03 72.576 Q1147.41 72.576 1144.12 69.3758 Q1140.84 66.1351 1140.84 57.6282 L1140.84 32.9987 L1135.37 32.9987 L1135.37 27.2059 L1140.84 27.2059 L1140.84 14.324 L1148.34 14.324 Z" fill="#000000" fill-rule="nonzero" fill-opacity="1" /><path clip-path="url(#clip260)" d="M1173.49 27.2059 L1180.95 27.2059 L1180.95 72.576 L1173.49 72.576 L1173.49 27.2059 M1173.49 9.54393 L1180.95 9.54393 L1180.95 18.9825 L1173.49 18.9825 L1173.49 9.54393 Z" fill="#000000" fill-rule="nonzero" fill-opacity="1" /><path clip-path="url(#clip260)" d="M1214.12 32.4315 Q1208.13 32.4315 1204.64 37.1306 Q1201.16 41.7891 1201.16 49.9314 Q1201.16 58.0738 1204.6 62.7728 Q1208.09 67.4314 1214.12 67.4314 Q1220.08 67.4314 1223.56 62.7323 Q1227.05 58.0333 1227.05 49.9314 Q1227.05 41.8701 1223.56 37.1711 Q1220.08 32.4315 1214.12 32.4315 M1214.12 26.1121 Q1223.85 26.1121 1229.4 32.4315 Q1234.95 38.7509 1234.95 49.9314 Q1234.95 61.0714 1229.4 67.4314 Q1223.85 73.7508 1214.12 73.7508 Q1204.36 73.7508 1198.81 67.4314 Q1193.3 61.0714 1193.3 49.9314 Q1193.3 38.7509 1198.81 32.4315 Q1204.36 26.1121 1214.12 26.1121 Z" fill="#000000" fill-rule="nonzero" fill-opacity="1" /><path clip-path="url(#clip260)" d="M1285.01 45.1919 L1285.01 72.576 L1277.56 72.576 L1277.56 45.4349 Q1277.56 38.994 1275.05 35.7938 Q1272.54 32.5936 1267.51 32.5936 Q1261.48 32.5936 1258 36.4419 Q1254.51 40.2903 1254.51 46.9338 L1254.51 72.576 L1247.02 72.576 L1247.02 27.2059 L1254.51 27.2059 L1254.51 34.2544 Q1257.19 30.163 1260.79 28.1376 Q1264.44 26.1121 1269.18 26.1121 Q1276.99 26.1121 1281 30.9732 Q1285.01 35.7938 1285.01 45.1919 Z" fill="#000000" fill-rule="nonzero" fill-opacity="1" /><path clip-path="url(#clip260)" d="M1326.58 12.096 L1361.33 12.096 L1361.33 18.9825 L1334.76 18.9825 L1334.76 36.8065 L1358.74 36.8065 L1358.74 43.6931 L1334.76 43.6931 L1334.76 72.576 L1326.58 72.576 L1326.58 12.096 Z" fill="#000000" fill-rule="nonzero" fill-opacity="1" /><path clip-path="url(#clip260)" d="M1368.67 54.671 L1368.67 27.2059 L1376.12 27.2059 L1376.12 54.3874 Q1376.12 60.8284 1378.63 64.0691 Q1381.14 67.2693 1386.17 67.2693 Q1392.2 67.2693 1395.69 63.421 Q1399.21 59.5726 1399.21 52.9291 L1399.21 27.2059 L1406.66 27.2059 L1406.66 72.576 L1399.21 72.576 L1399.21 65.6084 Q1396.5 69.7404 1392.89 71.7658 Q1389.33 73.7508 1384.59 73.7508 Q1376.77 73.7508 1372.72 68.8897 Q1368.67 64.0286 1368.67 54.671 M1387.42 26.1121 L1387.42 26.1121 Z" fill="#000000" fill-rule="nonzero" fill-opacity="1" /><path clip-path="url(#clip260)" d="M1459.73 45.1919 L1459.73 72.576 L1452.28 72.576 L1452.28 45.4349 Q1452.28 38.994 1449.77 35.7938 Q1447.25 32.5936 1442.23 32.5936 Q1436.19 32.5936 1432.71 36.4419 Q1429.23 40.2903 1429.23 46.9338 L1429.23 72.576 L1421.73 72.576 L1421.73 27.2059 L1429.23 27.2059 L1429.23 34.2544 Q1431.9 30.163 1435.51 28.1376 Q1439.15 26.1121 1443.89 26.1121 Q1451.71 26.1121 1455.72 30.9732 Q1459.73 35.7938 1459.73 45.1919 Z" fill="#000000" fill-rule="nonzero" fill-opacity="1" /><path clip-path="url(#clip260)" d="M1507.25 28.9478 L1507.25 35.9153 Q1504.09 34.1734 1500.89 33.3227 Q1497.73 32.4315 1494.49 32.4315 Q1487.24 32.4315 1483.23 37.0496 Q1479.22 41.6271 1479.22 49.9314 Q1479.22 58.2358 1483.23 62.8538 Q1487.24 67.4314 1494.49 67.4314 Q1497.73 67.4314 1500.89 66.5807 Q1504.09 65.6895 1507.25 63.9476 L1507.25 70.8341 Q1504.13 72.2924 1500.77 73.0216 Q1497.44 73.7508 1493.68 73.7508 Q1483.43 73.7508 1477.39 67.3098 Q1471.36 60.8689 1471.36 49.9314 Q1471.36 38.832 1477.43 32.472 Q1483.55 26.1121 1494.16 26.1121 Q1497.61 26.1121 1500.89 26.8413 Q1504.17 27.5299 1507.25 28.9478 Z" fill="#000000" fill-rule="nonzero" fill-opacity="1" /><path clip-path="url(#clip260)" d="M1527.58 14.324 L1527.58 27.2059 L1542.94 27.2059 L1542.94 32.9987 L1527.58 32.9987 L1527.58 57.6282 Q1527.58 63.1779 1529.08 64.7578 Q1530.62 66.3376 1535.28 66.3376 L1542.94 66.3376 L1542.94 72.576 L1535.28 72.576 Q1526.65 72.576 1523.37 69.3758 Q1520.09 66.1351 1520.09 57.6282 L1520.09 32.9987 L1514.62 32.9987 L1514.62 27.2059 L1520.09 27.2059 L1520.09 14.324 L1527.58 14.324 Z" fill="#000000" fill-rule="nonzero" fill-opacity="1" /><path clip-path="url(#clip260)" d="M1552.74 27.2059 L1560.19 27.2059 L1560.19 72.576 L1552.74 72.576 L1552.74 27.2059 M1552.74 9.54393 L1560.19 9.54393 L1560.19 18.9825 L1552.74 18.9825 L1552.74 9.54393 Z" fill="#000000" fill-rule="nonzero" fill-opacity="1" /><path clip-path="url(#clip260)" d="M1593.37 32.4315 Q1587.37 32.4315 1583.89 37.1306 Q1580.41 41.7891 1580.41 49.9314 Q1580.41 58.0738 1583.85 62.7728 Q1587.33 67.4314 1593.37 67.4314 Q1599.32 67.4314 1602.81 62.7323 Q1606.29 58.0333 1606.29 49.9314 Q1606.29 41.8701 1602.81 37.1711 Q1599.32 32.4315 1593.37 32.4315 M1593.37 26.1121 Q1603.09 26.1121 1608.64 32.4315 Q1614.19 38.7509 1614.19 49.9314 Q1614.19 61.0714 1608.64 67.4314 Q1603.09 73.7508 1593.37 73.7508 Q1583.61 73.7508 1578.06 67.4314 Q1572.55 61.0714 1572.55 49.9314 Q1572.55 38.7509 1578.06 32.4315 Q1583.61 26.1121 1593.37 26.1121 Z" fill="#000000" fill-rule="nonzero" fill-opacity="1" /><path clip-path="url(#clip260)" d="M1664.26 45.1919 L1664.26 72.576 L1656.81 72.576 L1656.81 45.4349 Q1656.81 38.994 1654.3 35.7938 Q1651.78 32.5936 1646.76 32.5936 Q1640.72 32.5936 1637.24 36.4419 Q1633.76 40.2903 1633.76 46.9338 L1633.76 72.576 L1626.26 72.576 L1626.26 27.2059 L1633.76 27.2059 L1633.76 34.2544 Q1636.43 30.163 1640.04 28.1376 Q1643.68 26.1121 1648.42 26.1121 Q1656.24 26.1121 1660.25 30.9732 Q1664.26 35.7938 1664.26 45.1919 Z" fill="#000000" fill-rule="nonzero" fill-opacity="1" /><path clip-path="url(#clip260)" d="M1723.4 9.62495 Q1717.98 18.942 1715.34 28.0566 Q1712.71 37.1711 1712.71 46.5287 Q1712.71 55.8863 1715.34 65.0818 Q1718.02 74.2369 1723.4 83.5134 L1716.92 83.5134 Q1710.85 73.9938 1707.81 64.7983 Q1704.81 55.6027 1704.81 46.5287 Q1704.81 37.4952 1707.81 28.3401 Q1710.81 19.1851 1716.92 9.62495 L1723.4 9.62495 Z" fill="#000000" fill-rule="nonzero" fill-opacity="1" /><path clip-path="url(#clip260)" d="M1758.4 20.1573 L1747.3 50.2555 L1769.54 50.2555 L1758.4 20.1573 M1753.79 12.096 L1763.06 12.096 L1786.11 72.576 L1777.6 72.576 L1772.1 57.061 L1744.83 57.061 L1739.32 72.576 L1730.7 72.576 L1753.79 12.096 Z" fill="#000000" fill-rule="nonzero" fill-opacity="1" /><path clip-path="url(#clip260)" d="M1794.94 12.096 L1829.7 12.096 L1829.7 18.9825 L1803.13 18.9825 L1803.13 36.8065 L1827.11 36.8065 L1827.11 43.6931 L1803.13 43.6931 L1803.13 72.576 L1794.94 72.576 L1794.94 12.096 Z" fill="#000000" fill-rule="nonzero" fill-opacity="1" /><path clip-path="url(#clip260)" d="M1887.95 16.7545 L1887.95 25.383 Q1883.82 21.5346 1879.12 19.6307 Q1874.46 17.7268 1869.2 17.7268 Q1858.83 17.7268 1853.32 24.0867 Q1847.81 30.4061 1847.81 42.3968 Q1847.81 54.3469 1853.32 60.7069 Q1858.83 67.0263 1869.2 67.0263 Q1874.46 67.0263 1879.12 65.1223 Q1883.82 63.2184 1887.95 59.3701 L1887.95 67.9175 Q1883.66 70.8341 1878.84 72.2924 Q1874.06 73.7508 1868.71 73.7508 Q1854.98 73.7508 1847.08 65.3654 Q1839.18 56.9395 1839.18 42.3968 Q1839.18 27.8135 1847.08 19.4281 Q1854.98 11.0023 1868.71 11.0023 Q1874.14 11.0023 1878.92 12.4606 Q1883.74 13.8784 1887.95 16.7545 Z" fill="#000000" fill-rule="nonzero" fill-opacity="1" /><path clip-path="url(#clip260)" d="M1899.09 9.62495 L1905.57 9.62495 Q1911.65 19.1851 1914.65 28.3401 Q1917.69 37.4952 1917.69 46.5287 Q1917.69 55.6027 1914.65 64.7983 Q1911.65 73.9938 1905.57 83.5134 L1899.09 83.5134 Q1904.48 74.2369 1907.11 65.0818 Q1909.79 55.8863 1909.79 46.5287 Q1909.79 37.1711 1907.11 28.0566 Q1904.48 18.942 1899.09 9.62495 Z" fill="#000000" fill-rule="nonzero" fill-opacity="1" /><polyline clip-path="url(#clip262)" style="stroke:#ff0000; stroke-linecap:round; stroke-linejoin:round; stroke-width:8; stroke-opacity:1; fill:none" points="280.231,160.256 320.474,570.525 360.717,831.702 400.961,1003.93 441.204,1118.89 481.447,1194.65 521.69,1247.16 561.933,1282.13 602.177,1304.51 642.42,1315.36 682.663,1327.06 722.906,1336.78 763.149,1341.54 803.393,1342.22 843.636,1345.63 883.879,1348.42 924.122,1352.63 964.365,1352.67 1004.61,1357.43 1044.85,1360.09 1085.1,1363.71 1125.34,1365.47 1165.58,1367.98 1205.82,1366.14 1246.07,1367.47 1286.31,1367.91 1326.55,1366.04 1366.8,1367.47 1407.04,1369.86 1447.28,1372.62 1487.53,1373.82 1527.77,1377.16 1568.01,1378.37 1608.26,1378.73 1648.5,1377.36 1688.74,1378.2 1728.99,1376.61 1769.23,1373.96 1809.47,1373.53 1849.72,1373.17 1889.96,1372.37 1930.2,1371.62 1970.45,1366.27 2010.69,1364.36 2050.93,1364 2091.18,1366 2131.42,1366.72 2171.66,1360.41 2211.9,1360.63 2252.15,1362.96 2292.39,1371.28 "/>
<polyline clip-path="url(#clip262)" style="stroke:#ff0000; stroke-linecap:round; stroke-linejoin:round; stroke-width:8; stroke-opacity:1; fill:none" points="280.231,160.256 320.474,549.24 360.717,807.98 400.961,981.153 441.204,1099.42 481.447,1181.49 521.69,1236.17 561.933,1271.11 602.177,1299.72 642.42,1316.05 682.663,1327.96 722.906,1338.58 763.149,1345.77 803.393,1353.3 843.636,1356.55 883.879,1360.64 924.122,1366.59 964.365,1372.8 1004.61,1376.49 1044.85,1380.56 1085.1,1382.64 1125.34,1380.5 1165.58,1381.2 1205.82,1380.15 1246.07,1380.51 1286.31,1380.47 1326.55,1377.37 1366.8,1376.07 1407.04,1374.81 1447.28,1376.32 1487.53,1375.35 1527.77,1374.72 1568.01,1368.53 1608.26,1365.87 1648.5,1368.25 1688.74,1368.99 1728.99,1367.65 1769.23,1369.57 1809.47,1370.24 1849.72,1367.6 1889.96,1366.85 1930.2,1367.77 1970.45,1372.52 2010.69,1373.16 2050.93,1373.01 2091.18,1375.13 2131.42,1373.35 2171.66,1370.61 2211.9,1368.93 2252.15,1367.24 2292.39,1366.49 "/>
<polyline clip-path="url(#clip262)" style="stroke:#ff0000; stroke-linecap:round; stroke-linejoin:round; stroke-width:8; stroke-opacity:1; fill:none" points="280.231,160.256 320.474,533.37 360.717,786.436 400.961,956.928 441.204,1076.95 481.447,1161.75 521.69,1222.92 561.933,1260.65 602.177,1289.75 642.42,1308.94 682.663,1321.09 722.906,1332.81 763.149,1341.51 803.393,1346.73 843.636,1352.2 883.879,1357.96 924.122,1366.49 964.365,1374.34 1004.61,1379.4 1044.85,1381.94 1085.1,1384.94 1125.34,1383.98 1165.58,1383.81 1205.82,1381.43 1246.07,1381.51 1286.31,1380.61 1326.55,1377.12 1366.8,1377.91 1407.04,1377.43 1447.28,1378.42 1487.53,1376.77 1527.77,1377.45 1568.01,1371.62 1608.26,1367.26 1648.5,1367.05 1688.74,1365.15 1728.99,1362.83 1769.23,1365.05 1809.47,1366.28 1849.72,1366.1 1889.96,1366.99 1930.2,1368.52 1970.45,1371.83 2010.69,1370.47 2050.93,1370.24 2091.18,1373.3 2131.42,1372.45 2171.66,1369.57 2211.9,1366.99 2252.15,1363.64 2292.39,1361.1 "/>
<polyline clip-path="url(#clip262)" style="stroke:#008000; stroke-linecap:round; stroke-linejoin:round; stroke-width:8; stroke-opacity:1; fill:none" points="280.231,160.256 320.474,528.782 360.717,777.997 400.961,951.878 441.204,1069.54 481.447,1152.39 521.69,1212.53 561.933,1259.83 602.177,1293.55 642.42,1319.39 682.663,1339.43 722.906,1348.66 763.149,1357.86 803.393,1361.99 843.636,1363.46 883.879,1363.67 924.122,1364.69 964.365,1366.12 1004.61,1367.71 1044.85,1368.12 1085.1,1370.27 1125.34,1371.33 1165.58,1372.65 1205.82,1372.6 1246.07,1371.3 1286.31,1372.83 1326.55,1373.96 1366.8,1370.68 1407.04,1371.64 1447.28,1374.51 1487.53,1377.79 1527.77,1381.23 1568.01,1382.56 1608.26,1382.08 1648.5,1380.1 1688.74,1383.04 1728.99,1382.64 1769.23,1380.56 1809.47,1380 1849.72,1375.25 1889.96,1372.85 1930.2,1371.57 1970.45,1373.68 2010.69,1371.88 2050.93,1370.97 2091.18,1369.51 2131.42,1366.99 2171.66,1367.6 2211.9,1368.49 2252.15,1372.31 2292.39,1376.84 "/>
<polyline clip-path="url(#clip262)" style="stroke:#008000; stroke-linecap:round; stroke-linejoin:round; stroke-width:8; stroke-opacity:1; fill:none" points="280.231,160.256 320.474,517.889 360.717,762.887 400.961,934.924 441.204,1053.7 481.447,1138.07 521.69,1199.2 561.933,1248.25 602.177,1284.28 642.42,1312.14 682.663,1333.82 722.906,1345.03 763.149,1353.97 803.393,1358.89 843.636,1359.67 883.879,1361.57 924.122,1366.6 964.365,1367.86 1004.61,1369.43 1044.85,1368.67 1085.1,1369.77 1125.34,1370.5 1165.58,1371.32 1205.82,1371.53 1246.07,1370.96 1286.31,1372.59 1326.55,1370.6 1366.8,1365.34 1407.04,1364.86 1447.28,1366.72 1487.53,1370.69 1527.77,1375.1 1568.01,1377.99 1608.26,1378.62 1648.5,1380.66 1688.74,1385.04 1728.99,1386.4 1769.23,1385.42 1809.47,1383.66 1849.72,1379.09 1889.96,1376.57 1930.2,1377.28 1970.45,1378.82 2010.69,1378.2 2050.93,1376.69 2091.18,1373.92 2131.42,1372.88 2171.66,1372.92 2211.9,1373.1 2252.15,1375.79 2292.39,1378.82 "/>
<polyline clip-path="url(#clip262)" style="stroke:#008000; stroke-linecap:round; stroke-linejoin:round; stroke-width:8; stroke-opacity:1; fill:none" points="280.231,160.256 320.474,546.897 360.717,801.559 400.961,976.794 441.204,1097.41 481.447,1178.62 521.69,1232.1 561.933,1272.53 602.177,1299.85 642.42,1316.71 682.663,1325.69 722.906,1336.31 763.149,1346.88 803.393,1353.19 843.636,1358.52 883.879,1362.3 924.122,1365.49 964.365,1369.49 1004.61,1367.4 1044.85,1365.99 1085.1,1364.16 1125.34,1363.99 1165.58,1366.29 1205.82,1366.52 1246.07,1367.95 1286.31,1369.51 1326.55,1372.16 1366.8,1377.28 1407.04,1376.62 1447.28,1377.61 1487.53,1377.32 1527.77,1376.15 1568.01,1379.63 1608.26,1382.85 1648.5,1382.08 1688.74,1382.41 1728.99,1381.03 1769.23,1379.81 1809.47,1380.63 1849.72,1379.92 1889.96,1377.24 1930.2,1375.73 1970.45,1376.32 2010.69,1377.55 2050.93,1377.89 2091.18,1379.79 2131.42,1377.94 2171.66,1379.39 2211.9,1381.3 2252.15,1379.71 2292.39,1377.68 "/>
<path clip-path="url(#clip260)" d="M1845.8 322.316 L2281.66 322.316 L2281.66 166.796 L1845.8 166.796  Z" fill="#ffffff" fill-rule="evenodd" fill-opacity="1"/>
<polyline clip-path="url(#clip260)" style="stroke:#000000; stroke-linecap:round; stroke-linejoin:round; stroke-width:4; stroke-opacity:1; fill:none" points="1845.8,322.316 2281.66,322.316 2281.66,166.796 1845.8,166.796 1845.8,322.316 "/>
<polyline clip-path="url(#clip260)" style="stroke:#ff0000; stroke-linecap:round; stroke-linejoin:round; stroke-width:8; stroke-opacity:1; fill:none" points="1869.5,218.636 2011.69,218.636 "/>
<path clip-path="url(#clip260)" d="M2055.21 211.128 Q2055.21 215.063 2053.94 219.49 Q2052.7 223.893 2050.73 227.453 Q2048.76 230.99 2046.19 233.332 Q2043.61 235.651 2041.15 235.651 Q2039.58 235.651 2038.41 234.784 Q2037.26 233.894 2036.63 232.419 Q2036 230.92 2035.69 229.28 Q2035.39 227.617 2035.39 225.814 Q2035.39 223.12 2035.98 220.192 Q2036.56 217.241 2037.54 214.571 Q2038.53 211.877 2039.91 209.441 Q2041.29 206.982 2042.81 205.202 Q2044.36 203.398 2046.09 202.344 Q2047.83 201.29 2049.44 201.29 Q2050.61 201.29 2051.55 201.806 Q2052.51 202.297 2053.12 203.164 Q2053.73 204.007 2054.15 205.014 Q2054.6 206.022 2054.81 207.193 Q2055.02 208.34 2055.11 209.301 Q2055.21 210.238 2055.21 211.128 M2052.04 208.153 Q2052.04 206.959 2051.95 206.068 Q2051.86 205.155 2051.6 204.241 Q2051.34 203.328 2050.78 202.836 Q2050.24 202.344 2049.4 202.344 Q2046.94 202.344 2044.17 207.38 Q2043.28 208.949 2042.49 211.081 Q2041.69 213.212 2041.41 214.219 Q2041.13 215.227 2040.47 217.709 L2050.5 217.709 Q2052.04 211.315 2052.04 208.153 M2050.08 219.232 L2040.1 219.232 Q2038.55 225.087 2038.55 228.741 Q2038.55 231.927 2039.21 233.262 Q2039.89 234.574 2041.15 234.574 Q2042.6 234.574 2043.96 233.121 Q2045.32 231.646 2046.7 228.976 Q2048.53 225.509 2050.08 219.232 Z" fill="#000000" fill-rule="nonzero" fill-opacity="1" /><polyline clip-path="url(#clip260)" style="stroke:#008000; stroke-linecap:round; stroke-linejoin:round; stroke-width:8; stroke-opacity:1; fill:none" points="1869.5,270.476 2011.69,270.476 "/>
<path clip-path="url(#clip260)" d="M2059.28 263.472 Q2059.28 264.783 2058.46 265.533 Q2057.64 266.259 2056.7 266.259 Q2055.81 266.259 2055.35 265.744 Q2054.88 265.228 2054.88 264.573 Q2054.88 263.682 2055.53 262.91 Q2056.19 262.137 2057.17 261.973 Q2056.21 261.364 2054.78 261.364 Q2053.85 261.364 2053.03 261.856 Q2052.23 262.347 2051.74 262.98 Q2051.27 263.612 2050.85 264.526 Q2050.45 265.416 2050.29 265.954 Q2050.15 266.47 2050.03 267.032 L2048.39 273.59 Q2047.59 276.705 2047.59 277.806 Q2047.59 279.165 2048.25 280.078 Q2048.9 280.968 2050.22 280.968 Q2050.73 280.968 2051.32 280.828 Q2051.9 280.664 2052.65 280.242 Q2053.43 279.797 2054.1 279.141 Q2054.81 278.462 2055.49 277.314 Q2056.17 276.167 2056.61 274.691 Q2056.75 274.176 2057.22 274.176 Q2057.81 274.176 2057.81 274.644 Q2057.81 275.042 2057.48 275.886 Q2057.17 276.705 2056.49 277.783 Q2055.84 278.837 2054.97 279.797 Q2054.1 280.734 2052.82 281.39 Q2051.53 282.046 2050.12 282.046 Q2048.11 282.046 2046.77 280.968 Q2045.44 279.891 2044.95 278.392 Q2044.83 278.603 2044.67 278.884 Q2044.5 279.165 2044.01 279.797 Q2043.54 280.406 2043 280.875 Q2042.46 281.32 2041.62 281.671 Q2040.8 282.046 2039.91 282.046 Q2038.79 282.046 2037.78 281.718 Q2036.8 281.39 2036.09 280.64 Q2035.39 279.891 2035.39 278.86 Q2035.39 277.713 2036.16 276.916 Q2036.96 276.096 2038.04 276.096 Q2038.72 276.096 2039.25 276.495 Q2039.82 276.893 2039.82 277.759 Q2039.82 278.72 2039.16 279.446 Q2038.5 280.172 2037.57 280.359 Q2038.53 280.968 2039.96 280.968 Q2041.5 280.968 2042.72 279.61 Q2043.94 278.251 2044.52 275.979 Q2045.98 270.522 2046.54 268.086 Q2047.1 265.627 2047.1 264.573 Q2047.1 263.589 2046.84 262.91 Q2046.59 262.23 2046.14 261.926 Q2045.72 261.598 2045.32 261.481 Q2044.95 261.364 2044.52 261.364 Q2043.82 261.364 2043.03 261.645 Q2042.25 261.926 2041.32 262.582 Q2040.4 263.214 2039.54 264.526 Q2038.67 265.837 2038.08 267.641 Q2037.97 268.18 2037.45 268.18 Q2036.89 268.156 2036.89 267.688 Q2036.89 267.29 2037.19 266.47 Q2037.52 265.627 2038.18 264.573 Q2038.86 263.519 2039.72 262.582 Q2040.61 261.621 2041.9 260.965 Q2043.21 260.31 2044.62 260.31 Q2045.25 260.31 2045.86 260.45 Q2046.49 260.567 2047.24 260.919 Q2048.01 261.27 2048.69 262.043 Q2049.37 262.816 2049.79 263.94 Q2050.08 263.401 2050.45 262.886 Q2050.85 262.371 2051.46 261.738 Q2052.09 261.083 2052.96 260.708 Q2053.85 260.31 2054.83 260.31 Q2055.79 260.31 2056.73 260.567 Q2057.66 260.802 2058.46 261.574 Q2059.28 262.324 2059.28 263.472 Z" fill="#000000" fill-rule="nonzero" fill-opacity="1" /><path clip-path="url(#clip260)" d="M2065.62 269.515 Q2065.62 261.411 2068.64 254.876 Q2069.93 252.135 2071.73 249.84 Q2073.54 247.544 2074.73 246.537 Q2075.93 245.53 2076.25 245.53 Q2076.72 245.53 2076.75 245.999 Q2076.75 246.233 2076.11 246.818 Q2068.38 254.688 2068.41 269.515 Q2068.41 284.388 2075.93 291.953 Q2076.75 292.773 2076.75 293.031 Q2076.75 293.499 2076.25 293.499 Q2075.93 293.499 2074.78 292.539 Q2073.63 291.579 2071.85 289.377 Q2070.07 287.175 2068.78 284.482 Q2065.62 277.947 2065.62 269.515 Z" fill="#000000" fill-rule="nonzero" fill-opacity="1" /><path clip-path="url(#clip260)" d="M2115.7 268.835 Q2115.98 269.116 2115.98 269.515 Q2115.98 269.913 2115.7 270.194 Q2115.42 270.475 2115.02 270.475 L2085 270.475 Q2084.6 270.475 2084.32 270.194 Q2084.04 269.913 2084.04 269.515 Q2084.04 269.116 2084.32 268.835 Q2084.6 268.554 2085 268.554 L2115.02 268.554 Q2115.42 268.554 2115.7 268.835 Z" fill="#000000" fill-rule="nonzero" fill-opacity="1" /><path clip-path="url(#clip260)" d="M2153.61 249.559 Q2153.61 250.004 2153.52 250.379 L2152.21 258.717 Q2152.14 259.349 2152 259.584 Q2151.88 259.818 2151.5 259.818 Q2150.92 259.818 2150.92 259.209 Q2150.92 258.857 2151.06 258.295 Q2151.46 255.649 2151.46 254.454 Q2151.46 253.658 2151.29 253.072 Q2151.15 252.463 2150.92 252.042 Q2150.71 251.62 2150.21 251.339 Q2149.72 251.058 2149.25 250.894 Q2148.79 250.73 2147.94 250.66 Q2147.1 250.566 2146.37 250.542 Q2145.65 250.519 2144.45 250.519 Q2141.85 250.519 2141.43 250.613 Q2140.99 250.73 2140.75 251.081 Q2140.54 251.409 2140.31 252.393 L2133.94 277.853 L2133.75 278.86 Q2133.75 279.422 2134.1 279.61 Q2134.45 279.797 2135.53 279.914 Q2137.07 280.031 2138.6 280.031 Q2138.64 280.031 2138.74 280.031 Q2139.25 280.031 2139.46 280.055 Q2139.67 280.055 2139.89 280.102 Q2140.1 280.148 2140.14 280.266 Q2140.21 280.359 2140.21 280.547 Q2140.21 280.992 2140.03 281.226 Q2139.84 281.437 2139.65 281.484 Q2139.49 281.507 2139.16 281.507 Q2138.5 281.507 2137.1 281.46 Q2135.69 281.413 2134.99 281.413 L2131.01 281.366 L2126.93 281.413 Q2126.3 281.413 2124.97 281.46 Q2123.63 281.507 2123 281.507 Q2122.18 281.507 2122.18 280.921 Q2122.18 280.266 2122.48 280.148 Q2122.81 280.031 2124.19 280.031 Q2126.14 280.031 2127.19 279.938 Q2128.24 279.844 2128.81 279.516 Q2129.39 279.188 2129.56 278.86 Q2129.72 278.509 2129.91 277.713 L2136.35 252.112 Q2136.54 251.55 2136.54 251.105 Q2136.54 250.87 2136.47 250.777 Q2136.42 250.683 2136.11 250.613 Q2135.81 250.519 2135.18 250.519 L2133.3 250.519 Q2131.38 250.519 2130.19 250.613 Q2129.02 250.683 2127.89 251.034 Q2126.79 251.386 2126.14 251.878 Q2125.5 252.369 2124.8 253.377 Q2124.1 254.384 2123.58 255.602 Q2123.09 256.82 2122.39 258.811 Q2122.15 259.466 2122.01 259.654 Q2121.9 259.818 2121.57 259.818 Q2121.34 259.818 2121.15 259.677 Q2120.98 259.513 2120.98 259.302 Q2121.22 258.53 2121.26 258.436 L2124.15 249.98 Q2124.38 249.301 2124.59 249.184 Q2124.82 249.043 2125.69 249.043 L2152.3 249.043 Q2152.72 249.043 2152.86 249.043 Q2153 249.043 2153.24 249.09 Q2153.47 249.137 2153.54 249.254 Q2153.61 249.371 2153.61 249.559 Z" fill="#000000" fill-rule="nonzero" fill-opacity="1" /><path clip-path="url(#clip260)" d="M2168.71 280.597 Q2168.71 281.056 2168.5 281.171 Q2168.29 281.27 2167.7 281.27 L2164.55 281.27 L2162.06 291.173 Q2161.86 292.041 2161.86 292.779 Q2161.86 293.599 2162.11 293.96 Q2162.37 294.32 2162.91 294.32 Q2163.98 294.32 2165.12 293.353 Q2166.29 292.386 2167.27 290.025 Q2167.4 289.713 2167.47 289.648 Q2167.55 289.566 2167.76 289.566 Q2168.17 289.566 2168.17 289.894 Q2168.17 290.008 2167.94 290.533 Q2167.73 291.058 2167.25 291.828 Q2166.8 292.599 2166.19 293.32 Q2165.6 294.042 2164.7 294.566 Q2163.79 295.075 2162.83 295.075 Q2161.47 295.075 2160.6 294.206 Q2159.75 293.337 2159.75 291.976 Q2159.75 291.533 2160.09 290.123 Q2160.43 288.697 2162.3 281.27 L2159.34 281.27 Q2158.93 281.27 2158.76 281.253 Q2158.61 281.237 2158.5 281.155 Q2158.4 281.056 2158.4 280.86 Q2158.4 280.548 2158.53 280.417 Q2158.66 280.269 2158.83 280.253 Q2159.01 280.22 2159.42 280.22 L2162.57 280.22 L2163.88 274.892 Q2164.01 274.367 2164.34 274.072 Q2164.68 273.76 2164.88 273.727 Q2165.07 273.678 2165.22 273.678 Q2165.66 273.678 2165.93 273.924 Q2166.19 274.154 2166.19 274.58 Q2166.19 274.81 2164.81 280.22 L2167.76 280.22 Q2168.14 280.22 2168.29 280.237 Q2168.45 280.253 2168.58 280.335 Q2168.71 280.417 2168.71 280.597 Z" fill="#000000" fill-rule="nonzero" fill-opacity="1" /><path clip-path="url(#clip260)" d="M2183.67 282.04 Q2183.67 282.909 2183.1 283.467 Q2182.54 284.024 2181.82 284.024 Q2181.19 284.024 2180.87 283.663 Q2180.54 283.303 2180.54 282.843 Q2180.54 282.188 2181.05 281.647 Q2181.55 281.106 2182.29 280.991 Q2181.75 280.597 2180.88 280.597 Q2179.46 280.597 2178.19 281.696 Q2177.64 282.204 2177.03 283.139 Q2176.42 284.057 2176.31 284.45 L2175.24 288.828 Q2175.14 289.32 2174.54 291.681 Q2173.95 294.025 2173.9 294.124 Q2173.73 294.583 2173.37 294.829 Q2173.01 295.075 2172.65 295.075 Q2172.24 295.075 2171.96 294.829 Q2171.68 294.583 2171.68 294.157 Q2171.68 294.091 2171.73 293.845 Q2171.78 293.599 2171.86 293.255 Q2171.95 292.91 2171.98 292.714 L2173.93 284.959 Q2174.29 283.549 2174.37 283.106 Q2174.47 282.647 2174.47 282.138 Q2174.47 281.253 2174.19 280.925 Q2173.91 280.597 2173.42 280.597 Q2172.57 280.597 2172.01 281.614 Q2171.45 282.63 2170.98 284.598 Q2170.83 285.139 2170.73 285.254 Q2170.65 285.368 2170.41 285.368 Q2170 285.352 2170 285.024 Q2170 284.942 2170.13 284.417 Q2170.26 283.876 2170.5 283.089 Q2170.77 282.286 2171.04 281.778 Q2171.21 281.433 2171.36 281.204 Q2171.5 280.974 2171.8 280.614 Q2172.09 280.253 2172.54 280.056 Q2172.98 279.859 2173.52 279.859 Q2174.7 279.859 2175.54 280.581 Q2176.39 281.302 2176.59 282.434 Q2177 281.843 2177.5 281.335 Q2178.01 280.81 2178.95 280.335 Q2179.88 279.859 2180.88 279.859 Q2182.13 279.859 2182.9 280.499 Q2183.67 281.122 2183.67 282.04 Z" fill="#000000" fill-rule="nonzero" fill-opacity="1" /><path clip-path="url(#clip260)" d="M2201.36 289.894 Q2200.92 292.009 2200.34 293.222 Q2199.43 295.075 2197.87 295.075 Q2196.69 295.075 2195.85 294.353 Q2195.01 293.632 2194.82 292.55 Q2192.67 295.075 2190.44 295.075 Q2188.47 295.075 2187.23 293.583 Q2185.98 292.074 2185.98 289.697 Q2185.98 287.303 2187.16 285.008 Q2188.36 282.712 2190.24 281.286 Q2192.13 279.859 2194.06 279.859 Q2196.11 279.859 2197.16 282.007 Q2197.24 281.417 2197.62 280.974 Q2198 280.532 2198.57 280.532 Q2199.02 280.532 2199.28 280.778 Q2199.54 281.007 2199.54 281.433 Q2199.54 281.647 2199.31 282.581 L2198.1 287.27 L2197.36 290.304 Q2197.08 291.418 2197 291.828 Q2196.93 292.238 2196.93 292.779 Q2196.93 294.32 2197.93 294.32 Q2198.43 294.32 2198.82 294.009 Q2199.21 293.697 2199.52 293.042 Q2199.84 292.386 2200.03 291.779 Q2200.23 291.156 2200.49 290.172 Q2200.57 289.779 2200.64 289.681 Q2200.72 289.566 2200.95 289.566 Q2201.36 289.566 2201.36 289.894 M2196.75 283.549 Q2196.75 283.401 2196.64 282.991 Q2196.52 282.581 2196.26 282.007 Q2196 281.433 2195.42 281.024 Q2194.87 280.597 2194.11 280.597 Q2193.1 280.597 2192.03 281.466 Q2190.98 282.335 2190.21 283.811 Q2189.62 284.991 2188.98 287.467 Q2188.36 289.943 2188.36 291.173 Q2188.36 291.927 2188.52 292.599 Q2188.7 293.255 2189.21 293.796 Q2189.72 294.32 2190.51 294.32 Q2192.42 294.32 2194.31 291.943 Q2194.67 291.533 2194.75 291.369 Q2194.85 291.189 2194.98 290.697 L2196.65 284.122 Q2196.75 283.63 2196.75 283.549 Z" fill="#000000" fill-rule="nonzero" fill-opacity="1" /><path clip-path="url(#clip260)" d="M2211.33 273.711 Q2211.33 274.432 2210.74 274.974 Q2210.17 275.498 2209.55 275.498 Q2208.97 275.498 2208.61 275.154 Q2208.27 274.793 2208.27 274.285 Q2208.27 273.613 2208.84 273.055 Q2209.41 272.498 2210.09 272.498 Q2210.64 272.498 2210.99 272.842 Q2211.33 273.186 2211.33 273.711 M2211.63 289.894 Q2211.63 290.025 2211.48 290.549 Q2211.33 291.058 2210.97 291.845 Q2210.63 292.615 2210.15 293.337 Q2209.68 294.058 2208.89 294.566 Q2208.12 295.075 2207.23 295.075 Q2206.04 295.075 2205.25 294.288 Q2204.48 293.501 2204.48 292.32 Q2204.48 291.681 2205.25 289.631 Q2207.48 283.663 2207.56 283.417 Q2207.94 282.483 2207.94 281.663 Q2207.94 281.286 2207.86 281.056 Q2207.77 280.81 2207.61 280.728 Q2207.45 280.63 2207.35 280.614 Q2207.27 280.597 2207.1 280.597 Q2206.13 280.597 2205.23 281.581 Q2204.33 282.565 2203.71 284.762 Q2203.58 285.172 2203.5 285.27 Q2203.41 285.368 2203.17 285.368 Q2202.76 285.352 2202.76 285.024 Q2202.76 284.926 2202.87 284.549 Q2202.99 284.155 2203.2 283.565 Q2203.41 282.958 2203.79 282.335 Q2204.17 281.696 2204.63 281.138 Q2205.1 280.581 2205.77 280.22 Q2206.45 279.859 2207.2 279.859 Q2208.43 279.859 2209.18 280.663 Q2209.96 281.45 2209.96 282.614 Q2209.96 283.253 2209.51 284.385 Q2208.97 285.86 2208.77 286.336 L2207.46 289.861 Q2206.99 291.14 2206.84 291.533 Q2206.71 291.91 2206.59 292.369 Q2206.5 292.812 2206.5 293.222 Q2206.5 293.796 2206.68 294.058 Q2206.87 294.32 2207.3 294.32 Q2208.48 294.32 2209.35 293.156 Q2210.22 291.976 2210.73 290.172 Q2210.74 290.123 2210.76 290.041 Q2210.89 289.631 2211.02 289.582 Q2211.09 289.566 2211.22 289.566 Q2211.63 289.566 2211.63 289.894 Z" fill="#000000" fill-rule="nonzero" fill-opacity="1" /><path clip-path="url(#clip260)" d="M2232.69 289.894 Q2232.69 290.025 2232.54 290.533 Q2232.39 291.041 2232.03 291.828 Q2231.69 292.615 2231.21 293.337 Q2230.74 294.042 2229.95 294.566 Q2229.18 295.075 2228.29 295.075 Q2227.11 295.075 2226.33 294.288 Q2225.54 293.501 2225.54 292.32 Q2225.54 291.664 2225.88 290.763 Q2228.06 284.942 2228.06 282.942 Q2228.06 280.597 2226.24 280.597 Q2225.34 280.597 2224.49 280.942 Q2223.65 281.27 2223.08 281.729 Q2222.51 282.188 2221.98 282.827 Q2221.47 283.45 2221.21 283.876 Q2220.96 284.286 2220.77 284.696 L2220.34 286.369 Q2220.24 286.828 2219.77 288.615 L2219.03 291.648 Q2218.51 293.911 2218.39 294.124 Q2218.23 294.583 2217.87 294.829 Q2217.51 295.075 2217.14 295.075 Q2216.73 295.075 2216.46 294.829 Q2216.18 294.583 2216.18 294.157 Q2216.18 294.091 2216.23 293.845 Q2216.28 293.599 2216.36 293.255 Q2216.44 292.91 2216.47 292.714 L2218.42 284.959 Q2218.78 283.549 2218.87 283.106 Q2218.96 282.647 2218.96 282.138 Q2218.96 280.597 2217.91 280.597 Q2217.06 280.597 2216.5 281.614 Q2215.95 282.63 2215.47 284.598 Q2215.32 285.139 2215.23 285.254 Q2215.14 285.368 2214.9 285.368 Q2214.49 285.352 2214.49 285.024 Q2214.49 284.942 2214.62 284.401 Q2214.75 283.86 2215 283.089 Q2215.26 282.302 2215.5 281.778 Q2215.72 281.384 2215.83 281.204 Q2215.96 281.007 2216.28 280.63 Q2216.6 280.237 2217.03 280.056 Q2217.47 279.859 2218.01 279.859 Q2219.23 279.859 2220.11 280.646 Q2221 281.417 2221.11 282.778 Q2223.29 279.859 2226.34 279.859 Q2228.15 279.859 2229.18 280.81 Q2230.21 281.761 2230.21 283.45 Q2230.21 283.844 2230.13 284.352 Q2230.06 284.844 2229.9 285.467 Q2229.75 286.09 2229.62 286.565 Q2229.49 287.041 2229.23 287.811 Q2228.97 288.566 2228.85 288.894 Q2228.74 289.221 2228.46 289.992 Q2228.2 290.746 2228.16 290.828 Q2227.56 292.353 2227.56 293.222 Q2227.56 293.796 2227.74 294.058 Q2227.93 294.32 2228.36 294.32 Q2229.51 294.32 2230.36 293.189 Q2231.23 292.041 2231.79 290.172 Q2231.92 289.762 2231.98 289.664 Q2232.06 289.566 2232.29 289.566 Q2232.69 289.566 2232.69 289.894 Z" fill="#000000" fill-rule="nonzero" fill-opacity="1" /><path clip-path="url(#clip260)" d="M2239.55 293.031 Q2239.55 292.797 2240.15 292.211 Q2247.88 284.341 2247.88 269.515 Q2247.88 254.641 2240.46 247.123 Q2239.55 246.256 2239.55 245.999 Q2239.55 245.53 2240.01 245.53 Q2240.34 245.53 2241.49 246.49 Q2242.66 247.451 2244.42 249.652 Q2246.2 251.854 2247.51 254.548 Q2250.67 261.083 2250.67 269.515 Q2250.67 277.619 2247.65 284.154 Q2246.36 286.894 2244.56 289.19 Q2242.75 291.485 2241.56 292.492 Q2240.37 293.499 2240.01 293.499 Q2239.55 293.499 2239.55 293.031 Z" fill="#000000" fill-rule="nonzero" fill-opacity="1" /></svg>
